<?xml version="1.0" encoding="UTF-8" standalone="no"?>
<svg width="240px" height="277px" viewBox="0 0 240 277" version="1.1" xmlns="http://www.w3.org/2000/svg" xmlns:xlink="http://www.w3.org/1999/xlink" xmlns:sketch="http://www.bohemiancoding.com/sketch/ns">
    <!-- Generator: Sketch 3.4.4 (17249) - http://www.bohemiancoding.com/sketch -->
    <title>ruby -1.1.3.3</title>
    <desc>Created with Sketch.</desc>
    <defs>
        <path id="path-1" d="M0,0.273 L239.65,0.273 L239.65,276.94 L0,276.94"></path>
    </defs>
    <g id="Page-1" stroke="none" stroke-width="1" fill="none" fill-rule="evenodd" sketch:type="MSPage">
        <g id="ruby--1.1.3.3" sketch:type="MSLayerGroup">
            <g id="Group-3">
                <mask id="mask-2" sketch:name="Clip 2" fill="white">
                    <use xlink:href="#path-1"></use>
                </mask>
                <g id="Clip-2"></g>
                <path d="M119.822,0.273 L239.65,69.446 L239.65,207.811 L119.826,277 L0,207.811 L0,69.446 L119.822,0.273" id="Fill-1" fill="#c15a5b" sketch:type="MSShapeGroup" mask="url(#mask-2)"></path>
            </g>
            <path d="M120.216,41.591 L109.292,47.898 L158.125,76.277 L152.665,79.429 L103.833,51.051 L92.909,57.358 L152.591,92.043 L179.898,76.276 L120.216,41.591" id="Fill-4" fill="#2b343d" sketch:type="MSShapeGroup"></path>
            <path d="M87.447,60.511 L60.143,76.277 L119.825,110.961 L147.128,95.196 L136.279,88.89 L119.895,98.35 L114.468,95.196 L130.853,85.737 L120.001,79.431 L103.618,88.89 L81.914,76.277 L98.297,66.817 L87.447,60.511" id="Fill-5" fill="#2b343d" sketch:type="MSShapeGroup"></path>
            <path d="M203.277,156.047 L144.244,190.133 L143.704,190.443 L143.792,221.563 L203.364,187.166 L203.33,174.717 L154.587,202.861 L154.57,196.639 L203.31,168.496 L203.277,156.047" id="Fill-6" fill="#2b343d" sketch:type="MSShapeGroup"></path>
            <path d="M203.171,118.707 L192.339,124.961 L186.923,128.087 L143.599,153.104 L143.633,165.551 L176.124,146.793 L143.651,171.773 L143.685,184.223 L176.164,159.232 L176.181,165.461 L203.259,149.826 L203.171,118.707 M186.976,146.758 L186.958,140.537 L192.375,137.409 L192.394,143.631 L186.976,146.758" id="Fill-7" fill="#2b343d" sketch:type="MSShapeGroup"></path>
            <path d="M63.56,134.436 L36.481,118.8 L36.288,187.254 L63.367,202.891 L63.369,202.27 L63.56,134.436 M47.155,181.065 L47.278,137.501 L52.692,140.627 L52.57,184.19 L47.155,181.065" id="Fill-8" fill="#2b343d" sketch:type="MSShapeGroup"></path>
            <path d="M96.053,153.197 L85.222,146.943 L85.169,165.611 L79.754,162.486 L79.807,143.816 L68.975,137.561 L68.887,168.678 L74.303,171.805 L68.781,206.018 L79.614,212.272 L85.133,178.063 L85.028,215.397 L95.86,221.652 L96.053,153.197" id="Fill-9" fill="#2b343d" sketch:type="MSShapeGroup"></path>
        </g>
    </g>
</svg>
