<?xml version="1.0" encoding="UTF-8" standalone="no"?>
<svg width="250px" height="190px" viewBox="0 0 250 190" version="1.1" xmlns="http://www.w3.org/2000/svg" xmlns:xlink="http://www.w3.org/1999/xlink">
    <!-- Generator: Sketch 39.1 (31720) - http://www.bohemiancoding.com/sketch -->
    <title>deliveroo_logo</title>
    <desc>Created with Sketch.</desc>
    <defs></defs>
    <g id="Page-1" stroke="none" stroke-width="1" fill="none" fill-rule="evenodd">
        <path d="M114.9235,92.65 C115.5035,90.416 118.2365,90.083 119.6045,90.059 C120.1235,90.05 120.6335,90.154 121.1065,90.368 C122.073,90.806 123.7105,91.7425 124.042,93.169 C124.519,95.223 124.059,96.9465 122.589,98.293 C121.1185,99.638 119.1755,99.5145 117.118,98.829 C115.0585,98.146 114.1445,95.6575 114.9235,92.65 L114.9235,92.65 Z M134.938,96.724 C135.049,95.953 135.356,95.2275 135.839,94.6165 C136.503,93.775 137.611,92.6795 138.89,92.645 C140.97,92.5905 142.7605,93.524 143.7715,95.2125 C144.7855,96.8985 144.2785,98.755 143.2095,100.613 C142.1405,102.467 139.3395,102.7125 136.5845,101.363 C134.7255,100.452 134.7355,98.1355 134.938,96.724 L134.938,96.724 Z M78.393,124.01 L149.6195,139.1495 L165.909,102.563 L173.6655,28.7665 L145.0955,25.764 L139.841,75.7605 L130.882,33.612 L102.783,39.5845 L111.742,81.7335 L71.237,90.343 L78.393,124.01 L78.393,124.01 Z M99.547,175.593 L104.4685,175.593 L104.4685,156.498 L99.547,156.498 L99.547,175.593 Z M131.52,164.3065 C132.075,162.123 133.7405,160.9385 136.257,160.9385 C138.81,160.9385 140.4755,162.123 140.9935,164.3065 L131.52,164.3065 L131.52,164.3065 Z M136.257,156.091 C130.706,156.091 126.635,160.0875 126.635,166.0455 C126.635,172.1145 130.669,176 136.923,176 C139.6615,176 142.363,175.26 144.62,173.8165 L142.733,169.598 C140.9565,170.5235 138.9955,171.0785 136.997,171.0785 C134.4065,171.0785 132.5935,170.079 131.816,168.229 L145.6565,168.229 C145.8045,167.526 145.8785,166.8225 145.8785,165.9715 C145.8785,160.0505 141.7705,156.091 136.257,156.091 L136.257,156.091 Z M105.098,150.762 C105.098,152.5385 103.7655,153.8705 102.0265,153.8705 C100.25,153.8705 98.9175,152.5385 98.9175,150.762 C98.9175,148.986 100.25,147.6535 102.0265,147.6535 C103.7655,147.6535 105.098,148.986 105.098,150.762 L105.098,150.762 Z M119.937,156.498 L125.303,156.498 L120.1595,175.593 L112.24,175.593 L107.096,156.498 L112.388,156.498 L116.1625,171.9665 L119.937,156.498 L119.937,156.498 Z M193.801,170.8565 C190.9515,170.8565 188.8425,168.969 188.8425,166.0455 C188.8425,163.085 190.9515,161.235 193.801,161.235 C196.6875,161.235 198.76,163.085 198.76,166.0455 C198.76,168.969 196.6875,170.8565 193.801,170.8565 L193.801,170.8565 Z M193.801,156.091 C188.213,156.091 184.0685,160.1245 184.0685,166.0455 C184.0685,171.9665 188.213,176 193.801,176 C199.389,176 203.534,171.9665 203.534,166.0455 C203.534,160.1245 199.389,156.091 193.801,156.091 L193.801,156.091 Z M162.6795,157.016 L160.348,162.234 C159.4965,161.642 158.5715,161.383 157.5725,161.383 C155.944,161.383 154.686,162.16 154.0195,163.4185 L154.0195,175.593 L149.098,175.593 L149.098,160.2355 L148.2835,156.498 L153.3535,156.498 L153.8715,158.9035 C155.056,157.053 156.906,156.054 159.1265,156.054 C160.348,156.054 161.6055,156.35 162.6795,157.016 L162.6795,157.016 Z M172.0045,170.8565 C169.1555,170.8565 167.046,168.969 167.046,166.0455 C167.046,163.085 169.1555,161.235 172.0045,161.235 C174.891,161.235 176.9635,163.085 176.9635,166.0455 C176.9635,168.969 174.891,170.8565 172.0045,170.8565 L172.0045,170.8565 Z M172.0045,156.091 C166.417,156.091 162.272,160.1245 162.272,166.0455 C162.272,171.9665 166.417,176 172.0045,176 C177.5925,176 181.737,171.9665 181.737,166.0455 C181.737,160.1245 177.5925,156.091 172.0045,156.091 L172.0045,156.091 Z M72.6435,164.3065 C73.1985,162.123 74.8635,160.9385 77.38,160.9385 C79.9335,160.9385 81.599,162.123 82.117,164.3065 L72.6435,164.3065 L72.6435,164.3065 Z M77.38,156.091 C71.829,156.091 67.7585,160.0875 67.7585,166.0455 C67.7585,172.1145 71.7925,176 78.0465,176 C80.785,176 83.486,175.26 85.7435,173.8165 L83.8565,169.598 C82.08,170.5235 80.1185,171.0785 78.12,171.0785 C75.53,171.0785 73.7165,170.079 72.9395,168.229 L86.7795,168.229 C86.928,167.526 87.0015,166.8225 87.0015,165.9715 C87.0015,160.0505 82.894,156.091 77.38,156.091 L77.38,156.091 Z M90.2215,175.593 L95.143,175.593 L95.143,148.0235 L90.2215,148.0235 L90.2215,175.593 Z M54.7325,170.8565 C51.883,170.8565 49.7735,168.969 49.7735,166.0455 C49.7735,163.085 51.883,161.235 54.7325,161.235 C57.619,161.235 59.6915,163.085 59.6915,166.0455 C59.6915,168.969 57.619,170.8565 54.7325,170.8565 L54.7325,170.8565 Z M64.576,148.0235 L59.6545,148.0235 L59.6545,158.792 C58.174,157.0905 56.1385,156.091 53.7335,156.091 C48.8115,156.091 45,160.1245 45,166.0455 C45,171.9665 48.8115,176 53.7335,176 C56.1755,176 58.285,174.964 59.7655,173.1875 L60.2835,175.593 L65.427,175.593 L64.576,171.6335 L64.576,148.0235 L64.576,148.0235 Z" id="Deliveroo-Logo_Full_RGB_Teal" fill="#00CCBD"></path>
    </g>
</svg>
