<?xml version="1.0" encoding="UTF-8" standalone="no"?>
<svg width="250px" height="188px" viewBox="0 0 250 188" version="1.1" xmlns="http://www.w3.org/2000/svg" xmlns:xlink="http://www.w3.org/1999/xlink">
    <!-- Generator: Sketch 3.8.1 (29687) - http://www.bohemiancoding.com/sketch -->
    <title>hone_logo</title>
    <desc>Created with Sketch.</desc>
    <defs>
        <polygon id="path-1" points="177.166584 38.9952535 0.00470543229 38.9952535 0.00470543229 0.0350446247 88.5856446 0.0350446247 177.166584 0.0350446247 177.166584 38.9952535"></polygon>
    </defs>
    <g id="Page-1" stroke="none" stroke-width="1" fill="none" fill-rule="evenodd">
        <g id="hone_logo">
            <g id="hone" transform="translate(27.000000, 72.000000)">
                <g id="Group-6">
                    <mask id="mask-2" fill="white">
                        <use xlink:href="#path-1"></use>
                    </mask>
                    <g id="Clip-2"></g>
                    <path d="M21.6109526,38.4733813 L19.8361419,38.4733813 L19.8361419,23.2033387 C19.8361419,15.9722799 17.4520562,12.356355 12.6846691,12.356355 C11.466119,12.356355 10.283487,12.5851339 9.13504782,13.0409513 C7.98660865,13.4974807 6.924671,14.1293915 5.95080337,14.9365254 C4.97615149,15.7444503 4.12384086,16.7003854 3.3930088,17.8062292 C2.66217674,18.9119939 2.12230681,20.0967079 1.77481064,21.3603712 L1.77481064,38.4733813 L0,38.4733813 L0,0.0350446247 L1.77481064,0.0350446247 L1.77481064,17.9378641 C2.33107116,16.850215 3.01861324,15.8579696 3.83673106,14.9628682 C4.65398623,14.0676876 5.55037108,13.3042211 6.52502295,12.6723895 C7.49889059,12.0403996 8.53479151,11.5492211 9.63100038,11.1979838 C10.7272093,10.8474584 11.8494549,10.6714442 12.997894,10.6714442 C15.9211438,10.6714442 18.0874464,11.7426389 19.4968018,13.8833671 C20.9062357,16.0249655 21.6109526,19.0617444 21.6109526,22.9927546 L21.6109526,38.4733813" id="Fill-1" fill="#5CBFC4" mask="url(#mask-2)"></path>
                    <path d="M50.4772896,24.9410142 C50.4772896,26.6260041 50.7725555,28.2237383 51.3646557,29.7326349 C51.9559717,31.2423225 52.7562089,32.5587505 53.7659946,33.6817606 C54.7748393,34.805641 55.9664901,35.6917241 57.3416526,36.3408012 C58.716031,36.9908276 60.1685979,37.3150101 61.700373,37.3150101 C63.2663409,37.3150101 64.7361611,36.9818093 66.1113236,36.3145375 C67.4856236,35.6481359 68.6862146,34.7529554 69.7130968,33.6290751 C70.7391947,32.5060649 71.5482938,31.1806187 72.140394,29.6536065 C72.73171,28.1265943 73.0278386,26.5206329 73.0278386,24.835643 C73.0278386,23.1507323 72.73171,21.5446917 72.140394,20.0177586 C71.5482938,18.4907465 70.7391947,17.1660913 69.7130968,16.0422901 C68.6862146,14.9192008 67.4856236,14.0240203 66.1113236,13.3568276 C64.7361611,12.690426 63.2835157,12.356355 61.7525249,12.356355 C60.2208282,12.356355 58.7771232,12.690426 57.4199197,13.3568276 C56.0627946,14.0240203 54.8703596,14.9282982 53.8442617,16.0685538 C52.8173795,17.2097586 51.9992617,18.5433529 51.3907708,20.0703651 C50.7815742,21.5973773 50.4772896,23.2214544 50.4772896,24.9410142 L50.4772896,24.9410142 Z M61.7525249,39 C59.9076033,39 58.1939633,38.6223408 56.6108206,37.8678925 C55.0268936,37.1134442 53.643575,36.0957262 52.460943,34.8138682 C51.2774484,33.5328012 50.3549484,32.032211 49.6943057,30.3117809 C49.0328003,28.5923002 48.702479,26.7839026 48.702479,24.8883286 C48.702479,22.9581055 49.0417406,21.1324625 49.7204208,19.4121907 C50.3990226,17.6926308 51.3296002,16.1829432 52.5130949,14.8838398 C53.6958053,13.5855274 55.0791239,12.5587911 56.6630509,11.8034726 C58.2461151,11.0490243 59.9426588,10.6714442 61.7525249,10.6714442 C63.5616852,10.6714442 65.2671691,11.0490243 66.8681924,11.8034726 C68.4684315,12.5587911 69.8607689,13.5855274 71.0442636,14.8838398 C72.2268956,16.1829432 73.1583359,17.6926308 73.8369376,19.4121907 C74.5156178,21.1324625 74.8548795,22.9581055 74.8548795,24.8883286 C74.8548795,26.7839026 74.5156178,28.5923002 73.8369376,30.3117809 C73.1583359,32.032211 72.2358359,33.5328012 71.0703787,34.8138682 C69.9039805,36.0957262 68.5206618,37.1134442 66.9204227,37.8678925 C65.319321,38.6223408 63.5967406,39 61.7525249,39 L61.7525249,39 Z" id="Fill-3" fill="#5CBFC4" mask="url(#mask-2)"></path>
                    <path d="M123.870505,38.4733813 L122.095773,38.4733813 L122.095773,23.2033387 C122.095773,19.4475517 121.564843,16.7003854 120.503768,14.9628682 C119.441909,13.2251927 117.762854,12.356355 115.465819,12.356355 C114.247896,12.356355 113.029973,12.5851339 111.81205,13.0409513 C110.593344,13.4974807 109.471098,14.1293915 108.445314,14.9365254 C107.418745,15.7444503 106.513734,16.6922373 105.731064,17.7798864 C104.947609,18.8684057 104.381389,20.0621379 104.033971,21.3603712 L104.033971,38.4733813 L102.259239,38.4733813 L102.259239,11.0926917 L103.982211,11.0926917 L103.982211,17.9378641 C104.538236,16.850215 105.23464,15.8579696 106.069855,14.9628682 C106.905069,14.0676876 107.844587,13.3042211 108.889193,12.6723895 C109.933015,12.0403996 111.037223,11.5492211 112.203386,11.1979838 C113.369549,10.8474584 114.560807,10.6714442 115.779514,10.6714442 C118.632575,10.6714442 120.694338,11.6981805 121.964805,13.7517323 C123.235272,15.805284 123.870505,18.8857302 123.870505,22.9927546 L123.870505,38.4733813" id="Fill-4" fill="#5CBFC4" mask="url(#mask-2)"></path>
                    <path d="M175.391852,24.0458337 C175.287548,22.3262738 174.922093,20.7466552 174.295486,19.3068986 C173.668879,17.8679331 172.842292,16.6214361 171.815723,15.568357 C170.789155,14.5151988 169.614365,13.6991258 168.292138,13.1199006 C166.969128,12.5406755 165.542598,12.2510629 164.011764,12.2510629 C162.480145,12.2510629 161.053615,12.5497728 159.731389,13.1462434 C158.408378,13.7435842 157.25241,14.5678844 156.260348,15.6210426 C155.268286,16.6741217 154.467578,17.9205396 153.859009,19.3595842 C153.249656,20.7992617 152.893611,22.3609229 152.789308,24.0458337 L175.391852,24.0458337 L175.391852,24.0458337 Z M164.168611,39 C162.323298,39 160.601109,38.6223408 159.000478,37.8678925 C157.399847,37.1134442 155.999197,36.0776105 154.798527,34.7612617 C153.597858,33.4448337 152.65834,31.9178215 151.979973,30.180146 C151.300822,28.4426288 150.962031,26.591355 150.962031,24.6250588 C150.962031,22.6948357 151.292196,20.8865172 151.954093,19.2016065 C152.614422,17.5166166 153.536687,16.0422901 154.720103,14.7785477 C155.902735,13.5148053 157.27829,12.5143327 158.844415,11.7771298 C160.410539,11.0400061 162.11469,10.6714442 163.960004,10.6714442 C165.83904,10.6714442 167.578481,11.0400061 169.179897,11.7771298 C170.779744,12.5143327 172.172552,13.5238235 173.355968,14.8048905 C174.5386,16.0867485 175.470275,17.5873387 176.148642,19.3068986 C176.827008,21.0271704 177.166584,22.8528134 177.166584,24.7830365 L177.166584,25.204284 C177.166584,25.4148682 177.148546,25.5382759 177.11404,25.5728458 L152.789308,25.5728458 C152.927334,27.2578357 153.319453,28.8292272 153.963313,30.2854381 C154.607173,31.7425193 155.442387,32.9972434 156.468956,34.0503225 C157.495524,35.1034807 158.67894,35.9377485 160.01842,36.5514645 C161.3579,37.1660507 162.776588,37.4729878 164.272915,37.4729878 C165.24694,37.4729878 166.212337,37.3413529 167.169893,37.0780832 C168.126664,36.8148134 169.023049,36.4379452 169.858263,35.9459757 C170.693477,35.4547972 171.424388,34.8665538 172.050995,34.1819574 C172.677601,33.4974402 173.181083,32.7520892 173.564575,31.9440852 L175.183244,32.3653327 C174.799751,33.3131988 174.242942,34.200073 173.512816,35.0245314 C172.781905,35.8497018 171.920027,36.5514645 170.928749,37.1306897 C169.936687,37.7099148 168.866985,38.1665233 167.718076,38.4997241 C166.56995,38.8329249 165.386534,39 164.168611,39 L164.168611,39 Z" id="Fill-5" fill="#5CBFC4" mask="url(#mask-2)"></path>
                </g>
                <polygon id="Fill-7" fill="#5CBFC4" points="203.318592 38.4733813 204.937261 38.4733813 204.937261 34.5769412 203.318592 34.5769412"></polygon>
            </g>
        </g>
    </g>
</svg>