<?xml version="1.0" encoding="UTF-8" standalone="no"?>
<svg width="125px" height="100px" viewBox="0 0 125 100" version="1.1" xmlns="http://www.w3.org/2000/svg" xmlns:xlink="http://www.w3.org/1999/xlink">
    <!-- Generator: Sketch 3.8.1 (29687) - http://www.bohemiancoding.com/sketch -->
    <title>toptal_logo_footer</title>
    <desc>Created with Sketch.</desc>
    <defs>
        <polygon id="path-1" points="12.0281331 0.531319444 0.0446354321 0.531319444 0.0446354321 36.2572389 24.0116307 36.2572389 24.0116307 0.531319444 12.0281331 0.531319444"></polygon>
        <polygon id="path-3" points="0.340717132 27.4218194 38.1565992 27.4218194 38.1565992 0.105927778 0.340717132 0.105927778"></polygon>
    </defs>
    <g id="Variant-2" stroke="none" stroke-width="1" fill="none" fill-rule="evenodd">
        <g id="toptal_logo_footer">
            <g transform="translate(8.000000, 32.000000)">
                <g id="Group-3">
                    <mask id="mask-2" fill="white">
                        <use xlink:href="#path-1"></use>
                    </mask>
                    <g id="Clip-2"></g>
                    <path d="M6.58298232,21.8258437 L15.4133586,12.8139069 L17.2329964,14.6704889 L8.40038833,23.6809076 L6.58298232,21.8258437 L6.58298232,21.8258437 Z M24.0116307,15.5023833 L9.3377324,0.531319444 L6.37022009,3.55908125 L11.872281,9.17285069 L0,21.285416 L14.6731544,36.2572389 L17.6406667,33.2294771 L12.1386058,27.6126715 L24.0116307,15.5023833 L24.0116307,15.5023833 Z" id="Fill-1" fill="#7F7F7F" mask="url(#mask-2)"></path>
                </g>
                <path d="M34.1267636,4.88054861 L34.1267636,9.46735347 L39.0098798,9.46735347 L39.0098798,12.1163604 L34.1267636,12.1163604 L34.1267636,22.4361021 C34.1267636,24.8095819 34.7851362,26.1538201 36.6843738,26.1538201 C37.6142787,26.1538201 38.1573431,26.0741222 38.6609795,25.9170035 L38.8157157,28.5660104 C38.1573431,28.8028271 37.1106422,29.0404028 35.793153,29.0404028 C34.2041316,29.0404028 32.9253265,28.4855535 32.1114738,27.5769972 C31.181569,26.5098042 30.7939846,24.8095819 30.7939846,22.5545104 L30.7939846,12.1163604 L27.8867302,12.1163604 L27.8867302,9.46735347 L30.7939846,9.46735347 L30.7939846,5.90827222 L34.1267636,4.88054861" id="Fill-4" fill="#7F7F7F"></path>
                <g id="Group-8" transform="translate(38.684041, 8.965972)">
                    <mask id="mask-4" fill="white">
                        <use xlink:href="#path-3"></use>
                    </mask>
                    <g id="Clip-6"></g>
                    <path d="M3.82823223,10.1091549 C3.82823223,14.3012653 6.15299432,17.463375 9.48651718,17.463375 C12.741928,17.463375 15.1834862,14.3399757 15.1834862,10.030216 C15.1834862,6.78764931 13.5937209,2.71546528 9.56388526,2.71546528 C5.57198978,2.71546528 3.82823223,6.51136319 3.82823223,10.1091549 L3.82823223,10.1091549 Z M18.6710013,9.91180764 C18.6710013,16.9889826 13.826569,20.0744306 9.33178101,20.0744306 C4.29318465,20.0744306 0.340717132,16.2777736 0.340717132,10.2283222 C0.340717132,3.86235625 4.48734878,0.105927778 9.64199727,0.105927778 C15.0280061,0.105927778 18.6710013,4.09917292 18.6710013,9.91180764 L18.6710013,9.91180764 Z" id="Fill-5" fill="#7F7F7F" mask="url(#mask-4)"></path>
                    <path d="M23.7400985,11.8496056 C23.7400985,12.3642264 23.7787825,12.8386188 23.8955786,13.2727826 C24.5160111,15.6849729 26.5684971,17.3449667 29.011543,17.3449667 C32.6143663,17.3449667 34.7070242,14.3399757 34.7070242,9.95127708 C34.7070242,6.15537917 32.7311624,2.87334306 29.1275952,2.87334306 C26.8013452,2.87334306 24.5926353,4.53485486 23.9722028,7.14363333 C23.8561506,7.57855625 23.7400985,8.09317708 23.7400985,8.52734097 L23.7400985,11.8496056 L23.7400985,11.8496056 Z M20.3686355,6.74893889 C20.3686355,4.29727917 20.2905235,2.32001181 20.2138994,0.50138125 L23.2357181,0.50138125 L23.4306262,3.78265833 L23.5072503,3.78265833 C24.8641675,1.45016597 27.1123054,0.105927778 30.1735521,0.105927778 C34.7464521,0.105927778 38.1565992,4.02023403 38.1565992,9.79264028 C38.1565992,16.6732271 34.0092236,20.0744306 29.5925476,20.0744306 C27.1123054,20.0744306 24.9415356,18.967009 23.8167227,17.0694396 L23.7400985,17.0694396 L23.7400985,27.4673611 L20.3686355,27.4673611 L20.3686355,6.74893889 L20.3686355,6.74893889 Z" id="Fill-7" fill="#7F7F7F" mask="url(#mask-4)"></path>
                </g>
                <path d="M83.3507181,4.88054861 L83.3507181,9.46735347 L88.2330905,9.46735347 L88.2330905,12.1163604 L83.3507181,12.1163604 L83.3507181,22.4361021 C83.3507181,24.8095819 84.0090907,26.1538201 85.9083284,26.1538201 C86.8382332,26.1538201 87.3798098,26.0741222 87.8841902,25.9170035 L88.0396703,28.5660104 C87.3798098,28.8028271 86.3338528,29.0404028 85.0163637,29.0404028 C83.4280862,29.0404028 82.1492811,28.4855535 81.3354284,27.5769972 C80.4047796,26.5098042 80.0179392,24.8095819 80.0179392,22.5545104 L80.0179392,12.1163604 L77.1106847,12.1163604 L77.1106847,9.46735347 L80.0179392,9.46735347 L80.0179392,5.90827222 L83.3507181,4.88054861" id="Fill-9" fill="#7F7F7F"></path>
                <path d="M100.463943,18.8383104 C96.7428356,18.7586125 92.5195798,19.4311111 92.5195798,23.1488292 C92.5195798,25.4410931 93.9910612,26.4695757 95.6968787,26.4695757 C98.1771208,26.4695757 99.7668861,24.8877618 100.308463,23.2672375 C100.425259,22.871784 100.463943,22.4755715 100.463943,22.159816 L100.463943,18.8383104 L100.463943,18.8383104 Z M103.758038,24.017916 C103.758038,25.6794278 103.835406,27.2999521 104.028082,28.6047208 L100.966835,28.6047208 L100.696791,26.1925306 L100.580739,26.1925306 C99.5325501,27.6954056 97.5187482,29.0404028 94.8443419,29.0404028 C91.0458666,29.0404028 89.1094328,26.3109389 89.1094328,23.5435236 C89.1094328,18.9172493 93.1400123,16.3866507 100.385831,16.4261201 L100.385831,16.0314257 C100.385831,14.4883222 99.9603063,11.6024986 96.1224031,11.6419681 C94.3399615,11.6419681 92.5195798,12.1558299 91.2013467,13.0651451 L90.426922,10.7326528 C91.9757715,9.74363958 94.2625934,9.0719 96.6267835,9.0719 C102.36318,9.0719 103.758038,13.0651451 103.758038,16.8610431 L103.758038,24.017916 L103.758038,24.017916 Z" id="Fill-10" fill="#7F7F7F"></path>
                <polygon id="Fill-11" fill="#7F7F7F" points="106.285147 28.6047208 109.695294 28.6047208 109.695294 0.531319444 106.285147 0.531319444"></polygon>
            </g>
        </g>
    </g>
</svg>