<?xml version="1.0" encoding="UTF-8" standalone="no"?>
<svg width="267px" height="277px" viewBox="0 0 267 277" version="1.1" xmlns="http://www.w3.org/2000/svg" xmlns:xlink="http://www.w3.org/1999/xlink" xmlns:sketch="http://www.bohemiancoding.com/sketch/ns">
    <!-- Generator: Sketch 3.4.4 (17249) - http://www.bohemiancoding.com/sketch -->
    <title>ruby -1.1.3.1</title>
    <desc>Created with Sketch.</desc>
    <defs>
        <path id="path-1" d="M0.06,0.273 L267.013,0.273 L267.013,276.94 L0.06,276.94"></path>
    </defs>
    <g id="Page-1" stroke="none" stroke-width="1" fill="none" fill-rule="evenodd" sketch:type="MSPage">
        <g id="ruby--1.1.3.1" sketch:type="MSLayerGroup">
            <g id="Group-5">
                <mask id="mask-2" sketch:name="Clip 2" fill="white">
                    <use xlink:href="#path-1"></use>
                </mask>
                <g id="Clip-2"></g>
                <path d="M134.445,277 L132.567,277 L132.568,123.377 L134.446,123.377 L134.445,277" id="Fill-1" fill="#0A0A08" sketch:type="MSShapeGroup" mask="url(#mask-2)"></path>
                <path d="M133.977,124.19 L133.038,122.564 L266.074,45.748 L267.013,47.374 L133.977,124.19" id="Fill-3" fill="#0A0A08" sketch:type="MSShapeGroup" mask="url(#mask-2)"></path>
                <path d="M133.038,124.19 L0,47.374 L0.938,45.748 L133.977,122.564 L133.038,124.19" id="Fill-4" fill="#0A0A08" sketch:type="MSShapeGroup" mask="url(#mask-2)"></path>
            </g>
            <path d="M134.027,0.273 L119.48,8.672 L184.509,46.464 L177.239,50.663 L112.209,12.871 L97.662,21.27 L176.42,67.041 L177.142,67.459 L213.506,46.463 L134.027,0.273" id="Fill-6" fill="#0A0A08" sketch:type="MSShapeGroup"></path>
            <path d="M90.389,25.469 L54.026,46.464 L133.506,92.654 L169.868,71.66 L155.417,63.262 L133.6,75.859 L126.373,71.66 L148.191,59.062 L133.741,50.665 L111.924,63.262 L83.021,46.464 L104.839,33.868 L90.389,25.469" id="Fill-7" fill="#0A0A08" sketch:type="MSShapeGroup"></path>
            <path d="M239.563,143.408 L160.718,188.932 L159.996,189.348 L160.114,230.912 L239.68,184.971 L239.634,168.344 L174.532,205.934 L174.509,197.623 L239.609,160.035 L239.563,143.408" id="Fill-8" fill="#0A0A08" sketch:type="MSShapeGroup"></path>
            <path d="M239.422,93.536 L159.856,139.475 L159.902,156.102 L203.297,131.046 L159.926,164.412 L159.972,181.039 L203.351,147.662 L203.373,155.981 L217.839,147.627 L239.539,135.098 L239.422,93.536 M217.792,131.001 L217.769,122.69 L225.003,118.514 L225.026,126.824 L217.792,131.001" id="Fill-9" fill="#0A0A08" sketch:type="MSShapeGroup"></path>
            <path d="M63.758,114.423 L27.591,93.542 L27.333,184.971 L63.5,205.854 L63.503,205.023 L63.758,114.423 M41.848,176.701 L42.013,118.518 L49.243,122.693 L49.079,180.877 L41.848,176.701" id="Fill-10" fill="#0A0A08" sketch:type="MSShapeGroup"></path>
            <path d="M107.157,139.482 L92.69,131.128 L92.619,156.065 L85.388,151.889 L85.458,126.953 L70.99,118.599 L70.872,160.156 L78.106,164.334 L70.732,210.029 L85.2,218.383 L92.571,172.693 L92.432,222.557 L106.899,230.912 L107.157,139.482" id="Fill-11" fill="#0A0A08" sketch:type="MSShapeGroup"></path>
        </g>
    </g>
</svg>
