<?xml version="1.0" encoding="UTF-8" standalone="no"?>
<svg width="250px" height="190px" viewBox="0 0 250 190" version="1.1" xmlns="http://www.w3.org/2000/svg" xmlns:xlink="http://www.w3.org/1999/xlink">
    <!-- Generator: Sketch 39.1 (31720) - http://www.bohemiancoding.com/sketch -->
    <title>deliveroo_logo</title>
    <desc>Created with Sketch.</desc>
    <defs></defs>
    <g id="Page-1" stroke="none" stroke-width="1" fill="none" fill-rule="evenodd">
        <g id="deliveroo_logo">
            <g id="Deliveroo-logo-(colour,-text-adjacent)" transform="translate(9.000000, 59.000000)">
                <path d="M229.931925,40.2297831 C229.931925,39.4346024 229.787205,38.7117108 229.570124,37.9888193 C229.353043,37.3382169 228.991242,36.6876145 228.55737,36.2538795 C228.123209,35.7478554 227.616687,35.3864096 226.965445,35.097253 C226.314202,34.8080964 225.66296,34.6635181 224.866998,34.6635181 C224.071035,34.6635181 223.419793,34.8080964 222.76855,35.097253 C222.117308,35.3864096 221.610786,35.7478554 221.176625,36.2538795 C220.742463,36.7599036 220.380662,37.3382169 220.163581,37.9888193 C219.94679,38.6394217 219.80178,39.4346024 219.80178,40.2297831 C219.80178,41.0249639 219.94679,41.7475663 220.163581,42.4704578 C220.380662,43.1210602 220.742463,43.7716627 221.176625,44.2053976 C221.610786,44.7114217 222.117308,45.0728675 222.76855,45.3620241 C223.419793,45.6511807 224.071035,45.795759 224.866998,45.795759 C225.66296,45.795759 226.314202,45.6511807 226.965445,45.3620241 C227.616687,45.0728675 228.123209,44.7114217 228.55737,44.2053976 C228.991242,43.6993735 229.353043,43.1210602 229.570124,42.4704578 C229.787205,41.7475663 229.931925,41.0246747 229.931925,40.2297831 L229.931925,40.2297831 Z M232.753975,40.2297831 C232.753975,41.3861205 232.536894,42.4704578 232.175093,43.4102169 C231.813292,44.3499759 231.23441,45.2174458 230.510807,45.9403373 C229.787205,46.6632289 228.991242,47.2415422 227.978488,47.602988 C227.037805,47.9644337 225.952401,48.1813012 224.794637,48.1813012 C223.636873,48.1813012 222.55147,47.9644337 221.610786,47.602988 C220.670103,47.2415422 219.80207,46.6632289 219.078467,45.9403373 C218.354865,45.2174458 217.848343,44.3499759 217.414181,43.4102169 C216.98002,42.4704578 216.835299,41.3861205 216.835299,40.2297831 C216.835299,39.0731566 217.05238,37.9888193 217.414181,37.0490602 C217.775983,36.1093012 218.354865,35.2418313 219.078467,34.5189398 C219.80207,33.7960482 220.597743,33.2177349 221.610786,32.8562892 C222.55147,32.4951325 223.636873,32.2782651 224.794637,32.2782651 C225.952401,32.2782651 227.037805,32.4951325 227.978488,32.8562892 C228.918882,33.2177349 229.787205,33.7960482 230.510807,34.5189398 C231.23441,35.2418313 231.740932,36.1093012 232.175093,37.0490602 C232.536894,38.0611084 232.753975,39.0731566 232.753975,40.2297831 L232.753975,40.2297831 Z M208.29708,40.2297831 C208.29708,39.4346024 208.152359,38.7117108 207.935278,37.9888193 C207.718198,37.3382169 207.356396,36.6876145 206.922235,36.2538795 C206.488073,35.7478554 205.981552,35.3864096 205.330309,35.097253 C204.679067,34.8080964 204.027825,34.6635181 203.231862,34.6635181 C202.436189,34.6635181 201.784947,34.8080964 201.133704,35.097253 C200.482462,35.3864096 199.97594,35.7478554 199.541779,36.2538795 C199.107617,36.7599036 198.745816,37.3382169 198.528735,37.9888193 C198.311655,38.6394217 198.166934,39.4346024 198.166934,40.2297831 C198.166934,41.0249639 198.311655,41.7475663 198.528735,42.4704578 C198.745816,43.1210602 199.107617,43.7716627 199.541779,44.2053976 C199.97594,44.7114217 200.482462,45.0728675 201.133704,45.3620241 C201.784947,45.6511807 202.436189,45.795759 203.231862,45.795759 C204.027825,45.795759 204.679067,45.6511807 205.330309,45.3620241 C205.981552,45.0728675 206.488073,44.7114217 206.922235,44.2053976 C207.356396,43.6993735 207.718198,43.1210602 207.935278,42.4704578 C208.152359,41.7475663 208.29708,41.0246747 208.29708,40.2297831 L208.29708,40.2297831 Z M211.119129,40.2297831 C211.119129,41.3861205 210.902048,42.4704578 210.540247,43.4102169 C210.178446,44.3499759 209.599564,45.2174458 208.875961,45.9403373 C208.152359,46.6632289 207.356396,47.2415422 206.343353,47.602988 C205.40267,47.9644337 204.317555,48.1813012 203.159791,48.1813012 C202.002027,48.1813012 200.916624,47.9644337 199.97594,47.602988 C199.035257,47.2415422 198.166934,46.6632289 197.443332,45.9403373 C196.719729,45.2174458 196.213207,44.3499759 195.779046,43.4102169 C195.345174,42.4704578 195.200453,41.3861205 195.200453,40.2297831 C195.200453,39.0731566 195.417534,37.9888193 195.779046,37.0490602 C196.140847,36.1093012 196.719729,35.2418313 197.443332,34.5189398 C198.166934,33.7960482 198.962897,33.2177349 199.97594,32.8562892 C200.916624,32.4951325 202.002027,32.2782651 203.159791,32.2782651 C204.317555,32.2782651 205.40267,32.4951325 206.343353,32.8562892 C207.284036,33.2177349 208.152359,33.7960482 208.875961,34.5189398 C209.599564,35.2418313 210.106086,36.1093012 210.540247,37.0490602 C210.902048,38.0611084 211.119129,39.0731566 211.119129,40.2297831 L211.119129,40.2297831 Z M183.912544,34.9526747 L180.222171,34.9526747 L180.222171,39.7960482 L183.912544,39.7960482 C184.636147,39.7960482 185.287389,39.5791807 185.793911,39.1454458 C186.300432,38.7117108 186.517513,38.1333976 186.517513,37.410506 C186.517513,36.6876145 186.300432,36.1093012 185.793911,35.6755663 C185.287389,35.1695422 184.708507,34.9526747 183.912544,34.9526747 L183.912544,34.9526747 Z M189.339273,37.410506 C189.339273,38.0611084 189.266913,38.7117108 189.049832,39.2177349 C188.832752,39.723759 188.543311,40.2297831 188.25387,40.5909398 C187.892068,40.9523855 187.530267,41.2415422 187.096106,41.4584096 C186.661944,41.6752771 186.228072,41.8198554 185.793911,41.8921446 L188.39859,46.0849157 C188.543311,46.3017831 188.615671,46.5186506 188.615671,46.7355181 C188.615671,47.0246747 188.47095,47.3861205 188.25387,47.6752771 C188.036789,47.9644337 187.674988,48.109012 187.240826,48.109012 C187.024035,48.109012 186.806665,48.0367229 186.589873,47.9644337 C186.372793,47.8921446 186.228072,47.6752771 186.083352,47.4584096 L182.971861,42.2535904 L180.222171,42.2535904 L180.222171,46.7355181 C180.222171,47.0969639 180.077451,47.4584096 179.78801,47.6752771 C179.498569,47.9641446 179.209128,48.0364337 178.774966,48.0364337 C178.413165,48.0364337 178.123724,47.8918554 177.834573,47.6752771 C177.545132,47.3861205 177.472771,47.0969639 177.472771,46.7355181 L177.472771,34.2297831 C177.472771,33.7960482 177.617492,33.3623133 177.979293,33.0731566 C178.268445,32.784 178.702606,32.5671325 179.136768,32.5671325 L184.274345,32.5671325 C184.997948,32.5671325 185.72155,32.7117108 186.372793,32.9285783 C187.024035,33.1454458 187.530267,33.5068916 187.964429,33.9406265 C188.39859,34.3743614 188.760391,34.8803855 188.977472,35.4586988 C189.266913,36.037012 189.339273,36.6876145 189.339273,37.410506 L189.339273,37.410506 Z M169.151343,45.9403373 C168.861902,45.7234699 168.572461,45.5788916 168.283309,45.5788916 L161.481446,45.5788916 L161.481446,41.3861205 L168.138589,41.3861205 C168.50039,41.3861205 168.789831,41.2418313 169.006912,41.0249639 C169.223703,40.8078072 169.368424,40.5189398 169.368424,40.157494 C169.368424,39.7960482 169.296353,39.5068916 169.006912,39.2900241 C168.717181,39.0731566 168.42803,38.9285783 168.138589,38.9285783 L161.481446,38.9285783 L161.481446,35.0249639 L168.283309,35.0249639 C168.644821,35.0249639 168.934552,34.8803855 169.151343,34.6635181 C169.368424,34.4466506 169.513144,34.157494 169.513144,33.7960482 C169.513144,33.4346024 169.368424,33.1454458 169.151343,32.9285783 C168.861902,32.7117108 168.572461,32.5671325 168.283309,32.5671325 L160.396042,32.5671325 C159.96217,32.5671325 159.528009,32.784 159.238568,33.0731566 C158.876766,33.3623133 158.732046,33.7960482 158.732046,34.2297831 L158.732046,46.3017831 C158.732046,46.7355181 158.949127,47.169253 159.238568,47.4584096 C159.528009,47.8198554 159.96217,47.9644337 160.396042,47.9644337 L168.283309,47.9644337 C168.644821,47.9644337 168.934552,47.8198554 169.151343,47.602988 C169.368424,47.3861205 169.513144,47.0969639 169.513144,46.7355181 C169.513144,46.3740723 169.368424,46.0849157 169.151343,45.9403373 L169.151343,45.9403373 Z M152.870866,32.784 C152.581425,32.4948434 152.219913,32.3502651 151.785752,32.3502651 C151.42395,32.3502651 151.134509,32.4948434 150.917429,32.6394217 C150.700348,32.8562892 150.483267,33.0731566 150.410907,33.3623133 L146.069292,45.0005783 L141.727966,33.3623133 C141.583246,33.0008675 141.438525,32.784 141.149084,32.6394217 C140.932004,32.4948434 140.642563,32.4225542 140.353122,32.4225542 C139.91896,32.4225542 139.557159,32.5671325 139.267718,32.8562892 C138.978277,33.1454458 138.833557,33.4346024 138.833557,33.7960482 C138.833557,34.0129157 138.833557,34.157494 138.905917,34.3020723 L143.753764,46.5909398 C143.970845,47.0246747 144.188215,47.3861205 144.622087,47.6752771 C145.056248,47.9644337 145.49041,48.109012 145.924571,48.109012 L146.141652,48.109012 C146.648174,48.109012 147.009975,47.9644337 147.444137,47.6752771 C147.878298,47.3861205 148.167739,47.0246747 148.31246,46.5909398 L153.160307,34.3020723 C153.232667,34.157494 153.305027,34.0129157 153.305027,33.7960482 C153.305027,33.4346024 153.160307,33.1454458 152.870866,32.784 L152.870866,32.784 Z M132.827945,46.7355181 L132.827945,33.723759 C132.827945,33.3623133 132.755585,33.0731566 132.466144,32.784 C132.249063,32.5674217 131.959622,32.4228434 131.525461,32.4228434 C131.091299,32.4228434 130.801858,32.4951325 130.512417,32.784 C130.222976,33.0731566 130.078256,33.3623133 130.078256,33.723759 L130.078256,46.7355181 C130.078256,47.0969639 130.150616,47.3861205 130.440057,47.6752771 C130.729498,47.8921446 131.018939,48.0367229 131.38074,48.0367229 C131.814902,48.0367229 132.104343,47.9644337 132.393784,47.6752771 C132.610865,47.4584096 132.755585,47.0969639 132.827945,46.7355181 L132.827945,46.7355181 Z M123.421402,45.8680482 C123.131961,45.6511807 122.84252,45.5066024 122.55308,45.5066024 L116.836909,45.5066024 L116.836909,33.723759 C116.836909,33.3623133 116.764549,33.0731566 116.475108,32.784 C116.258027,32.5674217 115.968586,32.4228434 115.534425,32.4228434 C115.100263,32.4228434 114.810822,32.4951325 114.521381,32.784 C114.23194,33.0731566 114.08722,33.3623133 114.08722,33.723759 L114.08722,46.3017831 C114.08722,46.7355181 114.304301,47.169253 114.593742,47.4584096 C114.883183,47.8198554 115.317344,47.9644337 115.751506,47.9644337 L122.55308,47.9644337 C122.914881,47.9644337 123.204322,47.8198554 123.421402,47.602988 C123.638483,47.3861205 123.783204,47.0969639 123.783204,46.7355181 C123.783204,46.3740723 123.638483,46.0849157 123.421402,45.8680482 L123.421402,45.8680482 Z M107.285646,45.9403373 C106.996205,45.7234699 106.706764,45.5788916 106.417323,45.5788916 L99.6157491,45.5788916 L99.6157491,41.3861205 L106.272602,41.3861205 C106.634404,41.3861205 106.923845,41.2418313 107.140925,41.0249639 C107.358006,40.8078072 107.502727,40.5189398 107.502727,40.157494 C107.502727,39.7960482 107.430366,39.5068916 107.140925,39.2900241 C106.851484,39.0731566 106.562043,38.9285783 106.272602,38.9285783 L99.6157491,38.9285783 L99.6157491,35.0249639 L106.417323,35.0249639 C106.779124,35.0249639 107.068565,34.8803855 107.285646,34.6635181 C107.502727,34.4466506 107.647447,34.157494 107.647447,33.7960482 C107.647447,33.4346024 107.502727,33.1454458 107.285646,32.9285783 C106.996205,32.7117108 106.706764,32.5671325 106.417323,32.5671325 L98.4579851,32.5671325 C98.0238236,32.5671325 97.5896621,32.784 97.3002211,33.0731566 C96.9384199,33.3623133 96.7936994,33.7960482 96.7936994,34.2297831 L96.7936994,46.3017831 C96.7936994,46.7355181 97.0107801,47.169253 97.3002211,47.4584096 C97.5896621,47.8198554 98.0238236,47.9644337 98.4579851,47.9644337 L106.344963,47.9644337 C106.706764,47.9644337 106.996205,47.8198554 107.213286,47.602988 C107.430366,47.3861205 107.575087,47.0969639 107.575087,46.7355181 C107.575087,46.3740723 107.430366,46.0849157 107.285646,45.9403373 L107.285646,45.9403373 Z M88.2554795,40.2297831 C88.2554795,39.5068916 88.110759,38.784 87.8936783,38.1333976 C87.6765975,37.4827952 87.3147963,36.9044819 86.8809242,36.470747 C86.4467627,35.9647229 85.8678807,35.6032771 85.2166385,35.3141205 C84.5653963,35.0249639 83.7694335,34.8803855 82.9734708,34.8803855 L79.9343404,34.8803855 L79.9343404,45.4343133 L82.9734708,45.4343133 C83.8417938,45.4343133 84.5653963,45.2897349 85.2166385,45.0005783 C85.8678807,44.7114217 86.4467627,44.3499759 86.8809242,43.8439518 C87.3150857,43.3379277 87.6765975,42.8319036 87.8936783,42.1813012 C88.110759,41.6752771 88.2554795,40.9523855 88.2554795,40.2297831 L88.2554795,40.2297831 Z M91.0775292,40.2297831 C91.0775292,41.3861205 90.8604484,42.3981687 90.4986472,43.3379277 C90.136846,44.2776867 89.557964,45.0728675 88.8343615,45.795759 C88.110759,46.4463614 87.242436,47.0246747 86.3020422,47.3861205 C85.2889988,47.7475663 84.203595,47.9644337 82.9734708,47.9644337 L78.8489366,47.9644337 C78.4147752,47.9644337 77.9809031,47.8198554 77.6914621,47.4584096 C77.4020211,47.169253 77.1849404,46.7355181 77.1849404,46.3017831 L77.1849404,34.2297831 C77.1849404,33.7960482 77.3296609,33.3623133 77.6914621,33.0731566 C77.9809031,32.784 78.4147752,32.5671325 78.8489366,32.5671325 L82.9734708,32.5671325 C84.203595,32.5671325 85.2889988,32.784 86.3020422,33.1454458 C87.3150857,33.5068916 88.1831193,34.0852048 88.8343615,34.7358072 C89.557964,35.3864096 90.0644857,36.2538795 90.4986472,37.1936386 C90.8604484,38.0611084 91.0775292,39.1454458 91.0775292,40.2297831 L91.0775292,40.2297831 Z" id="Fill-1" fill="#1F2B2F"></path>
                <path d="M63.9722484,40.2297831 C63.9722484,54.9021687 52.0660932,66.7963373 37.3792783,66.7963373 C22.6924634,66.7963373 10.7865975,54.9021687 10.7865975,40.2297831 C10.7865975,25.5573976 22.6924634,13.6629398 37.3792783,13.6629398 C52.0660932,13.6629398 63.9722484,25.5573976 63.9722484,40.2297831 L63.9722484,40.2297831 Z M37.3792783,68.2421205 C21.9182087,68.2421205 9.33939255,55.6756627 9.33939255,40.2297831 C9.33939255,24.7836145 21.9182087,12.2171566 37.3792783,12.2171566 C52.8406373,12.2171566 65.4194534,24.7836145 65.4194534,40.2297831 C65.4194534,55.6756627 52.8406373,68.2421205 37.3792783,68.2421205 L37.3792783,68.2421205 Z M37.3792783,10.7713735 C21.1202199,10.7713735 7.89218758,23.9864096 7.89218758,40.2297831 C7.89218758,56.4728675 21.1202199,69.6879036 37.3792783,69.6879036 C53.6386261,69.6879036 66.8666584,56.4728675 66.8666584,40.2297831 C66.8666584,23.9864096 53.6386261,10.7713735 37.3792783,10.7713735 L37.3792783,10.7713735 Z" id="Fill-2" fill="#1CA89A"></path>
                <path d="M57.1272584,49.9948916 C57.1252323,50.2045301 57.2832671,50.3569157 57.3776248,50.4283373 C57.5686559,50.5743614 57.840441,50.6590843 58.1229354,50.6619759 L58.1368286,50.6619759 C58.6722944,50.6619759 59.1275851,50.3647229 59.1307689,50.0125301 C59.1339528,49.656 58.6777938,49.3503614 58.1348025,49.3454458 C57.5857329,49.3454458 57.1304422,49.6426988 57.1272584,49.9948916" id="Fill-3" fill="#FFFFFF"></path>
                <path d="M52.3676907,43.6007711 C52.3676907,43.6007711 55.608272,38.4777831 53.9671416,28.9492048 C53.9671416,28.9492048 57.1162596,36.9238554 52.3676907,43.6007711 L52.3676907,43.6007711 Z M24.487287,39.4753735 C24.1654286,39.7506506 28.9070509,32.7140241 38.6727901,35.8383614 C38.6727901,35.8383614 30.8601988,34.0325783 24.487287,39.4753735 L24.487287,39.4753735 Z M55.687,30.2272771 C55.1170907,27.7113253 54.6499329,26.8062651 54.2852373,24.9825542 C53.1268944,27.6121446 51.3285975,30.1124819 49.5873205,31.1803373 C49.5783478,32.6339277 49.1499752,34.0993735 48.0732547,35.1255904 C47.2003006,36.0060723 46.0969516,36.3333976 44.939477,36.3333976 C43.8167354,36.3333976 42.6430522,36.0257349 41.5781988,35.6157108 C40.6615391,35.2626506 37.4779776,34.0438554 33.8200224,34.0435663 C28.3325106,34.042988 21.7760932,36.7856386 20.1937193,49.3098795 C19.0180099,58.617253 13.8306484,68.8904096 2.88514783,68.8904096 C2.70743106,68.8904096 2.50048075,68.8814458 2.28629441,68.8814458 C1.62260621,68.8814458 0.890031056,68.966747 0.747047205,69.6639036 C0.545306832,70.6476145 1.62347453,71.2771084 3.49731553,71.2771084 C3.67098012,71.2771084 3.8515913,71.2719036 4.03857019,71.2609157 C10.2878907,70.8919518 15.267723,67.6730602 19.0301665,63.3406265 C22.3393453,59.5301205 24.1408261,56.7440964 25.095113,54.6080964 C26.3651801,54.9261687 28.7388857,55.094747 30.022846,55.1658795 C32.4393888,56.8346024 30.6295143,65.9696386 30.3420994,69.1243373 C30.417354,70.2135904 31.5189665,70.2896386 32.3597925,70.3286747 C32.3956832,70.3283855 32.4321528,70.3283855 32.4686224,70.3283855 C34.7112112,70.3283855 38.0522286,70.4856867 40.6406994,70.4856867 C42.6766273,70.4856867 44.2468447,70.3885301 44.4517689,70.0409639 C44.9215317,69.2443373 43.0427702,69.0607229 42.2650422,68.9493976 C39.8583404,68.6746988 37.4305093,68.6428916 35.0267019,68.3392771 L35.0258335,68.3392771 C31.5728025,68.3392771 36.3048733,61.3995181 35.320195,54.9093976 C41.297441,54.2726747 45.6234261,52.4986988 48.7279702,50.1516145 C48.3085702,49.7731084 47.924482,49.3662651 47.6176745,48.9573976 C47.2086944,48.4160964 46.8755478,47.8776867 46.5942112,47.3626988 C46.0231441,46.3370602 45.7325453,45.3967229 45.5643801,44.7420723 C45.4020037,44.0819277 45.3924522,43.6927229 45.3924522,43.6927229 C45.3924522,43.6927229 45.4659702,44.073253 45.6989702,44.7013012 C45.9212609,45.332241 46.3368981,46.1956627 46.9447242,47.156241 C47.2474795,47.6353735 47.6084124,48.1411084 48.0295491,48.6286265 C48.3791938,49.0354699 49.396,49.9176867 49.4967255,49.9928675 C49.6009242,50.0697831 50.8058671,50.8898313 51.4825801,51.0763373 C52.169713,51.2660241 52.8620559,51.4944578 53.1297888,51.1226024 C53.2464335,50.9635663 53.2238571,50.7487229 52.9923043,50.525494 C52.6247143,50.1050602 51.3696981,49.6643855 50.5693938,48.5563373 C50.5167155,48.4834699 49.9902224,47.8346024 49.6304472,46.3165301 C49.4735702,45.6546506 49.4194447,45.0193735 49.3745814,44.4390361 C49.2871702,43.2777831 49.3259553,42.3166265 49.2637255,41.6501205 C49.2255193,40.9804337 49.0964286,40.613494 49.0964286,40.613494 C49.0964286,40.613494 49.2871702,40.9593253 49.4035255,41.6319036 C49.5250907,42.2992771 49.6310261,43.2621687 49.7803776,44.3956627 C49.9404385,45.5164337 50.200646,46.858988 50.9456671,47.9898795 C50.9682435,48.0234217 50.9963193,48.0529157 51.019764,48.0853012 C56.6650211,42.0751807 56.5119068,33.8663133 55.687,30.2272771 L55.687,30.2272771 Z" id="Fill-4" fill="#FFFFFF"></path>
                <g id="Group-8">
                    <path d="M63.1441578,58.1092048 L60.0265888,61.2231325 C59.991277,61.2584096 59.9449665,61.2760482 59.8989453,61.2760482 C59.8526348,61.2760482 59.8063242,61.2584096 59.7710124,61.2231325 C59.7000994,61.1522892 59.7000994,61.0380723 59.7710124,60.9675181 L62.8882919,57.8535904 C62.9589155,57.7830361 63.0735342,57.7830361 63.1441578,57.8535904 C63.2147814,57.9241446 63.2147814,58.0383614 63.1441578,58.1092048 L63.1441578,58.1092048 Z M62.8691888,59.7573976 L61.2680012,61.357012 C61.2326894,61.3925783 61.1863789,61.4102169 61.1400683,61.4102169 C61.0937578,61.4102169 61.0474472,61.3925783 61.0121354,61.357012 C60.9415118,61.2864578 60.9415118,61.172241 61.0121354,61.1016867 L62.613323,59.5017831 C62.6839466,59.4312289 62.7985652,59.4312289 62.8691888,59.5017831 C62.9398124,59.5726265 62.9398124,59.6868434 62.8691888,59.7573976 L62.8691888,59.7573976 Z M59.3999491,50.9421687 L63.0567466,54.1995181 L58.1724298,54.9883373 L53.4464373,54.1995181 L56.8971528,50.9647229 C56.8407118,50.9181687 56.7880335,50.8695904 56.7408547,50.8175422 L52.0886696,54.1995181 L52.0886696,63.9215422 L58.1724298,65.8059759 L64.1690683,63.9215422 L64.1690683,54.1995181 L59.5238298,50.8224578 C59.4856236,50.8646747 59.4439441,50.904 59.3999491,50.9421687 L59.3999491,50.9421687 Z" id="Fill-5" fill="#FFFFFF"></path>
                    <path d="M64.1690683,63.9215422 L58.1724298,65.8059759 L52.0886696,63.9215422 L52.0886696,54.1995181 L56.7408547,50.8175422 C56.7880335,50.8695904 56.8407118,50.9181687 56.8971528,50.9647229 L53.4464373,54.1995181 L58.1724298,54.9883373 L63.0567466,54.1995181 L59.3999491,50.9421687 C59.4439441,50.904 59.4856236,50.8646747 59.5238298,50.8224578 L64.1690683,54.1995181 L64.1690683,63.9215422 L64.1690683,63.9215422 Z M54.041528,45.2564819 C54.5848087,44.3311807 55.0285217,43.3969157 55.3888758,42.4704578 C57.1541764,44.8577349 58.402246,47.2048193 58.6734522,48.7046747 C58.4992087,48.6569639 58.3159925,48.6242892 58.1209093,48.6225542 C57.7614236,48.6225542 57.4305925,48.7075663 57.1573602,48.8541687 C56.2925106,47.1088193 55.095672,45.9967229 54.041528,45.2564819 L54.041528,45.2564819 Z M51.019764,48.0853012 C50.9963193,48.0529157 50.9682435,48.0234217 50.9456671,47.9898795 C50.200646,46.858988 49.9404385,45.5164337 49.7803776,44.3956627 C49.6310261,43.2621687 49.5250907,42.2992771 49.4035255,41.6319036 C49.2871702,40.9593253 49.0964286,40.613494 49.0964286,40.613494 C49.0964286,40.613494 49.2255193,40.9804337 49.2637255,41.6501205 C49.3259553,42.3166265 49.2871702,43.2777831 49.3745814,44.4390361 C49.4194447,45.0193735 49.4735702,45.6546506 49.6304472,46.3165301 C49.9902224,47.8346024 50.5167155,48.4834699 50.5693938,48.5563373 C51.3696981,49.6643855 52.6247143,50.1050602 52.9923043,50.525494 C53.2238571,50.7487229 53.2464335,50.9635663 53.1297888,51.1226024 C52.8620559,51.4944578 52.169713,51.2660241 51.4825801,51.0763373 C50.8058671,50.8898313 49.6009242,50.0697831 49.4967255,49.9928675 C49.396,49.9176867 48.3791938,49.0354699 48.0295491,48.6286265 C47.6084124,48.1411084 47.2474795,47.6353735 46.9447242,47.156241 C46.3368981,46.1956627 45.9212609,45.332241 45.6989702,44.7013012 C45.4659702,44.073253 45.3924522,43.6927229 45.3924522,43.6927229 C45.3924522,43.6927229 45.4020037,44.0819277 45.5643801,44.7420723 C45.7325453,45.3967229 46.0231441,46.3370602 46.5942112,47.3626988 C46.8755478,47.8776867 47.2086944,48.4160964 47.6176745,48.9573976 C47.924482,49.3662651 48.3085702,49.7731084 48.7279702,50.1516145 C45.6234261,52.4986988 41.297441,54.2726747 35.320195,54.9093976 C36.3048733,61.3995181 31.5728025,68.3392771 35.0258335,68.3392771 L35.0267019,68.3392771 C37.4305093,68.6428916 39.8583404,68.6746988 42.2650422,68.9493976 C43.0427702,69.0607229 44.9215317,69.2443373 44.4517689,70.0409639 C44.2468447,70.3885301 42.6766273,70.4856867 40.6406994,70.4856867 C38.0522286,70.4856867 34.7112112,70.3283855 32.4686224,70.3283855 C32.4321528,70.3283855 32.3956832,70.3283855 32.3597925,70.3286747 C31.5189665,70.2896386 30.417354,70.2135904 30.3420994,69.1243373 C30.6295143,65.9696386 32.4393888,56.8346024 30.022846,55.1658795 C28.7388857,55.094747 26.3651801,54.9261687 25.095113,54.6080964 C24.1408261,56.7440964 22.3393453,59.5301205 19.0301665,63.3406265 C15.267723,67.6730602 10.2878907,70.8919518 4.03857019,71.2609157 C3.8515913,71.2719036 3.67098012,71.2771084 3.49731553,71.2771084 C1.62347453,71.2771084 0.545306832,70.6476145 0.747047205,69.6639036 C0.890031056,68.966747 1.62260621,68.8814458 2.28629441,68.8814458 C2.50048075,68.8814458 2.70743106,68.8904096 2.88514783,68.8904096 C13.8306484,68.8904096 19.0180099,58.617253 20.1937193,49.3098795 C21.7760932,36.7856386 28.3325106,34.042988 33.8200224,34.0435663 C37.4779776,34.0438554 40.6615391,35.2626506 41.5781988,35.6157108 C42.6430522,36.0257349 43.8167354,36.3333976 44.939477,36.3333976 C46.0969516,36.3333976 47.2003006,36.0060723 48.0732547,35.1255904 C49.1499752,34.0993735 49.5783478,32.6339277 49.5873205,31.1803373 C51.3285975,30.1124819 53.1268944,27.6121446 54.2852373,24.9825542 C54.6499329,26.8062651 55.1170907,27.7113253 55.687,30.2272771 C56.5119068,33.8663133 56.6650211,42.0751807 51.019764,48.0853012 L51.019764,48.0853012 Z M38.7205478,66.3715663 L38.7217056,66.3715663 C39.8441578,66.5135422 40.9721093,66.5916145 42.1003503,66.666506 C43.2288807,66.7416867 44.3574112,66.8131084 45.4813106,66.941494 C46.2078075,67.0453012 47.9621093,67.2167711 47.5233168,67.9607711 C47.3319963,68.285494 45.8659776,68.3762892 43.9646398,68.3762892 C43.7432174,68.3762892 43.5105068,68.3739759 43.2786646,68.3716627 C43.0482696,68.3306024 42.8086124,68.2938795 42.558246,68.2600482 L42.3675043,68.2337349 C41.1944,68.0995663 40.0262161,68.0220723 38.8962385,67.9474699 C37.6522211,67.8650602 36.3656559,67.779759 35.1175863,67.6221687 C35.0874845,67.6181205 35.0570932,67.6163855 35.0267019,67.6163855 C34.8947168,67.6163855 34.6628745,67.6010602 34.5832783,67.4995663 C34.2423168,67.0632289 34.6903714,65.2678554 35.0860373,63.6841446 C35.6727342,61.3341687 36.3917056,58.454747 36.1257093,55.5440964 C37.1578559,55.4157108 38.1515068,55.2491566 39.1110037,55.0496386 C39.3564497,60.7289639 35.7115193,66.3715663 38.7205478,66.3715663 L38.7205478,66.3715663 Z M47.9427168,31.0056867 C47.9311391,31.0056867 47.9189826,31.0056867 47.907405,31.0053976 C47.8909068,31.0065542 47.8741193,31.0071325 47.8564634,31.0071325 C46.7864,31.0071325 44.0699963,29.0162892 44.8836149,27.629494 C46.8758373,24.3400482 45.7640944,22.2014458 45.7183627,21.0211084 C45.6960758,20.4448193 46.0917416,19.2083855 45.7924596,17.7412048 C43.5348199,14.996241 41.297441,12.219759 39.4181006,9.1986506 C38.7995652,8.0506988 37.2050348,4.91537349 39.7278025,4.25551807 C40.0380832,4.17166265 40.338523,4.13233735 40.6305689,4.13233735 C45.3305118,4.13291566 47.6674584,14.3719518 47.750528,14.712 C48.5412807,14.3997108 50.5337925,14.1316627 51.0374199,14.1316627 C51.0840199,14.1316627 51.1178845,14.1339759 51.1369876,14.1388916 C50.9502981,11.9788916 49.3253764,1.16992771 54.3830683,0.872385542 C60.933118,0.872385542 53.2672733,15.2486747 53.2114112,15.4111807 C58.0077379,19.1167229 51.3833019,31.0056867 47.9427168,31.0056867 L47.9427168,31.0056867 Z M60.4859317,52.8780723 L58.2456584,52.5406265 L55.895687,52.8945542 L57.5874696,51.3088193 C57.7567925,51.3539277 57.9330621,51.3831325 58.1159888,51.3848675 L58.1368286,51.3848675 C58.3420422,51.3848675 58.5348099,51.3524819 58.716,51.3013012 L60.4859317,52.8780723 L60.4859317,52.8780723 Z M59.1307689,50.0125301 C59.1275851,50.3647229 58.6722944,50.6619759 58.1368286,50.6619759 L58.1229354,50.6619759 C57.840441,50.6590843 57.5686559,50.5743614 57.3776248,50.4283373 C57.2832671,50.3569157 57.1252323,50.2045301 57.1272584,49.9948916 C57.1304422,49.6426988 57.5857329,49.3454458 58.1348025,49.3454458 C58.6777938,49.3503614 59.1339528,49.656 59.1307689,50.0125301 L59.1307689,50.0125301 Z M64.594836,53.6148434 L59.8364261,50.1556627 C59.8422149,50.1099759 59.8537925,50.0660241 59.8543714,50.0188916 C59.8572658,49.6805783 59.7009677,49.3732048 59.4479963,49.1306024 C59.3704261,47.2953253 57.7593975,44.3739759 55.6841056,41.654747 C57.6112037,35.9783133 56.5567702,30.7905542 56.3929466,30.0673735 C56.1003217,28.776 55.8328783,27.8969639 55.5969839,27.1211566 C55.2736783,26.0582169 55.0160758,25.2034699 54.7995739,23.6804819 C54.8178087,23.6293012 54.8386484,23.5778313 54.8560149,23.5269398 C56.0878758,19.9246265 55.8085652,16.9486265 54.1063627,15.2379759 C56.1014795,11.2279518 58.9666559,4.43942169 57.1802261,1.54207229 C56.7886124,0.906795181 55.9854137,0.149493976 54.3830683,0.149493976 L54.3616497,0.149493976 L54.3405205,0.150650602 C53.2826137,0.213108434 52.3975031,0.655518072 51.7097913,1.46631325 C49.3656087,4.23036145 50.0434795,10.6756627 50.340446,13.4605301 C49.7439081,13.5258795 48.9343416,13.6499277 48.2686273,13.8075181 C47.9566099,12.6292048 47.3788857,10.714988 46.504195,8.82910843 C44.8358571,5.23315663 42.859554,3.40973494 40.6305689,3.40944578 C40.2705043,3.40944578 39.9032037,3.45918072 39.539087,3.55749398 C38.5046248,3.82814458 38.0429665,4.44375904 37.8389106,4.91248193 C37.2169019,6.34062651 38.0788571,8.23836145 38.781041,9.5413012 L38.7917503,9.56096386 L38.8036174,9.58033735 C40.6632758,12.5696386 42.8482658,15.2981205 45.1148783,18.0560964 C45.251205,18.8778795 45.1504795,19.6111807 45.0682783,20.208 C45.0239938,20.529253 44.9857876,20.8068434 44.9953391,21.0491566 C45.0069168,21.3513253 45.0676994,21.6644819 45.138323,22.0267952 C45.3736385,23.2360482 45.6957863,24.8920482 44.2645006,27.2553253 C43.8980683,27.8796145 43.9325118,28.6253494 44.355964,29.3638554 C45.0407814,30.5580723 46.7748224,31.7300241 47.8564634,31.7300241 C47.8787503,31.7300241 47.9004584,31.7294458 47.921877,31.7285783 L47.9427168,31.7285783 C48.2370783,31.7285783 48.5412807,31.6643855 48.8504037,31.5504578 C48.7916472,32.5226024 48.5048112,33.7150843 47.5736795,34.602506 C46.8960981,35.285494 46.0393528,35.610506 44.939477,35.610506 C44.0352634,35.610506 42.992118,35.385253 41.8384062,34.9411084 C39.0461689,33.8660241 36.3485789,33.3209639 33.8200224,33.3206747 C28.1918422,33.3203855 21.1361391,36.0786506 19.4759056,49.2193735 C17.7108944,63.1899759 9.74837267,68.1675181 2.88514783,68.1675181 C2.80555155,68.1675181 2.71929814,68.165494 2.62928199,68.1634699 C2.51929441,68.1611566 2.40380745,68.1585542 2.28629441,68.1585542 L2.28253168,68.1585542 C1.79163975,68.1585542 0.316359006,68.1620241 0.0382062112,69.518747 C-0.0700447205,70.0458795 0.0535465839,70.5605783 0.386114286,70.9677108 C0.93778882,71.6431807 2.01364099,72 3.49731553,72 C3.68487329,72 3.87966708,71.9942169 4.08140745,71.9823614 C9.95763851,71.6356627 15.1710497,68.8875181 19.5769205,63.8142651 C22.4076534,60.5546024 24.3538547,57.8058795 25.5075665,55.4347952 C26.7871851,55.6701687 28.585482,55.8057831 29.7484559,55.8743133 C31.1675851,57.2668916 30.3166286,63.6546506 29.9012807,66.7726265 C29.780005,67.6808675 29.6755168,68.4653494 29.6216807,69.0586988 C29.6182075,69.0971566 29.6176286,69.1356145 29.6202335,69.1740723 C29.7417988,70.9312771 31.5528311,71.0148434 32.3265068,71.0506988 L32.4686224,71.0512771 C33.5398435,71.0512771 34.8565106,71.0874217 36.2507478,71.1255904 C37.7448422,71.1663614 39.2901677,71.2085783 40.6406994,71.2085783 C44.010082,71.2085783 44.7551031,70.9503614 45.0752248,70.4079036 C45.2824646,70.0562892 45.3064882,69.6772048 45.1432435,69.3406265 C45.0983801,69.2480964 45.0416497,69.1648193 44.9756571,69.0884819 C47.2906062,69.037012 47.8746981,68.7892048 48.1467727,68.3277108 C48.3488025,67.9850602 48.3719578,67.6152289 48.2121863,67.2858795 C47.8738298,66.5895904 46.9021764,66.4048193 45.7614894,66.2504096 L45.5837727,66.2258313 C44.4856335,66.1003373 43.3941516,66.027759 42.3385602,65.9580723 C41.177323,65.8811566 39.9764323,65.8016386 38.8123006,65.6544578 L38.7671478,65.6486747 L38.7217056,65.6486747 C38.6290845,65.6486747 38.4093988,65.64 38.3451429,65.5581687 C38.0409404,65.1689639 38.4748124,63.4317108 38.8232994,62.0359518 C39.3405304,59.9644337 39.9651441,57.4531084 39.8273702,54.8894458 C43.5701317,54.0254458 46.7348795,52.6045301 49.2944062,50.6330602 C49.8402919,51.0375904 50.448118,51.3981687 51.1242522,51.6465542 C51.5011043,51.7818795 51.8944547,51.8888675 52.3126969,51.939759 C52.520805,51.9680964 52.7393329,51.9733012 52.9755168,51.946988 C53.0322472,51.9435181 53.1022919,51.9218313 53.1645217,51.908241 C53.2053329,51.8955181 53.2090957,51.9024578 53.2800087,51.8729639 L53.3462907,51.8446265 C53.474513,51.7856386 53.6342845,51.6722892 53.7161963,51.5459277 C53.9098323,51.274988 53.9185155,50.9598072 53.8675739,50.7108434 C53.8172112,50.4656386 53.6875416,50.2074217 53.5089565,50.036241 C53.2079379,49.7118072 52.2568348,49.1898795 52.2568348,49.1898795 C52.2568348,49.1898795 51.5427839,48.6696867 51.5045776,48.6341205 C52.079118,48.0260241 52.6157416,47.3840964 53.1051863,46.7005301 C53.3008484,46.4272771 53.4837752,46.152 53.6603342,45.8758554 C54.6800348,46.5946988 55.8007503,47.6611084 56.5972919,49.3682892 C56.4792,49.5542169 56.405682,49.7621205 56.4036559,49.9879518 C56.403077,50.0440482 56.4158124,50.0986988 56.4236273,50.1542169 L51.6629019,53.6148434 C51.4756335,53.7510361 51.3650671,53.9681928 51.3650671,54.1995181 L51.3650671,63.9215422 C51.3650671,64.2381687 51.5714385,64.5180723 51.8744832,64.6120482 L57.957954,66.4964819 C58.0277093,66.5181687 58.1000696,66.5288675 58.1724298,66.5288675 C58.2456584,66.5288675 58.318887,66.5178795 58.3895106,66.4956145 L64.3864385,64.6111807 C64.6877466,64.5163373 64.8926708,64.2373012 64.8926708,63.9215422 L64.8926708,54.1995181 C64.8926708,53.9681928 64.7821043,53.7510361 64.594836,53.6148434 L64.594836,53.6148434 Z" id="Fill-7" fill="#1A1918"></path>
                </g>
                <path d="M62.8882919,57.8535904 L59.7710124,60.9675181 C59.7000994,61.0380723 59.7000994,61.1522892 59.7710124,61.2231325 C59.8063242,61.2584096 59.8526348,61.2760482 59.8989453,61.2760482 C59.9449665,61.2760482 59.991277,61.2584096 60.0265888,61.2231325 L63.1441578,58.1092048 C63.2147814,58.0383614 63.2147814,57.9241446 63.1441578,57.8535904 C63.0735342,57.7830361 62.9589155,57.7830361 62.8882919,57.8535904" id="Fill-9" fill="#1A1918"></path>
                <path d="M58.1209093,48.6225542 C58.3159925,48.6242892 58.4992087,48.6569639 58.6734522,48.7046747 C58.402246,47.2048193 57.1541764,44.8577349 55.3888758,42.4704578 C55.0285217,43.3969157 54.5848087,44.3311807 54.041528,45.2564819 C55.095672,45.9967229 56.2925106,47.1088193 57.1573602,48.8541687 C57.4305925,48.7075663 57.7614236,48.6225542 58.1209093,48.6225542" id="Fill-10" fill="#FFFFFF"></path>
                <path d="M62.613323,59.5017831 L61.0121354,61.1016867 C60.9415118,61.172241 60.9415118,61.2864578 61.0121354,61.357012 C61.0474472,61.3925783 61.0937578,61.4102169 61.1400683,61.4102169 C61.1863789,61.4102169 61.2326894,61.3925783 61.2680012,61.357012 L62.8691888,59.7573976 C62.9398124,59.6868434 62.9398124,59.5726265 62.8691888,59.5017831 C62.7985652,59.4312289 62.6839466,59.4312289 62.613323,59.5017831" id="Fill-11" fill="#1A1918"></path>
                <path d="M36.1257093,55.5440964 C36.3917056,58.454747 35.6727342,61.3341687 35.0860373,63.6841446 C34.6903714,65.2678554 34.2423168,67.0632289 34.5832783,67.4995663 C34.6628745,67.6010602 34.8947168,67.6163855 35.0267019,67.6163855 C35.0570932,67.6163855 35.0874845,67.6181205 35.1175863,67.6221687 C36.3656559,67.779759 37.6522211,67.8650602 38.8962385,67.9474699 C40.0262161,68.0220723 41.1944,68.0995663 42.3675043,68.2337349 L42.558246,68.2600482 C42.8086124,68.2938795 43.0482696,68.3306024 43.2786646,68.3716627 C43.5105068,68.3739759 43.7432174,68.3762892 43.9646398,68.3762892 C45.8659776,68.3762892 47.3319963,68.285494 47.5233168,67.9607711 C47.9621093,67.2167711 46.2078075,67.0453012 45.4813106,66.941494 C44.3574112,66.8131084 43.2288807,66.7416867 42.1003503,66.666506 C40.9721093,66.5916145 39.8441578,66.5135422 38.7217056,66.3715663 L38.7205478,66.3715663 C35.7115193,66.3715663 39.3564497,60.7289639 39.1110037,55.0496386 C38.1515068,55.2491566 37.1578559,55.4157108 36.1257093,55.5440964" id="Fill-12" fill="#FFFFFF"></path>
                <path d="M24.487287,39.4753735 C30.8601988,34.0325783 38.6727901,35.8383614 38.6727901,35.8383614 C28.9070509,32.7140241 24.1654286,39.7506506 24.487287,39.4753735" id="Fill-13" fill="#1A1918"></path>
                <path d="M52.3676907,43.6007711 C57.1162596,36.9238554 53.9671416,28.9492048 53.9671416,28.9492048 C55.608272,38.4777831 52.3676907,43.6007711 52.3676907,43.6007711" id="Fill-14" fill="#1A1918"></path>
                <path d="M48.7158137,28.6473253 C48.2159491,29.125012 47.750528,29.8111807 47.4741118,29.813494 C46.6052099,29.813494 45.6092435,28.6953253 45.6092435,28.1253976 C45.6092435,27.888 45.6025863,27.315759 45.9722025,27.1714699 C46.4697516,26.9768675 47.3820696,26.8435663 49.1673416,27.1755181 C50.1479677,27.5028434 49.4194447,27.9753253 48.7158137,28.6473253 L48.7158137,28.6473253 Z M43.3365528,7.24192771 C42.6772062,6.23971084 41.3958509,4.91537349 41.3958509,4.91537349 C45.3009888,6.76106024 47.0037702,15.0381687 47.0037702,15.0381687 C46.1794422,13.1086265 44.9791304,9.73937349 43.3365528,7.24192771 L43.3365528,7.24192771 Z M47.4946621,20.9592289 C47.5513925,21.5271325 47.3207081,22.0152289 46.9788783,22.0496386 C46.6370484,22.083759 46.3140323,21.6508916 46.2570124,21.082988 C46.1999925,20.5150843 46.4309665,20.026988 46.7727963,19.9928675 C47.1143366,19.9584578 47.4376422,20.3913253 47.4946621,20.9592289 L47.4946621,20.9592289 Z M52.6006907,2.97686747 C52.6006907,2.97686747 52.1390323,4.75633735 52.0145727,5.93118072 C51.7057391,8.85889157 51.8652211,12.2449157 51.9485801,14.2603373 C51.9485801,14.2603373 50.4197528,6.63296386 52.6006907,2.97686747 L52.6006907,2.97686747 Z M52.8432422,21.2301687 C52.6510534,21.7677108 52.2331006,22.1097831 51.9095056,21.9944096 C51.5862,21.8790361 51.4796857,21.3498795 51.6718745,20.8123373 C51.8640634,20.2747952 52.2820161,19.9324337 52.6056112,20.0478072 C52.9289168,20.1631807 53.0354311,20.6926265 52.8432422,21.2301687 L52.8432422,21.2301687 Z M53.2114112,15.4111807 C53.2672733,15.2486747 60.933118,0.872385542 54.3830683,0.872385542 C49.3253764,1.16992771 50.9502981,11.9788916 51.1369876,14.1388916 C51.1178845,14.1339759 51.0840199,14.1316627 51.0374199,14.1316627 C50.5337925,14.1316627 48.5412807,14.3997108 47.750528,14.712 C47.6674584,14.3719518 45.3305118,4.13291566 40.6305689,4.13233735 C40.338523,4.13233735 40.0380832,4.17166265 39.7278025,4.25551807 C37.2050348,4.91537349 38.7995652,8.0506988 39.4181006,9.1986506 C41.297441,12.219759 43.5348199,14.996241 45.7924596,17.7412048 C46.0917416,19.2083855 45.6960758,20.4448193 45.7183627,21.0211084 C45.7640944,22.2014458 46.8758373,24.3400482 44.8836149,27.629494 C44.0699963,29.0162892 46.7864,31.0071325 47.8564634,31.0071325 C47.8741193,31.0071325 47.8909068,31.0065542 47.907405,31.0053976 C47.9189826,31.0056867 47.9311391,31.0056867 47.9427168,31.0056867 C51.3833019,31.0056867 58.0077379,19.1167229 53.2114112,15.4111807 L53.2114112,15.4111807 Z" id="Fill-15" fill="#FFFFFF"></path>
                <path d="M41.3958509,4.91537349 C41.3958509,4.91537349 42.6772062,6.23971084 43.3365528,7.24192771 C44.9791304,9.73937349 46.1794422,13.1086265 47.0037702,15.0381687 C47.0037702,15.0381687 45.3009888,6.76106024 41.3958509,4.91537349" id="Fill-16" fill="#1A1918"></path>
                <path d="M49.1673416,27.1755181 C47.3820696,26.8435663 46.4697516,26.9768675 45.9722025,27.1714699 C45.6025863,27.315759 45.6092435,27.888 45.6092435,28.1253976 C45.6092435,28.6953253 46.6052099,29.813494 47.4741118,29.813494 C47.750528,29.8111807 48.2159491,29.125012 48.7158137,28.6473253 C49.4194447,27.9753253 50.1479677,27.5028434 49.1673416,27.1755181" id="Fill-17" fill="#1A1918"></path>
                <path d="M52.0145727,5.93118072 C52.1390323,4.75633735 52.6006907,2.97686747 52.6006907,2.97686747 C50.4197528,6.63296386 51.9485801,14.2603373 51.9485801,14.2603373 C51.8652211,12.2449157 51.7057391,8.85889157 52.0145727,5.93118072" id="Fill-18" fill="#1A1918"></path>
                <path d="M46.2570124,21.082988 C46.3140323,21.6508916 46.6370484,22.083759 46.9788783,22.0496386 C47.3207081,22.0152289 47.5513925,21.5271325 47.4946621,20.9592289 C47.4376422,20.3913253 47.1143366,19.9584578 46.7727963,19.9928675 C46.4309665,20.026988 46.1999925,20.5150843 46.2570124,21.082988" id="Fill-19" fill="#1A1918"></path>
                <path d="M51.6718745,20.8123373 C51.4796857,21.3498795 51.5862,21.8790361 51.9095056,21.9944096 C52.2331006,22.1097831 52.6510534,21.7677108 52.8432422,21.2301687 C53.0354311,20.6926265 52.9289168,20.1631807 52.6056112,20.0478072 C52.2820161,19.9324337 51.8640634,20.2747952 51.6718745,20.8123373" id="Fill-20" fill="#1A1918"></path>
            </g>
        </g>
    </g>
</svg>