<?xml version="1.0" encoding="UTF-8" standalone="no"?>
<svg width="200px" height="150px" viewBox="0 0 200 150" version="1.1" xmlns="http://www.w3.org/2000/svg" xmlns:xlink="http://www.w3.org/1999/xlink">
    <!-- Generator: Sketch 3.7.2 (28276) - http://www.bohemiancoding.com/sketch -->
    <title>emerchantpay_logo</title>
    <desc>Created with Sketch.</desc>
    <defs></defs>
    <g id="Page-1" stroke="none" stroke-width="1" fill="none" fill-rule="evenodd">
        <g id="emerchantpay_logo">
            <g id="eMerchantPay-Logo-RGB" transform="translate(9.000000, 50.000000)">
                <path d="M36.5953799,20.3160377 L35.102227,35.5948113 L38.0156113,35.5948113 L39.0729719,22.6502948 L39.2813188,22.6502948 C39.1754091,21.8727889 39.0035229,21.0935436 38.810802,20.3160377 L36.5953799,20.3160377" id="Fill-1" fill="#5F604B"></path>
                <path d="M26.1693531,17.3608196 C27.7701519,17.4756191 28.5202008,18.7401533 27.7145927,20.5021521 C26.5287516,23.015566 21.4138349,25.4176592 15.4342785,24.467954 C17.9709021,20.3195165 23.1500591,17.1416568 26.1693531,17.3608196 M57.0741452,43.413355 C49.32364,45.2884139 41.2554058,46.3790094 33.2930813,46.6538325 C27.794459,46.8416863 22.2003444,46.5077241 16.8284666,45.2658019 C13.2188563,44.4308962 9.59882869,43.0793927 6.7028066,40.7138267 C2.11049341,36.9584906 1.37954299,31.1332842 3.43002385,25.7933667 C3.93179267,24.4923054 4.62454615,23.154717 5.29125627,22.0971698 C5.30514607,22.0762972 5.4075833,21.9249705 5.4718236,21.832783 C5.49613074,21.7927771 5.71663122,21.4796875 5.70447765,21.4918632 C5.8728914,21.257046 6.09512811,20.9683078 6.32083726,20.672612 C6.85385812,19.9855542 7.42681212,19.328066 8.01018348,18.6862323 C11.0346862,15.3605248 14.5661663,12.5705483 18.4101669,10.2536851 C22.4503607,7.81332547 26.8412719,5.90173939 31.3988606,4.66503538 C34.932077,3.70663325 38.7864949,3.08393278 42.4238848,3.76925118 C45.0507921,4.26323703 47.3929586,5.75910967 47.9798024,8.5073408 C48.7558947,12.1391804 46.8703551,15.9693101 44.5768029,18.644487 C41.7380762,21.9545401 38.2031236,24.6940743 34.5570526,27.0474646 C30.8953556,29.41477 26.7232087,31.5107311 22.5649515,32.8570165 L22.5510617,32.8622347 C21.1742359,33.3666568 18.2677965,34.2867925 16.0020238,34.1232901 C11.5173565,33.7980248 12.6997252,29.7261203 13.9689052,26.8752653 C21.0961058,27.8232311 29.8675108,25.16023 31.7912473,20.1003538 C33.1055691,16.6459316 30.820698,15.0943986 28.3778304,14.9187205 C20.5127345,14.3551592 11.9427315,21.8780071 9.53806084,28.2024175 C7.77058453,32.8396226 8.77759461,36.2018573 13.4862348,36.5410377 C16.328434,36.7428066 19.4814172,36.3636203 22.9885903,35.0608196 C31.7044361,31.9351415 39.3455591,26.4004127 44.9622446,18.9523585 C47.5613724,15.5048939 50.2316853,11.354717 50.2438389,6.87579599 C50.2507838,4.05103184 48.6829733,1.97246462 46.0630108,1.02275943 C42.8180077,-0.154805425 39.0399837,0.313089623 35.7463662,0.984492925 C31.3589275,1.87679835 27.120804,3.54487028 23.1535316,5.60082547 C15.399554,9.61880896 8.92343745,15.6057783 4.25820283,22.9912146 C1.20418434,27.8232311 -1.37063626,33.9858785 1.19376699,39.5954009 C4.28077375,46.3407429 12.9948834,48.7045696 19.6446223,49.2959611 C37.9739419,50.9222877 52.4714146,45.7267394 57.1175508,43.79602 C57.1175508,43.79602 57.0706727,43.413355 57.0741452,43.413355" id="Fill-2" fill="#94A545"></path>
                <path d="M62.7342363,25.8803361 C60.7844564,25.8803361 60.0656596,27.256191 60.0656596,28.8094634 L65.402813,28.8094634 C65.402813,27.3466392 64.9948003,25.8803361 62.7342363,25.8803361 M56.4577855,29.9835495 C56.4577855,26.2525649 58.5742429,23.8974351 62.90265,23.8974351 C67.6147627,23.8974351 69.2016717,26.1429835 69.1061794,30.7262677 L60.0656596,30.7262677 C60.2809514,33.3005601 62.3748379,33.825855 64.4912952,33.825855 C65.9566685,33.825855 67.0418087,33.6293042 68.120004,33.4327535 L68.120004,35.3982606 C68.120004,35.3982606 66.0052828,35.85398 63.6492265,35.85398 C59.6802178,35.85398 56.4577855,34.370283 56.4577855,29.9835495" id="Fill-3" fill="#5F604B"></path>
                <path d="M74.3721476,27.3222877 L74.3721476,35.5965507 L70.9569944,35.5965507 L70.9569944,24.1374705 L73.9849696,24.1374705 C73.9849696,24.1374705 73.9641349,25.182842 73.9849696,25.182842 C76.2472698,23.9617925 77.7386864,24.0487618 78.9175827,24.0487618 L78.9175827,26.5778302 C77.6675012,26.5778302 75.5996581,26.5360849 74.3721476,27.3222877" id="Fill-4" fill="#5F604B"></path>
                <path d="M86.708021,35.8348467 C82.5237205,35.8348467 79.5200525,33.7841097 79.5200525,29.6565448 C79.5200525,25.9238208 82.7390123,23.8974351 86.5656506,23.8974351 C87.7671178,23.8974351 89.0432427,23.9826651 90.2221389,24.2227005 L90.2221389,26.2734375 C89.4043773,26.1864682 88.6786356,26.1186321 87.8886535,26.1186321 C84.687056,26.1186321 83.1036194,27.0405071 83.1036194,29.8096108 C83.1036194,32.603066 84.687056,33.5632075 87.8886535,33.5632075 C89.0154631,33.5632075 89.6179329,33.479717 90.3176313,33.3927476 L90.3176313,35.4643573 C89.0901207,35.7496167 87.9094882,35.8348467 86.708021,35.8348467" id="Fill-5" fill="#5F604B"></path>
                <path d="M100.038751,35.5948113 L100.038751,28.2615566 C100.038751,27.4962264 99.7244944,26.4491156 98.2573849,26.4491156 C97.0559177,26.4491156 95.3700439,26.950059 94.9863383,27.1048644 L94.9863383,35.5948113 L91.5659765,35.5948113 L91.5659765,19.2237028 L94.9863383,19.2237028 L94.9863383,25.0315153 C96.2155851,24.5514446 97.8979864,23.9409198 99.2661312,23.9409198 C101.169033,23.9409198 103.452168,24.7497347 103.452168,27.5379717 L103.452168,35.5948113 L100.038751,35.5948113" id="Fill-6" fill="#5F604B"></path>
                <path d="M113.383371,30.6427771 C112.947578,30.6184257 111.773891,30.6184257 111.409284,30.6184257 C109.994261,30.6184257 108.742443,30.7071344 108.742443,32.2325767 C108.742443,33.7614976 109.994261,33.8502064 111.409284,33.8502064 C112.133289,33.8502064 112.709716,33.8067217 113.383371,33.718013 L113.383371,30.6427771 L113.383371,30.6427771 Z M110.975228,35.8348467 C107.919473,35.7931014 105.158876,35.3130307 105.158876,32.1247347 C105.158876,28.501592 109.822375,28.6563974 113.383371,28.6563974 C113.383371,26.8630896 113.357327,26.0577535 110.256431,26.0577535 C108.575766,26.0577535 106.867321,26.2960495 105.999209,26.4717276 L105.999209,24.3096698 C107.060042,24.0922465 109.101842,23.8974351 110.447415,23.8974351 C113.456292,23.8748231 116.796788,24.1792158 116.796788,27.7153892 L116.796788,35.5513267 C114.631716,35.7704894 112.852086,35.8800708 110.975228,35.8348467 L110.975228,35.8348467 Z" id="Fill-7" fill="#5F604B"></path>
                <path d="M127.884316,35.5948113 L127.884316,28.1293632 C127.884316,27.5379717 127.809658,26.4491156 126.080379,26.4491156 C124.880648,26.4491156 123.290266,26.950059 122.929132,27.1048644 L122.929132,35.5948113 L119.512242,35.5948113 L119.512242,24.1357311 L122.59404,24.1357311 L122.59404,25.16023 C124.014272,24.5723172 125.767858,23.9600531 127.427689,23.9600531 C129.228153,23.9600531 131.299469,24.9028007 131.299469,27.5379717 L131.299469,35.5948113 L127.884316,35.5948113" id="Fill-8" fill="#5F604B"></path>
                <path d="M138.558623,26.3621462 L138.558623,32.296934 C138.558623,33.1961969 139.1854,33.3927476 139.834747,33.3927476 L142.145662,33.3927476 L142.145662,35.5948113 L139.402428,35.5948113 C137.214785,35.5948113 135.265005,35.5948113 135.265005,32.4952241 L135.265005,26.3621462 L132.716228,26.3621462 L132.716228,24.1374705 L135.265005,24.1374705 L135.265005,21.1231132 C135.265005,21.1231132 138.00824,20.2934257 138.558623,20.1212264 L138.558623,24.1374705 L142.407832,24.1374705 L142.407832,26.3621462 L138.558623,26.3621462" id="Fill-9" fill="#5F604B"></path>
                <path d="M149.788521,22.5841981 L147.625186,22.5841981 L147.625186,28.0006486 L149.788521,28.0006486 C151.83553,28.0006486 152.92067,27.3657724 152.92067,25.2924233 C152.92067,23.2190743 151.83553,22.5841981 149.788521,22.5841981 M150.219105,30.3122936 L147.625186,30.3122936 L147.625186,35.5948113 L144.138847,35.5948113 L144.138847,20.3160377 L149.884014,20.3160377 C155.36701,20.3160377 156.499028,22.8485849 156.499028,25.2489387 C156.499028,27.8667158 154.646477,30.3122936 150.219105,30.3122936" id="Fill-10" fill="#94A545"></path>
                <path d="M165.011736,30.6427771 C164.57768,30.6184257 163.398783,30.6184257 163.037649,30.6184257 C161.62089,30.6184257 160.367336,30.7071344 160.367336,32.2325767 C160.367336,33.7614976 161.62089,33.8502064 163.037649,33.8502064 C163.76339,33.8502064 164.339817,33.8067217 165.011736,33.718013 L165.011736,30.6427771 L165.011736,30.6427771 Z M162.605329,35.8348467 C159.554783,35.7931014 156.787241,35.3130307 156.787241,32.1247347 C156.787241,28.501592 161.449003,28.6563974 165.011736,28.6563974 C165.011736,26.8630896 164.985692,26.0577535 161.886532,26.0577535 C160.204131,26.0577535 158.49395,26.2960495 157.627574,26.4717276 L157.627574,24.3096698 C158.686671,24.0922465 160.730207,23.8974351 162.07578,23.8974351 C165.084657,23.8748231 168.423416,24.1792158 168.423416,27.7153892 L168.423416,35.5513267 C166.263553,35.7704894 164.482187,35.8800708 162.605329,35.8348467 L162.605329,35.8348467 Z" id="Fill-11" fill="#94A545"></path>
                <path d="M175.790216,40.3972583 L172.411523,40.3972583 L174.599166,35.5948113 L174.613056,35.5948113 L169.45647,24.1357311 L173.18588,24.1357311 L176.297193,32.5787146 L176.312819,32.5943691 L179.248775,24.1357311 L182.663928,24.1357311 C180.445033,29.5487028 178.000429,34.9860259 175.790216,40.3972583" id="Fill-12" fill="#94A545"></path>
                <path d="M53.9350517,20.3160377 L48.7385324,20.3160377 L45.4674859,31.9055719 L45.158438,31.9055719 L42.0071909,20.3160377 L38.7864949,20.3160377 C38.9774796,21.0935436 39.1563107,21.8727889 39.2604841,22.6502948 L39.3837561,22.6502948 L43.0628153,35.5948113 L47.0821745,35.5948113 L50.9036041,22.6502948 L51.2161245,22.6502948 L52.0338861,35.5948113 L55.4229959,35.5948113 L53.9350517,20.3160377" id="Fill-13" fill="#5F604B"></path>
            </g>
        </g>
    </g>
</svg>