<?xml version="1.0" encoding="UTF-8" standalone="no"?>
<svg width="120px" height="95px" viewBox="0 0 120 95" version="1.1" xmlns="http://www.w3.org/2000/svg" xmlns:xlink="http://www.w3.org/1999/xlink">
    <!-- Generator: Sketch 3.8.3 (29802) - http://www.bohemiancoding.com/sketch -->
    <title>emerchantpay_logo_footer</title>
    <desc>Created with Sketch.</desc>
    <defs></defs>
    <g id="Page-1" stroke="none" stroke-width="1" fill="none" fill-rule="evenodd">
        <g id="emerchantpay_logo_footer" fill="#7F7F7F">
            <g id="emerchantpay_logo" transform="translate(1.000000, 32.000000)">
                <g id="Page-1">
                    <g id="emerchantpay_logo">
                        <g id="eMerchantPay-Logo-RGB">
                            <path d="M23.5970209,13.4085849 L22.6342229,23.4925755 L24.5127985,23.4925755 L25.1945939,14.9491946 L25.3289378,14.9491946 C25.2606463,14.4360407 25.1498126,13.9217388 25.0255445,13.4085849 L23.5970209,13.4085849" id="Fill-1"></path>
                            <path d="M16.8742277,11.4581409 C17.9064367,11.5339086 18.3900748,12.3685012 17.8706117,13.5314204 C17.105971,15.1902736 13.807828,16.7756551 9.95215772,16.1488496 C11.5877948,13.4108809 14.9273605,11.3134935 16.8742277,11.4581409 M36.8019078,28.6528143 C31.8043143,29.8903532 26.6018464,30.6101462 21.4676699,30.7915295 C17.9221102,30.915513 14.3149762,30.6950979 10.8511424,29.8754293 C8.52363412,29.3243915 6.18940866,28.4323992 4.3220283,26.8711256 C1.3608646,24.3926038 0.889541382,20.5479676 2.21170937,17.023622 C2.53525429,16.1649216 2.98194779,15.2821132 3.41184831,14.5841321 C3.42080457,14.5703562 3.48685699,14.4704805 3.5282797,14.4096368 C3.54395315,14.3832329 3.68613379,14.1765938 3.67829706,14.1846297 C3.78689172,14.0296504 3.9301919,13.8390831 4.07573113,13.6439239 C4.41942764,13.1904658 4.78887339,12.7565236 5.16503634,12.3329133 C7.11526214,10.1379464 9.39239138,8.29656188 11.8710366,6.76743217 C14.4761889,5.15679481 17.3074868,3.895148 20.2462598,3.07892335 C22.5245087,2.44637795 25.009871,2.03539563 27.3552918,2.48770578 C29.0491446,2.81373644 30.5593941,3.80101238 30.9377961,5.61484493 C31.4382272,8.01185906 30.2224148,10.5397447 28.7435123,12.3053614 C26.9130765,14.4899965 24.6337081,16.298089 22.2826897,17.8513266 C19.9215954,19.4137482 17.2313586,20.7970825 14.550078,21.6856309 L14.5411218,21.6890749 C13.6533324,22.0219935 11.7792349,22.6292831 10.3182449,22.5213715 C7.42649217,22.3066964 8.18889384,19.6192394 9.00727221,17.7376751 C13.6029535,18.3633325 19.2588321,16.6057518 20.4992742,13.2662335 C21.3467604,10.9863149 19.8734555,9.96230308 18.2982732,9.84635553 C13.2267906,9.47440507 7.70077769,14.4394847 6.15022502,18.6135956 C5.01054084,21.6741509 5.65986975,23.8932258 8.69604211,24.1170849 C10.528717,24.2502524 12.5617881,23.9999894 14.823244,23.1401409 C20.4432976,21.0771934 25.3703605,17.4242724 28.9920484,12.5085566 C30.6679888,10.23323 32.3898299,7.49411322 32.3976666,4.53802535 C32.4021447,2.67368101 31.3912068,1.30182665 29.7018321,0.675021224 C27.6094257,-0.10217158 25.1733228,0.206639151 23.0495695,0.649765331 C20.2205106,1.23868691 17.4877315,2.33961438 14.9295996,3.69654481 C9.92976706,6.34841391 5.75391049,10.2998137 2.74572641,15.1742016 C0.776468591,18.3633325 -0.883798244,22.4306798 0.769751392,26.1329646 C2.76028034,30.5848903 8.37921443,32.1450159 12.6670242,32.5353343 C24.4859297,33.6087099 33.8340269,30.179648 36.8298961,28.9053732 C36.8298961,28.9053732 36.7996687,28.6528143 36.8019078,28.6528143" id="Fill-2"></path>
                            <path d="M40.4515841,17.0810218 C39.1943489,17.0810218 38.7308625,17.9890861 38.7308625,19.0142458 L42.1723057,19.0142458 C42.1723057,18.0487819 41.9092155,17.0810218 40.4515841,17.0810218 M36.4044737,19.7891427 C36.4044737,17.3266928 37.7691839,15.7723072 40.5601787,15.7723072 C43.5985902,15.7723072 44.621843,17.2543691 44.5602687,20.2793367 L38.7308625,20.2793367 C38.8696845,21.9783697 40.2198408,22.3250643 41.584551,22.3250643 C42.5294365,22.3250643 43.2291444,22.1953408 43.9243742,22.0656173 L43.9243742,23.362852 C43.9243742,23.362852 42.5607834,23.6636268 41.0415777,23.6636268 C38.4823262,23.6636268 36.4044737,22.6843868 36.4044737,19.7891427" id="Fill-3"></path>
                            <path d="M47.955811,18.0327099 L47.955811,23.4937235 L45.7536904,23.4937235 L45.7536904,15.9307305 L47.7061553,15.9307305 C47.7061553,15.9307305 47.6927209,16.6206757 47.7061553,16.6206757 C49.1649062,15.8147831 50.1265847,15.8721828 50.8867473,15.8721828 L50.8867473,17.5413679 C50.0806838,17.5413679 48.7473205,17.513816 47.955811,18.0327099" id="Fill-4"></path>
                            <path d="M55.91009,23.6509988 C53.2120165,23.6509988 51.2752251,22.2975124 51.2752251,19.5733196 C51.2752251,17.1097217 53.3508385,15.7723072 55.8182884,15.7723072 C56.5930049,15.7723072 57.4158614,15.828559 58.176024,15.9869823 L58.176024,17.3404687 C57.6487242,17.283069 57.1807596,17.2382972 56.6713722,17.2382972 C54.6069541,17.2382972 53.5859404,17.8467347 53.5859404,19.6743431 C53.5859404,21.5180236 54.6069541,22.1517169 56.6713722,22.1517169 C57.3979489,22.1517169 57.7864267,22.0966132 58.2375983,22.0392134 L58.2375983,23.4064758 C57.4460888,23.594747 56.6848066,23.6509988 55.91009,23.6509988" id="Fill-5"></path>
                            <path d="M64.5058613,23.4925755 L64.5058613,18.6526274 C64.5058613,18.1475094 64.3032259,17.4564163 63.3572209,17.4564163 C62.5825043,17.4564163 61.4954381,17.7870389 61.2480214,17.8892105 L61.2480214,23.4925755 L59.0425422,23.4925755 L59.0425422,12.6876438 L61.2480214,12.6876438 L61.2480214,16.5208001 C62.0406505,16.2039534 63.1254776,15.8010071 64.0076693,15.8010071 C65.234677,15.8010071 66.7068624,16.3348249 66.7068624,18.1750613 L66.7068624,23.4925755 L64.5058613,23.4925755" id="Fill-6"></path>
                            <path d="M73.110589,20.2242329 C72.8295858,20.208161 72.0727822,20.208161 71.8376804,20.208161 C70.9252612,20.208161 70.118078,20.2667087 70.118078,21.2735006 C70.118078,22.2825884 70.9252612,22.3411362 71.8376804,22.3411362 C72.3045251,22.3411362 72.6762103,22.3124363 73.110589,22.2538886 L73.110589,20.2242329 L73.110589,20.2242329 L73.110589,20.2242329 Z M71.5577973,23.6509988 C69.5874197,23.6234469 67.8073627,23.3066003 67.8073627,21.2023249 C67.8073627,18.8110507 70.8144276,18.9132223 73.110589,18.9132223 C73.110589,17.7296391 73.0937956,17.1981173 71.0943107,17.1981173 C70.0106032,17.1981173 68.9089829,17.3553927 68.3492167,17.4713402 L68.3492167,16.0443821 C69.0332511,15.9008827 70.3498216,15.7723072 71.2174589,15.7723072 C73.157609,15.7573832 75.3115901,15.9582824 75.3115901,18.2921569 L75.3115901,23.4638756 C73.9155327,23.608523 72.7680117,23.6808467 71.5577973,23.6509988 L71.5577973,23.6509988 L71.5577973,23.6509988 Z" id="Fill-7"></path>
                            <path d="M82.4609251,23.4925755 L82.4609251,18.5653797 C82.4609251,18.1750613 82.4127849,17.4564163 81.2977307,17.4564163 C80.5241337,17.4564163 79.4986415,17.7870389 79.2657791,17.8892105 L79.2657791,23.4925755 L77.0625386,23.4925755 L77.0625386,15.9295825 L79.0497089,15.9295825 L79.0497089,16.6057518 C79.9654869,16.2177294 81.0962144,15.813635 82.166488,15.813635 C83.3274429,15.813635 84.6630456,16.4358485 84.6630456,18.1750613 L84.6630456,23.4925755 L82.4609251,23.4925755" id="Fill-8"></path>
                            <path d="M89.3438116,17.3990165 L89.3438116,21.3159764 C89.3438116,21.90949 89.7479628,22.0392134 90.1666675,22.0392134 L91.6567657,22.0392134 L91.6567657,23.4925755 L89.8879044,23.4925755 C88.4772931,23.4925755 87.2200579,23.4925755 87.2200579,21.4468479 L87.2200579,17.3990165 L85.5765842,17.3990165 L85.5765842,15.9307305 L87.2200579,15.9307305 L87.2200579,13.9412547 C87.2200579,13.9412547 88.9889198,13.393661 89.3438116,13.2800094 L89.3438116,15.9307305 L91.8258152,15.9307305 L91.8258152,17.3990165 L89.3438116,17.3990165" id="Fill-9"></path>
                            <path d="M96.584948,14.9055707 L95.1900106,14.9055707 L95.1900106,18.4804281 L96.584948,18.4804281 C97.9048773,18.4804281 98.604585,18.0614098 98.604585,16.6929994 C98.604585,15.324589 97.9048773,14.9055707 96.584948,14.9055707 M96.8625923,20.0061138 L95.1900106,20.0061138 L95.1900106,23.4925755 L92.9419888,23.4925755 L92.9419888,13.4085849 L96.6465227,13.4085849 C100.182006,13.4085849 100.911942,15.080066 100.911942,16.6642995 C100.911942,18.3920324 99.7174005,20.0061138 96.8625923,20.0061138" id="Fill-10"></path>
                            <path d="M106.40101,20.2242329 C106.121127,20.208161 105.360964,20.208161 105.128102,20.208161 C104.214563,20.208161 103.40626,20.2667087 103.40626,21.2735006 C103.40626,22.2825884 104.214563,22.3411362 105.128102,22.3411362 C105.596066,22.3411362 105.967751,22.3124363 106.40101,22.2538886 L106.40101,20.2242329 L106.40101,20.2242329 L106.40101,20.2242329 Z M104.849338,23.6509988 C102.882319,23.6234469 101.097784,23.3066003 101.097784,21.2023249 C101.097784,18.8110507 104.103729,18.9132223 106.40101,18.9132223 C106.40101,17.7296391 106.384217,17.1981173 104.385851,17.1981173 C103.301024,17.1981173 102.198285,17.3553927 101.639638,17.4713402 L101.639638,16.0443821 C102.322553,15.9008827 103.640243,15.7723072 104.50788,15.7723072 C106.44803,15.7573832 108.600891,15.9582824 108.600891,18.2921569 L108.600891,23.4638756 C107.208193,23.608523 106.059552,23.6808467 104.849338,23.6509988 L104.849338,23.6509988 L104.849338,23.6509988 Z" id="Fill-11"></path>
                            <path d="M113.351068,26.6621905 L111.172457,26.6621905 L112.583069,23.4925755 L112.592025,23.4925755 L109.267013,15.9295825 L111.67177,15.9295825 L113.677971,21.5019516 L113.688047,21.5122836 L115.581177,15.9295825 L117.783298,15.9295825 C116.352535,19.5021438 114.776233,23.0907771 113.351068,26.6621905" id="Fill-12"></path>
                            <path d="M34.7777929,13.4085849 L31.4270318,13.4085849 L29.3178324,21.0576775 L29.1185557,21.0576775 L27.086604,13.4085849 L25.009871,13.4085849 C25.1330196,13.9217388 25.2483315,14.4360407 25.3155034,14.9491946 L25.3949903,14.9491946 L27.7672798,23.4925755 L30.3589978,23.4925755 L32.823089,14.9491946 L33.0246049,14.9491946 L33.5519047,23.4925755 L35.7372323,23.4925755 L34.7777929,13.4085849" id="Fill-13"></path>
                        </g>
                    </g>
                </g>
            </g>
        </g>
    </g>
</svg>