<?xml version="1.0" encoding="UTF-8" standalone="no"?>
<svg width="250px" height="190px" viewBox="0 0 250 190" version="1.1" xmlns="http://www.w3.org/2000/svg" xmlns:xlink="http://www.w3.org/1999/xlink">
    <!-- Generator: Sketch 3.8.3 (29802) - http://www.bohemiancoding.com/sketch -->
    <title>fyber_logo</title>
    <desc>Created with Sketch.</desc>
    <defs></defs>
    <g id="Page-1" stroke="none" stroke-width="1" fill="none" fill-rule="evenodd">
        <g id="fyber_logo">
            <g id="Fyber-Official-Logo-(3)-(1)-(1)" transform="translate(11.000000, 57.000000)">
                <path d="M38.5521886,0 C28.2545135,0 18.5732879,4.00477 11.2915505,11.276265 C4.01019865,18.548145 0,28.216265 0,38.5 C0,48.783735 4.01019865,58.451855 11.2915505,65.723735 C18.5732879,72.99523 28.2545135,77 38.5521886,77 C48.8498636,77 58.5310892,72.99523 65.8128266,65.723735 C73.0941785,58.451855 77.1043771,48.783735 77.1043771,38.5 C77.1043771,28.216265 73.0941785,18.548145 65.8128266,11.276265 C58.5310892,4.00477 48.8498636,0 38.5521886,0 L38.5521886,0 Z M38.5521886,9.31469 C54.6928333,9.31469 67.7770606,22.381205 67.7770606,38.5 C67.7770606,54.618795 54.6928333,67.68531 38.5521886,67.68531 C22.4119293,67.68531 9.3273165,54.618795 9.3273165,38.5 C9.3273165,22.381205 22.4119293,9.31469 38.5521886,9.31469 L38.5521886,9.31469 Z" id="Fill-1" fill="#B8D6E1"></path>
                <polyline id="Fill-2" fill="#2F2A27" points="51.8361162 28.490385 51.8361162 19.11063 33.3067778 19.11063 23.8541667 28.60627 23.8541667 37.98564 33.248564 37.98564 33.248564 28.490385 51.8361162 28.490385"></polyline>
                <polyline id="Fill-3" fill="#2F2A27" points="23.8541667 56.744765 33.3067778 56.744765 33.3067778 47.353845 51.8361162 47.353845 51.8361162 37.98564 33.3067778 37.98564 23.8541667 47.353845 23.8541667 56.744765"></polyline>
                <polyline id="Fill-4" fill="#2F2A27" points="112.292502 52.894765 112.292502 19.838665 132.414431 19.838665 132.414431 24.079825 116.86402 24.079825 116.86402 34.71006 130.966411 34.71006 130.966411 39.000115 116.86402 39.000115 116.86402 52.894765 112.292502 52.894765"></polyline>
                <polyline id="Fill-5" fill="#2F2A27" points="138.787879 62.26759 144.391054 50.42345 134.724478 30.468515 139.77096 30.468515 146.773579 45.94975 153.495539 30.468515 158.212399 30.468515 143.596879 62.26759 138.787879 62.26759"></polyline>
                <path d="M173.370734,33.684805 C169.496239,33.684805 166.692338,36.717065 166.692338,41.568065 C166.692338,46.41406 169.496239,49.58646 173.370734,49.58646 C177.385559,49.58646 180.000554,46.41406 180.000554,41.568065 C180.000554,36.717065 177.433749,33.684805 173.370734,33.684805 L173.370734,33.684805 Z M162.396854,52.894765 L162.396854,19.137195 L166.740914,19.137195 L166.740914,33.6413 C167.815749,31.634295 170.426118,29.81594 174.164909,29.81594 C180.979008,29.81594 184.480318,35.03885 184.480318,41.568065 C184.480318,48.232415 180.697963,53.503835 174.024579,53.503835 C170.707163,53.503835 168.140359,52.05816 166.740914,49.629965 L166.740914,52.894765 L162.396854,52.894765 L162.396854,52.894765 Z" id="Fill-6" fill="#2F2A27"></path>
                <path d="M206.123131,39.37241 C206.030992,36.15612 203.929126,33.6413 199.957865,33.6413 C196.272662,33.6413 194.030466,36.48491 193.841561,39.37241 L206.123131,39.37241 L206.123131,39.37241 Z M210.558946,46.506075 C209.295205,50.471575 205.701756,53.59585 200.47138,53.59585 C194.451842,53.59585 189.172891,49.214165 189.172891,41.61157 C189.172891,34.56992 194.262936,29.76743 199.914301,29.76743 C206.82054,29.76743 210.699662,34.526415 210.699662,41.519555 C210.699662,42.0805 210.651086,42.636825 210.60251,42.91749 L193.701231,42.91749 C193.797997,46.926495 196.689025,49.726985 200.47138,49.726985 C204.113406,49.726985 205.934226,47.71998 206.776976,45.204775 L210.558946,46.506075 L210.558946,46.506075 Z" id="Fill-7" fill="#2F2A27"></path>
                <path d="M228.744013,34.89871 C228.090168,34.806695 227.436323,34.75857 226.831054,34.75857 C223.140838,34.75857 220.666173,36.717065 220.666173,41.66008 L220.666173,52.894765 L216.278549,52.894765 L216.278549,30.468515 L220.574034,30.468515 L220.574034,34.38589 C222.21096,30.93783 225.010234,30.09622 227.295993,30.09622 C227.906274,30.09622 228.511544,30.188235 228.744013,30.23636 L228.744013,34.89871" id="Fill-8" fill="#2F2A27"></path>
            </g>
        </g>
    </g>
</svg>