<?xml version="1.0" encoding="UTF-8" standalone="no"?>
<svg width="140px" height="100px" viewBox="0 0 140 100" version="1.1" xmlns="http://www.w3.org/2000/svg" xmlns:xlink="http://www.w3.org/1999/xlink">
    <!-- Generator: Sketch 3.7.2 (28276) - http://www.bohemiancoding.com/sketch -->
    <title>orange</title>
    <desc>Created with Sketch.</desc>
    <defs></defs>
    <g id="Page-1" stroke="none" stroke-width="1" fill="none" fill-rule="evenodd">
        <g id="orange" fill="#FFFFFF">
            <g id="Group">
                <path d="M117.557778,14.4733333 C116.752778,17.3138889 115.938889,20.0488889 115.021667,22.7883333 C110.361111,21.5716667 105.686111,20.355 101.021111,19.1361111 C101.222222,19.0355556 100.815556,18.9322222 100.717222,18.8316667 C100.815556,18.7311111 100.815556,18.5277778 100.717222,18.4266667 C100.815556,18.1227778 100.516111,17.8183333 100.305556,17.6172222 C100.412778,17.6172222 100.516111,17.5138889 100.516111,17.4138889 C100.609444,17.4138889 100.717222,17.5144444 100.815556,17.5144444 C100.918889,17.5144444 101.021111,17.4138889 101.115,17.4138889 C101.320556,17.4138889 101.526667,17.6172222 101.732222,17.4138889 C101.732222,17.3133333 101.423333,17.3133333 101.320556,17.2127778 C101.222222,17.1094444 101.115,17.0066667 101.115,16.8055556 C101.021111,16.705 100.918333,16.8055556 100.815556,16.8055556 C100.815556,16.6022222 100.609444,16.6022222 100.516111,16.3983333 C100.609444,16.3983333 100.717222,16.5016667 100.815556,16.3983333 C100.717222,16.3983333 100.815556,16.2977778 100.815556,16.195 C100.815556,15.9938889 100.609444,16.2977778 100.609444,16.195 C100.516111,16.195 100.516111,16.0966667 100.516111,15.9938889 C100.516111,15.8933333 100.609444,15.9938889 100.815556,15.9938889 C100.717222,15.7905556 100.717222,15.69 100.516111,15.5866667 C100.516111,15.4883333 100.412778,15.3855556 100.305556,15.285 C100.104444,15.285 100.104444,15.1816667 100.001111,15.1816667 C99.9027778,15.285 99.9027778,15.3855556 99.9027778,15.3855556 C99.9027778,15.6894444 100.206667,15.8933333 100.305556,15.9938889 C100.206667,16.195 100.001111,15.8933333 99.8,15.9938889 C99.8,16.195 99.9033333,16.3988889 99.5988889,16.5016667 C99.4961111,16.3983333 99.5988889,16.2977778 99.5988889,16.195 C99.5988889,16.0966667 99.3977778,15.9938889 99.3977778,15.8933333 C99.3977778,15.7905556 99.0938889,15.69 98.9911111,15.4883333 C98.5883333,15.4883333 98.3827778,15.1816667 97.9755556,15.1816667 C97.9755556,15.285 97.9755556,15.4883333 97.8772222,15.5866667 C97.7744444,15.7905556 97.9755556,15.7905556 97.9755556,15.8933333 C97.775,15.8933333 97.8772222,16.0972222 97.8772222,16.0972222 C97.7744444,16.0972222 97.5683333,16.0972222 97.4655556,15.9938889 C97.1661111,15.7905556 97.1661111,15.4883333 96.9605556,15.5866667 C96.755,15.5866667 96.755,15.69 96.6611111,15.8933333 C96.6611111,16.195 97.0638889,16.0972222 97.0638889,16.3988889 C96.9605556,16.6027778 96.6611111,16.6027778 96.5488889,16.8061111 C96.3522222,16.7055556 96.3522222,17.0072222 96.0433333,16.9066667 C96.1466667,17.3138889 96.6611111,17.3138889 96.9605556,17.6177778 C96.8572222,17.8188889 96.8572222,18.0227778 96.9605556,18.1233333 C91.7855556,16.8061111 86.7127778,15.4888889 81.4344444,14.1694444 C76.6616667,12.9527778 71.8883333,11.535 67.0244444,10.3183333 C66.6172222,10.2155556 66.2122222,10.115 66.0088889,10.115 C65.8077778,10.115 65.4988889,10.4188889 65.1944444,10.6205556 C56.5705556,15.5872222 47.8438889,20.4566667 39.215,25.4238889 C38.8127778,25.2227778 38.2044444,25.0166667 37.6944444,25.2227778 C37.5916667,25.3233333 37.6944444,25.4238889 37.5916667,25.4238889 L37.1888889,25.4238889 C36.9855556,25.4238889 36.9855556,25.7305556 36.6833333,25.625 C36.5755556,25.625 36.7838889,25.73 36.6833333,25.8311111 C36.4772222,25.8311111 36.4772222,26.0322222 36.2716667,26.0322222 C36.1761111,26.1355556 36.1761111,26.2333333 35.9722222,26.3366667 C35.7661111,26.3366667 35.565,26.1355556 35.2583333,26.1355556 C35.1577778,26.3366667 35.565,26.4372222 35.6677778,26.4372222 C35.6677778,26.8422222 35.7661111,26.945 35.9716667,27.1483333 C35.6677778,27.1483333 35.6677778,27.3494444 35.6677778,27.4527778 C30.4927778,30.3916667 25.3122222,33.4355556 20.0388889,36.3738889 C18.7194444,33.9405556 17.5005556,31.5072222 16.1833333,28.9733333 C15.9772222,28.7694444 15.5727778,28.1616667 15.6733333,27.8572222 C15.6733333,27.7566667 16.3844444,27.3494444 16.6888889,27.2488889 C19.1244444,25.9316667 21.4572222,24.6144444 23.7922222,23.295 C31.4027778,19.0366667 38.8127778,14.8816667 46.3233333,10.6211111 C46.9316667,10.2161111 47.6427778,9.81111111 48.3516667,9.505 C48.3516667,9.71111111 48.4544444,9.91166667 48.6555556,10.0127778 C48.8566667,10.0127778 48.8566667,9.81166667 48.9594444,9.81166667 C49.1605556,9.71111111 49.2661111,9.81166667 49.3688889,9.71111111 C49.5722222,9.81166667 49.7738889,10.0127778 50.0777778,10.0127778 C50.1783333,10.2166667 50.3844444,10.3194444 50.48,10.42 C50.585,10.5205556 50.6861111,10.3194444 50.7866667,10.5205556 C50.9877778,10.42 50.9877778,10.2166667 51.0911111,10.1155556 C51.1916667,10.1155556 51.1916667,10.2161111 51.2922222,10.2161111 C51.4977778,10.2161111 51.4977778,9.91166667 51.7038889,9.91166667 C51.7972222,9.81111111 51.7972222,9.71055556 51.905,9.505 C51.7972222,9.30388889 51.4977778,9.30388889 51.4977778,8.99944444 C51.395,8.99944444 51.1911111,8.89611111 51.1911111,8.79833333 C51.0905556,8.695 51.2922222,8.695 51.2922222,8.59444444 C50.8894444,8.59444444 50.8894444,8.08666667 50.8894444,8.08666667 C50.9877778,7.88555556 51.395,7.67944444 51.7038889,7.47833333 C53.7294444,6.36222222 55.8611111,5.14555556 57.89,4.03222222 C60.4261111,2.61166667 62.7611111,1.395 64.895,0.0783333333 C82.4438889,4.84333333 100.001111,9.71 117.557778,14.4733333 L117.557778,14.4733333 L117.557778,14.4733333 Z M50.6855556,10.5194444 L50.6855556,10.5194444 C50.6855556,10.62 50.7861111,10.7227778 50.7861111,10.8233333 C50.7861111,10.7227778 50.8894444,10.62 50.9872222,10.5194444 L50.6855556,10.5194444 L50.6855556,10.5194444 L50.6855556,10.5194444 Z M97.3622222,15.5872222 L97.3622222,15.5872222 C97.465,15.5872222 97.465,15.6905556 97.465,15.6905556 C97.6711111,15.6905556 97.8766667,15.4894444 97.7744444,15.2855556 C97.465,15.0816667 97.2683333,15.3861111 97.3622222,15.5872222 L97.3622222,15.5872222 L97.3622222,15.5872222 Z M102.949444,18.0227778 L102.949444,18.0227778 L103.052222,18.0227778 C103.052222,17.92 103.052222,17.92 102.949444,17.92 C102.949444,17.92 102.846111,18.0227778 102.949444,18.0227778 L102.949444,18.0227778 L102.949444,18.0227778 Z M103.758889,18.7316667 L103.758889,18.7316667 C103.969444,18.6311111 104.268889,18.6311111 104.268889,18.8322222 C104.063333,18.7316667 103.969444,18.8322222 103.857222,18.9327778 C103.758889,18.8322222 103.758889,18.7316667 103.660556,18.7316667 C103.660556,18.7316667 103.454444,18.7316667 103.557222,18.8322222 C103.557222,18.8322222 103.557222,18.9327778 103.660556,19.0361111 C103.857222,19.1366667 103.969444,19.1366667 104.165556,19.0361111 C104.268889,19.0361111 104.268889,19.1366667 104.371667,19.1366667 C104.474444,19.0361111 104.371667,18.9327778 104.371667,18.7316667 C104.371667,18.6311111 104.268333,18.6311111 104.268333,18.5283333 C104.371667,18.1233333 103.968889,18.2244444 103.968889,17.92 C103.557222,17.92 103.660556,18.4272222 103.758889,18.7316667 L103.758889,18.7316667 L103.758889,18.7316667 Z M102.031667,18.1233333 L102.031667,18.1233333 C102.135,18.2238889 102.341111,18.3266667 102.237778,18.5283333 C102.341111,18.6316667 102.443333,18.6316667 102.649444,18.7316667 C102.742778,18.7316667 102.846111,18.6311111 102.948889,18.5283333 C102.742778,18.4277778 102.340556,18.4277778 102.237778,18.2244444 C102.237778,18.1238889 102.341111,18.0233333 102.237778,18.0233333 C102.134444,18.0233333 102.135,18.1233333 102.031667,18.1233333 L102.031667,18.1233333 L102.031667,18.1233333 Z M102.743333,19.1366667 L102.743333,19.1366667 L102.743333,19.34 C103.052222,19.34 103.052222,19.5411111 103.155,19.5411111 C103.351667,19.5411111 103.557778,19.6438889 103.557778,19.4405556 C103.454444,19.4405556 103.351667,19.4405556 103.351667,19.2394444 C103.557778,19.2394444 103.661111,19.4405556 103.661111,19.5411111 C103.759444,19.5411111 103.759444,19.4405556 103.857778,19.34 C103.661111,19.34 103.558333,19.2394444 103.558333,19.1366667 C103.248889,19.0361111 103.051667,19.2394444 102.743333,19.1366667 L102.743333,19.1366667 L102.743333,19.1366667 Z M104.568333,19.745 L104.568333,19.745 L104.568333,19.6444444 L104.474444,19.6444444 C104.371667,19.745 104.568333,19.8477778 104.568333,19.745 L104.568333,19.745 L104.568333,19.745 Z" id="Shape"></path>
                <path id="Shape"></path>
                <path id="Shape"></path>
                <path id="Shape"></path>
                <path id="Shape"></path>
                <path id="Shape"></path>
                <path id="Shape"></path>
                <path id="Shape"></path>
                <path id="Shape"></path>
                <path id="Shape"></path>
                <path d="M136.031667,28.2633333 C136.135,28.06 135.928889,27.8566667 135.928889,27.7555556 C136.232778,27.8561111 136.232778,28.2633333 136.639444,28.1605556 C136.639444,28.8716667 137.145,29.6811111 136.639444,30.0883333 C136.433889,30.2894444 135.928889,30.2894444 135.526111,30.39 C134.206667,30.5933333 132.681111,30.6961111 131.567222,30.8977778 C131.97,34.0422222 132.381667,37.1844444 132.783889,40.3266667 C132.984444,41.44 132.984444,42.5588889 133.392222,43.2672222 C133.701111,43.7727778 134.206667,43.9761111 134.912778,43.7727778 C136.031111,43.5716667 136.433333,42.5583333 136.232222,41.1383333 C136.232222,40.7333333 136.133889,40.2255556 136.433333,40.0222222 C136.638889,39.9216667 137.144444,39.9216667 137.556111,39.8183333 C138.155,39.8183333 138.67,39.5166667 139.072222,39.8183333 C139.277778,39.9216667 139.277778,40.4266667 139.277778,40.7327778 C139.376111,41.1377778 139.376111,41.5427778 139.376111,41.8466667 C139.474444,44.1766667 138.772778,46.0044444 137.65,47.0172222 C136.536111,48.2338889 134.505556,48.9427778 132.381111,49.0455556 C130.448333,49.1483333 128.825,48.5377778 127.813889,47.525 C126.999444,46.7133333 126.391111,45.5994444 126.185,44.3805556 C125.885556,43.0655556 125.782222,41.6455556 125.576667,40.2255556 C125.17,37.3877778 124.865556,34.65 124.462778,31.8122222 C124.158889,31.8122222 123.751667,31.9127778 123.246667,31.9127778 C122.633333,32.0133333 121.823889,32.2172222 121.617778,31.8122222 C121.515,31.6083333 121.515,31.1011111 121.412222,30.7966667 C121.412222,30.2888889 121.211111,29.58 121.515556,29.2761111 C121.618333,29.1733333 121.927222,29.0727778 122.128333,29.0727778 C124.968889,27.8561111 126.494444,25.2216667 127.201111,21.8738889 C127.308333,21.4688889 127.308333,21.0638889 127.607778,20.9638889 C127.813889,20.8605556 128.623333,20.76 128.824444,20.76 C128.927222,20.76 128.927222,20.8605556 129.128889,20.8605556 C129.236111,20.8605556 129.128889,20.6572222 129.236111,20.6572222 C129.638889,20.6572222 130.040556,20.6572222 130.143889,20.8605556 C130.143889,20.9638889 129.942778,20.8605556 129.835,20.8605556 C129.942222,21.0638889 130.143889,21.1644444 130.34,21.0638889 C130.34,21.3683333 130.447778,21.6722222 130.447778,21.9766667 C130.246667,21.8738889 130.143333,21.5716667 130.34,21.4688889 C130.246667,21.3683333 130.246667,21.265 130.040556,21.265 C129.942222,21.265 130.040556,21.3683333 130.040556,21.4688889 C129.835,21.4688889 129.741111,21.4688889 129.638333,21.5716667 C129.638333,21.7727778 129.835,21.8733333 130.040556,21.8733333 C130.143889,22.0766667 130.34,22.28 130.551111,22.3811111 C130.751667,24.2061111 130.957778,26.1338889 131.257222,27.9566667 C132.473333,27.7555556 133.792778,27.5516667 135.015,27.4511111 C135.015,27.4511111 135.015,27.5516667 135.113333,27.5516667 C135.318889,27.6522222 135.417778,27.9566667 135.618333,28.16 C135.826111,28.06 135.929444,28.1605556 136.031667,28.2633333 L136.031667,28.2633333 L136.031667,28.2633333 Z M129.130556,21.0644444 L129.130556,21.0644444 C129.130556,21.165 129.237778,21.2655556 129.237778,21.3688889 C129.130556,21.3688889 129.130556,21.3688889 129.027222,21.4694444 C129.130556,21.5722222 129.237778,21.4694444 129.331111,21.4694444 C129.434444,21.165 129.331111,21.165 129.237778,20.9638889 C129.237778,21.0644444 129.130556,21.0644444 129.130556,21.0644444 L129.130556,21.0644444 L129.130556,21.0644444 Z" id="Shape"></path>
                <path d="M88.7427778,24.7138889 C90.5672222,24.6133333 91.7844444,25.3222222 92.3922222,26.4361111 C92.7011111,27.2477778 92.795,28.4644444 92.3922222,29.2766667 C91.475,31.0011111 88.4333333,31.8127778 86.4027778,31.0011111 C85.3922222,30.5938889 84.3811111,29.48 84.475,27.8566667 C84.5777778,27.1477778 84.8861111,26.4361111 85.2888889,26.0316667 C85.7944444,25.5261111 86.7116667,25.0161111 87.6288889,24.815 C87.9283333,24.815 88.3305556,24.7138889 88.7427778,24.7138889 L88.7427778,24.7138889 L88.7427778,24.7138889 Z" id="Shape"></path>
                <path id="Shape"></path>
                <path d="M108.330556,50.3661111 C108.531111,51.4777778 108.63,52.4938889 108.835556,53.6111111 C108.835556,54.1166667 109.041111,54.6222222 109.340556,54.8272222 C109.645,54.9261111 110.248889,55.0244444 110.763333,54.9261111 C111.268889,54.9261111 111.774444,54.8272222 111.98,55.025 C112.288889,55.3333333 112.288889,55.8388889 112.382778,56.2455556 C112.382778,56.6522222 112.588333,57.1583333 112.382778,57.4616667 C112.186111,57.7666667 111.475,57.7666667 110.964444,57.8694444 C107.721667,58.3738889 104.473889,58.7766667 101.222222,59.1833333 C100.717222,59.1833333 99.7994444,59.385 99.5983333,59.1833333 C99.2944444,59.0855556 99.2944444,58.4772222 99.1961111,57.9672222 C99.0927778,57.4616667 98.99,56.8538889 99.1961111,56.6522222 C99.3966667,56.3438889 100.206111,56.3438889 100.608889,56.2455556 C100.918333,56.1422222 101.423333,55.9416667 101.526111,55.535 C101.731667,54.9261111 101.526111,53.71 101.422778,52.9005556 C100.716667,47.7266667 100.103333,42.6594444 99.3966667,37.4888889 C99.2938889,36.5761111 99.0927778,35.5633333 98.5872222,35.3594444 C98.2783333,35.2561111 97.8761111,35.2561111 97.5672222,35.2561111 C97.1644444,35.2561111 96.7533333,35.3594444 96.4538889,35.2561111 C96.1444444,35.055 96.1444444,34.55 96.1444444,34.0416667 C96.0411111,33.6344444 95.9477778,33.0261111 96.0411111,32.7222222 C96.1444444,32.5211111 96.5466667,32.4177778 97.0616667,32.3172222 C99.5972222,32.0127778 101.731111,31.6083333 103.968333,31 C104.371111,30.8966667 104.772778,30.6955556 105.077222,30.8966667 C105.685556,31.1005556 105.484444,32.4172222 105.685556,33.1288889 C105.886667,32.9227778 105.99,32.7222222 106.195556,32.5205556 C107.412222,31.1005556 109.34,29.9844444 111.979444,29.8838889 C113.701667,29.7805556 115.432778,30.2888889 116.546667,31 C117.763333,31.7088889 118.778889,32.7222222 119.495,33.8377778 C121.011111,36.0672222 121.928333,39.6166667 121.516667,43.0655556 C121.212222,46.3083333 119.691667,48.9427778 117.361667,50.365 C116.238889,51.0744444 114.619444,51.58 112.897778,51.58 C111.166111,51.5811111 109.645,51.0755556 108.330556,50.3661111 L108.330556,50.3661111 L108.330556,50.3661111 Z M108.423889,34.55 L108.423889,34.55 C107.721667,34.955 107.108889,35.7644444 106.907778,36.6766667 C106.603333,38.0966667 107.006111,39.5172222 107.108333,40.7333333 C107.309444,42.1511111 107.412778,43.7727778 107.721667,45.0922222 C108.021111,46.4094444 108.63,47.3216667 109.546667,47.8294444 C110.459444,48.335 111.568333,48.335 112.588333,47.7261111 C113.501111,47.1177778 114.113889,46.0044444 114.113889,44.3805556 C114.113889,43.6716667 113.907778,42.6583333 113.805,41.8466667 C113.701667,41.035 113.608333,40.2255556 113.500556,39.4133333 C113.196667,37.0805556 112.897222,34.9538889 111.165556,34.2427778 C110.762778,34.0416667 110.155,34.1394444 109.742778,34.1394444 C109.238333,34.2438889 108.732778,34.3444444 108.423889,34.55 L108.423889,34.55 L108.423889,34.55 Z" id="Shape"></path>
                <path d="M92.4955556,32.4188889 C93.0005556,32.3183333 93.1038889,32.6227778 93.2066667,33.3316667 C93.9127778,38.2988889 94.5261111,43.0672222 95.1344444,48.135 C95.2283333,48.7433333 95.3405556,49.8594444 95.7427778,50.0605556 C96.2483333,50.2616667 97.0627778,49.96 97.465,50.1633333 C97.7744444,50.3666667 97.7744444,50.87 97.8766667,51.38 C97.8766667,51.8855556 98.0827778,52.4944444 97.8766667,52.7983333 C97.6711111,53.0044444 97.0627778,53.1022222 96.5477778,53.1022222 C93.4077778,53.5088889 90.5672222,53.9116667 87.4227778,54.3183333 C87.0111111,54.4172222 86.3,54.52 86,54.3183333 C85.6955556,54.1177778 85.6955556,53.6122222 85.5933333,53.1022222 C85.5933333,52.5922222 85.495,52.0866667 85.6961111,51.7872222 C85.8977778,51.4788889 86.5061111,51.4788889 86.9083333,51.3805556 C87.2177778,51.2772222 87.7227778,51.1777778 87.9288889,50.7727778 C88.1344444,50.4677778 88.0316667,49.6538889 87.9288889,49.0477778 C87.6294444,46.0061111 87.2177778,43.47 86.815,40.2272222 C86.7116667,39.6188889 86.7116667,39.1111111 86.6088889,38.5027778 C86.5061111,37.8944444 86.4033333,37.1855556 86.0005556,37.0827778 C85.6961111,36.8816667 85.2894444,36.8816667 84.8866667,36.8816667 C84.4755556,36.8816667 83.97,36.9822222 83.7638889,36.8816667 C83.4644444,36.6783333 83.4644444,36.1727778 83.3616667,35.665 C83.3616667,35.1572222 83.1555556,34.6522222 83.2583333,34.4483333 C83.3616667,34.1416667 83.8716667,34.0433333 84.2738889,33.9405556 C86.8144444,33.6361111 89.145,33.2316667 91.3816667,32.7238889 C91.7844444,32.6222222 92.0883333,32.4188889 92.4955556,32.4188889 L92.4955556,32.4188889 L92.4955556,32.4188889 Z" id="Shape"></path>
                <path d="M71.5877778,46.2088889 C71.7938889,47.7272222 71.9994444,49.0466667 72.505,50.3661111 C73.01,51.5811111 73.9277778,52.7972222 75.5466667,52.9005556 C77.3766667,53.1011111 78.3866667,52.4938889 79.1961111,51.6833333 C79.9077778,51.0755556 80.3188889,50.3661111 80.5161111,49.2505556 C80.6188889,48.9438889 80.6188889,48.235 80.9277778,48.0338889 C81.1244444,47.9311111 81.4327778,47.9311111 81.6388889,47.9311111 C81.8355556,47.8305556 82.0411111,47.8305556 82.345,47.8305556 C82.7522222,47.7272222 83.4633333,47.6272222 83.665,47.8305556 C84.0716667,48.1344444 83.8705556,49.2505556 83.665,49.7583333 C83.3605556,51.6833333 82.4433333,53.2005556 81.2266667,54.2205556 C79.4016667,55.8394444 76.4583333,56.6533333 73.3188889,56.4483333 C73.2155556,56.345 73.2155556,56.1433333 73.2155556,56.0455556 L72.9061111,56.0455556 C72.9061111,55.8394444 72.5038889,55.7361111 72.7005556,55.5355556 C72.5038889,55.4366667 72.2977778,55.2305556 72.1955556,54.9266667 C71.8861111,54.9266667 71.5866667,54.8277778 71.5866667,55.1272222 C71.3811111,55.025 71.4883333,54.8277778 71.2872222,54.8277778 C70.9833333,54.8277778 70.7794444,54.6227778 70.6738889,54.5194444 C70.4755556,54.4161111 70.4755556,54.7255556 70.2688889,54.6227778 C70.0655556,54.5194444 69.965,54.4166667 69.8644444,54.22 C69.5605556,54.0138889 69.1505556,53.8077778 68.8511111,53.71 C68.5472222,53.71 68.2405556,53.6111111 67.9338889,53.71 C67.8333333,53.8077778 68.0366667,54.0138889 67.8333333,54.1166667 C67.63,54.1166667 67.4283333,53.9105556 67.1244444,54.0133333 C65.7044444,52.6938889 64.6866667,51.075 64.0783333,48.9433333 C63.4722222,46.6133333 63.4722222,43.9766667 64.0783333,41.7466667 C64.6866667,39.8188889 66.0061111,37.9938889 67.5316667,36.88 C69.0522222,35.6633333 71.1838889,34.9544444 73.6172222,34.8516667 C76.6588889,34.6505556 78.9983333,35.9677778 80.4161111,37.4888889 C81.6372222,38.9088889 82.545,40.8344444 82.9566667,43.2677778 C83.06,43.7733333 83.1533333,44.3816667 82.8533333,44.6855556 C82.5444444,44.7861111 81.9366667,44.8888889 81.5338889,44.8888889 C78.1861111,45.3944444 74.7327778,45.8016667 71.5877778,46.2088889 L71.5877778,46.2088889 L71.5877778,46.2088889 Z M73.9277778,38.0972222 L73.9277778,38.0972222 C73.6188889,37.9944444 73.2166667,37.8938889 72.805,37.9944444 C70.6755556,38.1977778 70.8772222,41.1388889 71.2888889,43.2677778 C72.6083333,43.0666667 74.1244444,42.8627778 75.4438889,42.6594444 C75.1444444,41.0355556 75.1444444,38.8061111 73.9277778,38.0972222 L73.9277778,38.0972222 L73.9277778,38.0972222 Z" id="Shape"></path>
                <path d="M54.7427778,40.8344444 C53.7294444,40.1255556 52.1055556,40.5305556 51.4977778,41.1388889 C49.8738889,42.6594444 49.9722222,46.7144444 50.3844444,49.5544444 C50.5855556,50.9744444 50.9877778,52.2916667 51.4977778,53.405 C52.1061111,54.7255556 53.0233333,55.8388889 55.0472222,55.7355556 C57.1788889,55.535 58.2972222,53.9105556 58.8027778,51.9877778 C58.8027778,51.7861111 58.9055556,51.3788889 58.9055556,50.9744444 C59.0083333,50.4666667 58.9055556,49.8583333 59.3077778,49.6527778 C59.6166667,49.5544444 60.1222222,49.5544444 60.6322222,49.4516667 C61.1377778,49.4516667 61.545,49.2505556 61.8511111,49.555 C62.0522222,49.7583333 62.0522222,50.3666667 62.0522222,50.7722222 C61.9511111,53.8083333 60.735,56.1433333 59.0083333,57.4627778 C57.3844444,58.5772222 55.0472222,59.3866667 52.31,59.185 C48.15,58.9844444 45.305,56.7522222 43.7816667,53.7105556 C42.97,52.0861111 42.2633333,49.3511111 42.5672222,46.6138889 C42.5672222,46.31 42.6677778,45.9027778 42.7683333,45.4977778 C42.8733333,45.0927778 42.8733333,44.585 43.075,44.3816667 C43.1783333,44.2811111 43.1783333,44.2811111 43.3794444,44.1777778 C43.3794444,43.8761111 43.1783333,44.0772222 43.2761111,43.7727778 C43.3794444,43.5716667 43.8844444,43.5716667 43.9872222,43.2672222 C44.0855556,43.2672222 44.1933333,43.2672222 44.2866667,43.1666667 C44.3944444,43.0661111 44.495,42.8627778 44.5955556,42.76 C44.7994444,42.6594444 44.7994444,42.8627778 44.9,42.8627778 C45.1011111,42.6594444 45.5133333,42.8627778 45.8172222,42.6594444 C45.9155556,42.4583333 45.5133333,42.5588889 45.5133333,42.3555556 C45.7144444,42.255 45.7144444,41.9505556 45.6116667,41.6466667 C45.6116667,41.4405556 45.5133333,41.4405556 45.4055556,41.3427778 C45.1016667,40.835 45.5133333,40.3272222 45.9155556,40.2266667 C45.9155556,40.0233333 46.0183333,40.0233333 46.1194444,39.9227778 C46.4233333,39.6183333 46.9311111,39.3144444 47.4366667,39.01 C48.8566667,38.1983333 50.6866667,37.59 52.8155556,37.4894444 C55.4594444,37.3888889 57.6888889,38.1983333 59.0083333,39.415 C60.0238889,40.3277778 60.9338889,41.7477778 60.8377778,43.3688889 C60.8377778,45.6011111 59.0083333,46.7144444 56.8794444,46.6138889 C54.9466667,46.4105556 53.5288889,45.0933333 53.73,43.0672222 C53.8322222,42.1516667 54.235,41.6461111 54.7427778,40.8344444 L54.7427778,40.8344444 L54.7427778,40.8344444 Z" id="Shape"></path>
                <path d="M31.0983333,40.3266667 L31.1988889,40.3266667 C31.5033333,40.6305556 31.91,40.8344444 32.2144444,41.0355556 C32.42,41.2388889 32.2144444,41.3422222 32.5183333,41.4405556 C32.7222222,41.4405556 32.5183333,41.2394444 32.6216667,41.0355556 C32.8227778,40.935 33.1294444,40.935 33.3305556,40.8344444 L33.4355556,40.8344444 C33.5338889,40.7338889 33.3305556,40.6311111 33.5338889,40.6311111 C35.6677778,41.1388889 37.1883333,42.255 38.405,43.9766667 C39.2144444,45.1933333 39.7244444,46.6133333 40.1316667,48.3355556 C40.23,48.8433333 40.4383333,49.7583333 40.23,50.06 C40.0288889,50.3661111 39.4205556,50.3661111 38.9127778,50.4666667 C35.565,50.8694444 32.2144444,51.2761111 28.8666667,51.7861111 C29.0677778,53.1011111 29.2738889,54.22 29.5755556,55.3333333 C29.9827778,56.3444444 30.385,57.3588889 31.1994444,57.9677778 C31.5038889,58.1694444 31.9105556,58.3744444 32.3177778,58.3744444 C33.7405556,58.7772222 35.2583333,58.1694444 36.0705556,57.6638889 C37.0855556,56.9522222 37.6938889,55.7355556 37.8955556,54.3177778 C38.0033333,54.0138889 38.0033333,53.71 38.2044444,53.6116667 C38.4055556,53.4055556 39.1211111,53.4055556 39.6266667,53.3033333 C40.1322222,53.3033333 40.74,53.1016667 40.9438889,53.4055556 C41.2505556,53.6116667 41.145,54.4166667 41.0444444,54.9266667 C40.4383333,58.68 38.0027778,60.9116667 34.5516667,61.7161111 C32.3172222,62.2261111 29.7811111,62.0255556 27.8527778,61.5194444 C25.925,60.9116667 24.5027778,59.7972222 23.3844444,58.375 C21.765,56.345 20.6472222,53.4055556 20.9511111,49.6527778 C21.2527778,46.3094444 22.6733333,43.9766667 24.9094444,42.3555556 C26.1261111,41.4405556 27.7472222,40.7338889 29.6777778,40.4277778 C29.9816667,40.4277778 30.2861111,40.3272222 30.5922222,40.3272222 L30.6927778,40.3272222 C30.7955556,40.4277778 30.7955556,40.4277778 30.8938889,40.4277778 C30.9972222,40.4277778 30.9972222,40.3266667 31.0983333,40.3266667 L31.0983333,40.3266667 L31.0983333,40.3266667 Z M31.8116667,41.0355556 L31.8116667,41.0355556 C31.91,41.1388889 31.91,41.2388889 32.1155556,41.1388889 C32.1155556,41.0355556 31.91,40.935 31.8116667,41.0355556 L31.8116667,41.0355556 L31.8116667,41.0355556 Z M31.1983333,43.6722222 L31.1983333,43.6722222 C30.8944444,43.4688889 30.4922222,43.4688889 30.08,43.5716667 C27.9505556,43.7727778 28.1566667,46.7138889 28.5616667,48.7422222 C29.8788889,48.5383333 31.4016667,48.4377778 32.7216667,48.2344444 C32.4194444,46.5105556 32.4194444,44.2811111 31.1983333,43.6722222 L31.1983333,43.6722222 L31.1983333,43.6722222 Z" id="Shape"></path>
                <path d="M12.7316667,47.5261111 C11.8166667,47.83 11.7161111,49.1494444 11.6127778,50.2611111 C11.5144444,53.0038889 11.9172222,55.1272222 12.2238889,57.4622222 C12.3272222,58.2716667 12.425,60.3027778 13.0355556,60.6022222 C13.4405556,60.8083333 13.8477778,60.8083333 14.3527778,60.8083333 C14.8627778,60.705 15.3683333,60.6022222 15.7755556,60.705 C16.0772222,60.9111111 16.0772222,61.4155556 16.1827778,61.9211111 C16.1827778,62.3238889 16.3838889,63.1372222 16.1827778,63.4422222 C15.9766667,63.5455556 15.2705556,63.6427778 14.8633333,63.7461111 C11.6133333,64.1527778 7.96166667,64.56 4.81944444,64.9622222 C4.61611111,65.0655556 4.71611111,64.8588889 4.71611111,64.8588889 C4.61555556,64.7611111 4.515,64.7611111 4.40722222,64.8588889 C4.40722222,64.5594444 4.20833333,64.5594444 4.20833333,64.3544444 C4.10333333,64.1527778 4.00722222,64.1527778 3.80166667,64.0494444 C3.80166667,63.8488889 4.00777778,63.9516667 3.90222222,63.8488889 C3.59833333,63.545 3.19555556,63.545 3.19555556,63.1372222 C3.09055556,62.9366667 2.78611111,63.1372222 2.78611111,62.9366667 C2.68333333,62.1272222 3.49722222,62.3233333 4.20888889,62.1272222 C4.82,61.9211111 5.325,61.715 5.325,60.9111111 C5.325,60.4055556 5.22222222,59.7966667 5.12111111,59.1838889 C4.71611111,55.9416667 4.40777778,52.7972222 3.90222222,49.4511111 C3.80166667,48.7422222 3.70111111,47.9305556 3.19555556,47.7266667 C2.48222222,47.425 1.46666667,47.83 1.06388889,47.5255556 C0.76,47.425 0.76,46.9172222 0.652222222,46.4094444 C0.652222222,46.0044444 0.451111111,45.3938889 0.553888889,45.0922222 C0.652222222,44.8883333 1.06388889,44.7855556 1.56944444,44.685 C4.10333333,44.3811111 6.23444444,43.9761111 8.57444444,43.3677778 C8.87611111,43.2672222 9.38166667,43.0661111 9.68777778,43.1666667 C9.98944444,43.2672222 9.98944444,43.9766667 10.095,44.4838889 C10.1933333,45.0922222 10.2961111,45.4972222 10.2961111,46.105 C10.3988889,46.105 10.4972222,45.9016667 10.4972222,45.8011111 C11.0072222,45.0922222 11.4122222,44.4838889 12.1211111,43.8755556 C12.9305556,43.2672222 13.745,42.7594444 15.0666667,42.7594444 C15.2705556,42.6588889 15.3683333,42.6588889 15.5722222,42.7594444 C17.9094444,42.8622222 19.5311111,44.4838889 19.6294444,46.7133333 C19.7322222,47.7261111 19.3277778,48.7416667 18.6161111,49.4505556 C17.5,50.5666667 14.7605556,50.9738889 13.5438889,49.7572222 C13.0355556,49.25 12.8344444,48.6422222 12.7316667,47.5261111 L12.7316667,47.5261111 L12.7316667,47.5261111 Z" id="Shape"></path>
                <path d="M107.31,63.9533333 C107.31,64.0511111 107.207222,63.9533333 107.108889,63.9533333 C107.108889,64.1538889 107.207778,64.2527778 107.108889,64.4588889 C107.108889,64.6594444 107.516111,64.6594444 107.413333,64.8605556 C107.207778,65.17 106.908333,64.9638889 106.603889,64.7627778 C106.496111,64.6594444 106.402778,64.4588889 106.196667,64.4588889 C106.093889,64.5611111 106.3,64.7627778 106.196667,64.8605556 C106.3,65.0666667 106.402778,65.17 106.402778,65.4694444 C106.402778,65.6755556 106.196667,65.4694444 106.093889,65.4694444 C106.196667,65.6755556 106.402778,65.8761111 106.805,65.8761111 C106.908333,65.9794444 107.108889,66.0777778 107.207778,66.2827778 C107.413333,66.3861111 107.516667,66.4888889 107.722222,66.5877778 C108.125,70.2327778 108.630556,73.7838889 109.140556,77.4338889 C109.444444,77.0272222 109.743889,76.5211111 110.155556,76.0155556 C110.866667,75.1027778 111.568889,74.2933333 112.186111,73.2788889 C112.382778,72.9738889 113.098889,72.16 112.897778,71.5516667 C112.897778,71.1488889 112.186111,70.9438889 111.681111,70.9438889 C111.166111,70.845 110.661111,70.9438889 110.361667,70.6444444 C110.155556,70.4383333 110.249444,69.9327778 110.155556,69.6233333 C110.155556,69.3238889 110.052778,68.9222222 110.155556,68.51 C110.361667,68.2061111 110.866667,68.2061111 111.475556,68.1072222 C114.114444,67.8033333 116.95,67.3966667 119.496111,67.0972222 C119.692778,67.195 119.29,67.2938889 119.29,67.3966667 C119.388333,67.705 119.795556,67.705 119.589444,68.1072222 C119.692778,68.3133333 119.898333,68.4122222 120.197778,68.4122222 C120.403889,68.7161111 120.811111,68.9222222 121.213333,69.1183333 C121.316667,69.1183333 121.213333,68.9216667 121.414444,68.9216667 C121.517778,68.9216667 121.414444,69.0194444 121.517778,69.1183333 C121.517778,69.2216667 121.826667,69.0194444 121.723333,69.2216667 C121.723333,69.6233333 121.517778,69.2216667 121.414444,69.4222222 C121.213333,69.5255556 121.62,69.5255556 121.517778,69.6227778 C121.115,69.8288889 120.707778,69.8288889 120.305556,69.9322222 C119.187222,70.2316667 118.372778,70.845 117.661667,71.6544444 C116.753333,72.67 115.939444,73.7833333 115.125556,74.9022222 C117.156111,77.2327778 119.187778,79.7688889 121.316667,82.2016667 C121.93,82.9088889 122.743333,83.9238889 123.754444,84.1255556 C124.161667,84.2288889 124.868333,84.1255556 125.074444,84.4294444 C125.271111,84.5327778 125.271111,85.0383333 125.383333,85.445 C125.476667,86.0538889 125.58,86.6611111 125.383333,86.9661111 C125.172778,87.0683333 124.568889,87.1666667 124.063333,87.2655556 C121.317222,87.5738889 118.682222,87.8733333 115.837222,88.2855556 C115.228889,88.3833333 114.311667,88.6883333 114.115,88.1822222 C114.007778,87.8727778 114.007778,87.4705556 113.908889,87.1666667 C113.806111,86.5577778 113.609444,85.8516667 114.007778,85.6455556 C114.418889,85.445 114.924444,85.5433333 115.327222,85.2438889 C114.723333,84.2283333 113.806667,83.4188889 113.099444,82.6038889 C112.383889,81.7944444 111.569444,80.8816667 110.867222,80.0683333 C110.460556,80.475 110.053333,80.985 109.646111,81.4911111 C109.744444,82.6044444 109.847222,83.7188889 110.053333,84.7333333 C110.156111,85.1411111 110.25,85.5438889 110.46,85.6461111 C110.866667,86.0538889 112.186111,85.5438889 112.485556,86.1516667 C112.588889,86.3577778 112.588889,86.8633333 112.588889,87.1672222 C112.692222,87.7761111 112.898333,88.2861111 112.588889,88.5855556 C112.383333,88.7905556 111.681111,88.7905556 111.166111,88.8938889 C108.227778,89.2966667 105.485556,89.6 102.537778,90.0083333 C101.928889,90.1116667 101.021667,90.4111111 100.717778,90.0083333 C100.516667,89.8022222 100.516667,89.3994444 100.413333,88.9927778 C100.413333,88.3838889 100.104444,87.7766667 100.413333,87.4716667 C100.61,87.2666667 101.222778,87.2666667 101.629444,87.1677778 C102.341111,86.9672222 102.846111,86.7611111 102.846111,85.8527778 C102.846111,85.0388889 102.649444,84.2294444 102.537222,83.3172222 C101.928333,78.5538889 101.222222,73.5838889 100.608889,68.6144444 C100.515556,67.7061111 100.412222,66.49 100.000556,66.1816667 C99.1961111,65.6761111 97.8761111,66.2838889 97.4644444,65.7788889 C97.3616667,65.5727778 97.3616667,65.17 97.2677778,64.7633333 C97.1644444,64.1544444 97.0622222,63.6444444 97.2677778,63.345 C97.4644444,63.1388889 97.9738889,63.0366667 98.3816667,63.0366667 C100.917778,62.7372222 103.248333,62.2261111 105.382222,61.6183333 C105.686111,61.5194444 106.093333,61.3144444 106.402222,61.3144444 C107.108333,61.3144444 107.108333,62.025 107.207222,62.6338889 C107.207778,63.1383333 107.31,63.4433333 107.31,63.9533333 L107.31,63.9533333 L107.31,63.9533333 Z M106.603889,64.4588889 L106.603889,64.4588889 C106.805,64.4588889 106.805,64.3555556 106.805,64.1538889 L106.603889,64.1538889 C106.701667,64.2527778 106.603889,64.3555556 106.603889,64.4588889 L106.603889,64.4588889 L106.603889,64.4588889 Z M106.093889,64.4588889 L106.093889,64.4588889 C106.093889,64.2527778 105.887778,64.2527778 105.794444,64.2527778 C105.887778,64.3555556 105.887778,64.4588889 106.093889,64.4588889 L106.093889,64.4588889 L106.093889,64.4588889 Z" id="Shape"></path>
                <path d="M28.1572222,80.7794444 C28.1572222,80.7794444 27.9511111,80.8827778 27.9511111,80.7794444 C27.8527778,80.6772222 27.9511111,80.6772222 28.0544444,80.6772222 C28.0544444,80.5783333 28.0544444,80.4755556 27.9511111,80.2744444 C28.2555556,80.2744444 28.3605556,80.0683333 28.4611111,80.1711111 C28.5616667,79.9694444 28.665,79.8661111 28.8661111,79.7683333 C29.0672222,79.8661111 29.1727778,79.7683333 29.4766667,79.7683333 C29.575,79.665 29.3733333,79.4588889 29.6777778,79.4588889 C29.6777778,79.2583333 29.3733333,79.2583333 29.2727778,79.1594444 C29.1722222,78.9544444 29.0666667,78.5516667 29.2727778,78.4488889 C29.1722222,78.2427778 28.9661111,78.145 28.7605556,78.145 C28.665,77.9433333 28.4611111,77.84 28.3605556,77.7372222 C28.3605556,77.4333333 27.9511111,77.4333333 27.9511111,77.0266667 C27.6472222,77.0266667 27.5461111,77.0266667 27.4433333,76.83 C27.2422222,76.2211111 27.2422222,75.6127778 26.7366667,75.4072222 C26.1261111,75.2011111 25.1105556,75.6122222 24.6055556,75.4072222 C24.3016667,75.3038889 24.3016667,74.7983333 24.1983333,74.0877778 C24.1,73.4788889 23.9927778,72.8705556 24.3994444,72.6694444 C24.6055556,72.5661111 25.1105556,72.4677778 25.5177778,72.4677778 C27.9505556,72.1594444 30.1827778,71.6538889 32.4194444,71.045 C32.9272222,70.9427778 33.5333333,70.5405556 33.835,70.9427778 C33.94,71.1477778 34.0388889,71.5505556 34.0388889,71.9572222 C34.3477778,74.3955556 34.6494444,76.8294444 35.0566667,79.2577778 C36.575,77.8394444 38.6088889,76.52 41.8583333,76.7222222 C44.6983333,76.8294444 46.83,78.4483333 48.25,80.1705556 C48.9588889,81.1861111 49.4666667,82.2994444 49.8733333,83.5155556 C50.4794444,85.2427778 50.7861111,86.965 50.6855556,89.2944444 C50.5844444,92.135 49.4666667,94.2638889 47.9477778,95.78 C47.1361111,96.595 46.2188889,97.2027778 45.1005556,97.605 C43.58,98.2138889 41.9561111,98.625 39.8266667,98.5216667 C38.7083333,98.4183333 37.59,98.115 36.7827778,97.7077778 C35.8683333,97.305 35.0561111,96.7994444 34.3472222,96.1916667 C33.94,96.9955556 33.5327778,97.9138889 33.1283333,98.8261111 C33.0277778,99.13 32.8216667,99.5322222 32.6205556,99.6355556 C32.4194444,99.7388889 32.0122222,99.7388889 31.7033333,99.7388889 C31.1977778,99.8411111 30.7955556,99.9394444 30.4916667,99.7388889 C30.2855556,99.5327778 30.2855556,99.0272222 30.1827778,98.6244444 C29.4761111,92.8411111 28.6644444,86.6594444 27.9505556,80.9833333 C27.9505556,81.185 28.255,81.185 28.4605556,80.9833333 C28.3605556,80.9855556 28.255,80.8822222 28.1572222,80.7794444 L28.1572222,80.7794444 L28.1572222,80.7794444 Z M29.6777778,79.0572222 L29.6777778,79.0572222 C29.5744444,79.0572222 29.5744444,78.955 29.4766667,78.955 C29.4766667,79.0572222 29.5744444,79.1605556 29.6777778,79.0572222 L29.6777778,79.0572222 L29.6777778,79.0572222 Z M28.3605556,80.6772222 L28.3605556,80.6772222 C28.5616667,80.6772222 28.665,80.5783333 28.665,80.4755556 C28.5616667,80.3777778 28.4611111,80.275 28.2555556,80.3777778 C28.255,80.4755556 28.3605556,80.5788889 28.3605556,80.6772222 L28.3605556,80.6772222 L28.3605556,80.6772222 Z M38.5072222,80.5788889 L38.5072222,80.5788889 C35.3627778,80.7794444 35.8683333,85.3422222 36.175,88.2861111 C36.4766667,90.4105556 36.8838889,92.9466667 37.8944444,94.1627778 C38.1027778,94.4666667 38.5072222,94.7716667 38.8116667,94.9766667 C39.6255556,95.3794444 41.0438889,95.2816667 41.8577778,94.8744444 C43.58,93.76 43.1772222,89.905 42.8727778,87.5738889 C42.6672222,86.4605556 42.4638889,85.2444444 42.2622222,84.3261111 C41.8572222,82.9088889 41.2488889,81.0883333 39.7238889,80.6772222 C39.42,80.5788889 38.8116667,80.5788889 38.5072222,80.5788889 L38.5072222,80.5788889 L38.5072222,80.5788889 L38.5072222,80.5788889 Z" id="Shape"></path>
                <path d="M75.4438889,93.0494444 C75.4438889,92.8433333 75.5472222,92.8433333 75.4438889,92.5438889 C75.3455556,92.5438889 75.3455556,92.2344444 75.3455556,92.1372222 C75.2472222,91.7305556 75.1444444,91.0183333 75.3455556,90.7188889 C75.5466667,90.5127778 76.2583333,90.4105556 76.5666667,90.3077778 C76.9694444,90.2088889 77.3766667,90.1111111 77.5772222,89.8022222 C77.7833333,89.3994444 77.6805556,88.6888889 77.6805556,88.08 C77.2688889,84.9355556 76.9694444,82.4038889 76.4594444,79.2594444 C76.3611111,78.3466667 76.3611111,76.5216667 75.7527778,76.115 C75.1444444,75.7122222 73.9283333,76.115 73.4183333,75.8111111 C73.1138889,75.7122222 73.1138889,75.2022222 73.1138889,74.6966667 C73.0105556,74.2938889 72.9077778,73.6866667 73.0105556,73.3772222 C73.1138889,73.1766667 73.5161111,73.0777778 73.9277778,72.9744444 C76.5666667,72.6705556 78.6911111,72.2638889 80.9283333,71.655 C81.2277778,71.5516667 81.7422222,71.3511111 82.0416667,71.4544444 C82.4444444,71.5522222 82.4444444,72.2638889 82.5472222,72.7683333 C82.5472222,73.2794444 82.6505556,73.7838889 82.6505556,74.2938889 C84.0733333,72.3666667 86.0005556,70.9444444 89.145,70.8455556 C91.1755556,70.645 92.7011111,71.3511111 93.7122222,72.4688889 C95.7427778,74.5933333 96.0422222,78.45 96.455,82.1 C96.6605556,83.4194444 96.7544444,84.9355556 97.0633333,86.255 C97.1661111,86.7605556 97.2688889,87.2661111 97.6716667,87.4711111 C97.8772222,87.5744444 98.28,87.5744444 98.6822222,87.4711111 C99.0938889,87.4711111 99.5988889,87.4711111 99.8005556,87.5744444 C100.002222,87.6777778 100.105,88.1833333 100.105,88.7905556 C100.207778,89.2961111 100.413889,89.905 100.105,90.1111111 C100.001667,90.4105556 99.3983333,90.4105556 98.785,90.5127778 C95.7433333,90.9155556 92.7961111,91.3277778 89.7538889,91.73 C89.2488889,91.73 88.6405556,91.8333333 88.3311111,91.73 C88.0316667,91.5238889 88.0316667,91.0183333 88.0316667,90.5127778 C87.9288889,90.1111111 87.8261111,89.6 87.9288889,89.1933333 C88.2327778,88.6888889 89.5527778,88.8938889 89.7533333,88.2861111 C89.9594444,87.7761111 89.7533333,87.0688889 89.7533333,86.5588889 C89.3511111,83.8222222 88.9488889,80.9861111 88.64,78.3472222 C88.4338889,77.0277778 88.3305556,75.3055556 87.2172222,74.9033333 C86.3,74.6972222 85.0833333,75.4088889 84.7788889,75.9133333 C83.7633333,77.3316667 83.9694444,80.4761111 84.2738889,82.605 C84.3811111,84.1261111 84.6805556,85.8527778 84.8866667,87.5744444 C84.9805556,88.2861111 85.0833333,88.8938889 85.4955556,89.0905556 C86.0005556,89.2966667 86.815,88.8938889 87.2177778,89.1938889 C87.4233333,89.4 87.4233333,89.8027778 87.5216667,90.4111111 C87.6294444,90.9155556 87.7227778,91.5244444 87.5216667,91.8338889 C87.3211111,92.0344444 86.7122222,92.0344444 86.2022222,92.1377778 C83.1561111,92.5444444 80.32,92.9472222 77.3772222,93.2511111 C76.8666667,93.3544444 76.1555556,93.4527778 75.9544444,93.4527778 C75.7522222,93.3533333 75.65,93.1522222 75.4438889,93.0494444 L75.4438889,93.0494444 L75.4438889,93.0494444 Z M75.65,92.9461111 L75.65,92.9461111 L75.5466667,92.9461111 C75.5466667,93.0494444 75.65,93.0494444 75.65,92.9461111 L75.65,92.9461111 L75.65,92.9461111 Z" id="Shape"></path>
                <path d="M71.7938889,90.0077778 C72.505,89.9044444 71.9994444,89.09 72.505,88.7905556 C72.6077778,88.6883333 73.01,88.6883333 73.3194444,88.5855556 C74.0255556,88.4822222 74.7322222,88.2861111 74.8355556,89.09 C75.0416667,90.1111111 74.7322222,91.3272222 74.4327778,92.0338889 C74.3294444,92.0338889 74.2272222,92.0338889 74.2272222,91.935 C74.1238889,92.1366667 74.0261111,92.1366667 73.8244444,92.1366667 C73.9277778,92.4405556 74.3294444,92.4405556 74.1238889,92.6422222 C74.0255556,92.7444444 73.8244444,92.6422222 73.7211111,92.4405556 C73.6183333,92.5438889 73.5155556,92.6422222 73.4172222,92.6422222 C73.2161111,92.4405556 73.01,92.3372222 72.8038889,92.1366667 C72.7005556,92.1366667 72.6072222,92.2344444 72.6072222,92.3372222 C72.5044444,92.2338889 72.4016667,92.1366667 72.2983333,92.0333333 C72.0972222,92.0333333 72.1955556,91.8327778 71.9988889,91.8327778 C71.7933333,91.935 71.9988889,92.0333333 71.9988889,92.2344444 C71.8866667,92.7444444 71.4888889,92.5438889 71.0822222,92.3377778 C70.9838889,92.2344444 70.9838889,92.0338889 70.78,92.0338889 C70.5722222,92.2344444 70.9838889,92.3377778 71.0822222,92.6427778 C71.1855556,92.6427778 71.3816667,92.6427778 71.3816667,92.745 C71.3816667,92.9466667 71.185,92.9466667 71.0822222,93.05 C70.8766667,93.1533333 70.9838889,92.9466667 70.78,92.9466667 C70.78,93.1527778 71.185,93.3533333 71.3816667,93.3533333 C71.4888889,93.5538889 71.2877778,93.4522222 71.2877778,93.6572222 C71.3816667,93.8588889 71.6905556,93.8588889 71.7933333,94.06 C71.9988889,93.9622222 72.1961111,94.06 72.1961111,94.1633333 C71.9994444,94.4672222 71.5872222,94.4672222 71.1855556,94.57 C70.5722222,94.6688889 69.8661111,94.875 68.9488889,94.7716667 C67.2288889,94.6683333 66.0077778,93.8588889 65.1933333,92.745 L65.095,92.6427778 C64.9922222,92.6427778 64.5872222,93.1527778 64.4866667,93.2505556 C63.8761111,93.9622222 63.0622222,94.57 62.355,95.0755556 C61.1361111,95.7816667 59.4144444,96.3905556 57.3833333,96.2916667 C55.8605556,96.1938889 54.6461111,95.5855556 53.8316667,94.7716667 C52.9144444,93.8588889 52.3083333,92.6427778 52.4088889,91.0183333 C52.4088889,89.5022222 53.12,88.2861111 53.8316667,87.3683333 C54.6461111,86.4611111 55.5516667,85.6461111 56.5688889,85.0388889 C58.6,83.6161111 60.9322222,82.5022222 63.27,81.4916667 C63.0616667,79.3627778 62.8605556,77.3316667 60.3244444,77.4344444 C59.6155556,77.4344444 58.9044444,77.635 58.2961111,77.9444444 C58.095,78.0433333 57.7861111,78.1461111 57.7861111,78.2438889 C57.7861111,78.2438889 58.1955556,78.5533333 58.2961111,78.6505556 C58.7011111,79.1605556 59.1055556,79.97 59.0072222,80.8827778 C58.9044444,82.5016667 57.2805556,83.6161111 55.2494444,83.4194444 C53.4244444,83.3161111 52.4094444,82.1 52.3088889,80.275 C52.2083333,79.0577778 52.8144444,78.0427778 53.425,77.3311111 C55.1516667,75.2022222 58.6005556,74.1911111 61.9505556,73.9861111 C65.2961111,73.8872222 68.2422222,74.8 69.4611111,76.8311111 C69.8661111,77.4344444 70.0672222,78.2438889 70.2705556,79.1605556 C70.5727778,80.7794444 70.7805556,82.7077778 70.9844444,84.6355556 C71.1855556,85.9505556 71.3822222,87.3677778 71.5877778,88.7905556 C71.5877778,89.1927778 71.5877778,89.6988889 71.7938889,90.0077778 L71.7938889,90.0077778 L71.7938889,90.0077778 Z M62.9688889,85.0383333 L62.9688889,85.0383333 C62.2527778,85.445 61.5444444,85.8522222 60.9333333,86.2544444 C60.225,86.8633333 59.3072222,87.7755556 59.1061111,88.6883333 C59.0077778,89.5022222 59.2138889,90.3072222 59.5155556,90.7183333 C59.7188889,91.0177778 60.1216667,91.3272222 60.5333333,91.4244444 C61.6422222,91.7294444 62.7605556,91.0177778 63.2705556,90.41 C64.1805556,89.0894444 63.9794444,86.4605556 63.6755556,84.635 C63.575,84.5327778 63.1677778,84.8366667 62.9688889,85.0383333 L62.9688889,85.0383333 L62.9688889,85.0383333 Z M71.3822222,91.73 L71.3822222,91.73 L71.3822222,91.935 C71.4894444,91.8327778 71.5877778,91.8327778 71.5877778,91.6266667 C71.49,91.6266667 71.3822222,91.6266667 71.3822222,91.73 L71.3822222,91.73 L71.3822222,91.73 Z M71.6911111,94.1627778 L71.6911111,94.1627778 C71.6911111,94.1627778 71.6911111,94.2661111 71.7944444,94.2661111 C71.7944444,94.1627778 71.7944444,94.1627778 71.6911111,94.06 L71.6911111,94.1627778 L71.6911111,94.1627778 L71.6911111,94.1627778 Z" id="Shape"></path>
                <path id="Shape"></path>
            </g>
        </g>
    </g>
</svg>