<?xml version="1.0" encoding="UTF-8" standalone="no"?>
<svg width="200px" height="150px" viewBox="0 0 200 150" version="1.1" xmlns="http://www.w3.org/2000/svg" xmlns:xlink="http://www.w3.org/1999/xlink">
    <!-- Generator: Sketch 3.7.2 (28276) - http://www.bohemiancoding.com/sketch -->
    <title>receipt_bank_logo</title>
    <desc>Created with Sketch.</desc>
    <defs></defs>
    <g id="Page-1" stroke="none" stroke-width="1" fill="none" fill-rule="evenodd">
        <g id="receipt_bank_logo" fill="#EF6625">
            <g id="orange" transform="translate(34.000000, 24.000000)">
                <g id="Group">
                    <path d="M112.124829,13.8944 C111.357032,16.6213333 110.580757,19.2469333 109.705924,21.8768 C105.260757,20.7088 100.801813,19.5408 96.3524064,18.3706667 C96.5442231,18.2741333 96.1563506,18.1749333 96.0625618,18.0784 C96.1563506,17.9818667 96.1563506,17.7866667 96.0625618,17.6896 C96.1563506,17.3978667 95.870745,17.1056 95.6699203,16.9125333 C95.7721873,16.9125333 95.870745,16.8133333 95.870745,16.7173333 C95.9597649,16.7173333 96.0625618,16.8138667 96.1563506,16.8138667 C96.2549084,16.8138667 96.3524064,16.7173333 96.4419562,16.7173333 C96.638012,16.7173333 96.8345976,16.9125333 97.0306534,16.7173333 C97.0306534,16.6208 96.7360398,16.6208 96.638012,16.5242667 C96.5442231,16.4250667 96.4419562,16.3264 96.4419562,16.1333333 C96.3524064,16.0368 96.2543785,16.1333333 96.1563506,16.1333333 C96.1563506,15.9381333 95.9597649,15.9381333 95.870745,15.7424 C95.9597649,15.7424 96.0625618,15.8416 96.1563506,15.7424 C96.0625618,15.7424 96.1563506,15.6458667 96.1563506,15.5472 C96.1563506,15.3541333 95.9597649,15.6458667 95.9597649,15.5472 C95.870745,15.5472 95.870745,15.4528 95.870745,15.3541333 C95.870745,15.2576 95.9597649,15.3541333 96.1563506,15.3541333 C96.0625618,15.1589333 96.0625618,15.0624 95.870745,14.9632 C95.870745,14.8688 95.7721873,14.7701333 95.6699203,14.6736 C95.4781036,14.6736 95.4781036,14.5744 95.3795458,14.5744 C95.285757,14.6736 95.285757,14.7701333 95.285757,14.7701333 C95.285757,15.0618667 95.5756016,15.2576 95.6699203,15.3541333 C95.5756016,15.5472 95.3795458,15.2576 95.1877291,15.3541333 C95.1877291,15.5472 95.2862869,15.7429333 94.9959124,15.8416 C94.8978845,15.7424 94.9959124,15.6458667 94.9959124,15.5472 C94.9959124,15.4528 94.8040956,15.3541333 94.8040956,15.2576 C94.8040956,15.1589333 94.514251,15.0624 94.4162231,14.8688 C94.0320598,14.8688 93.836004,14.5744 93.4476016,14.5744 C93.4476016,14.6736 93.4476016,14.8688 93.3538127,14.9632 C93.2557849,15.1589333 93.4476016,15.1589333 93.4476016,15.2576 C93.2563147,15.2576 93.3538127,15.4533333 93.3538127,15.4533333 C93.2557849,15.4533333 93.0591992,15.4533333 92.9611713,15.3541333 C92.6755657,15.1589333 92.6755657,14.8688 92.47951,14.9632 C92.2834542,14.9632 92.2834542,15.0624 92.1939044,15.2576 C92.1939044,15.5472 92.5780677,15.4533333 92.5780677,15.7429333 C92.47951,15.9386667 92.1939044,15.9386667 92.0868685,16.1338667 C91.8992908,16.0373333 91.8992908,16.3269333 91.6046773,16.2304 C91.7032351,16.6213333 92.1939044,16.6213333 92.47951,16.9130667 C92.3809522,17.1061333 92.3809522,17.3018667 92.47951,17.3984 C87.5436733,16.1338667 82.7053347,14.8693333 77.6709402,13.6026667 C73.1187371,12.4346667 68.566004,11.0736 63.9269004,9.9056 C63.538498,9.80693333 63.1522151,9.7104 62.9582789,9.7104 C62.7664622,9.7104 62.4718486,10.0021333 62.1814741,10.1957333 C53.9561394,14.9637333 45.6327769,19.6384 37.4026733,24.4069333 C37.0190398,24.2138667 36.4388207,24.016 35.9523904,24.2138667 C35.8543625,24.3104 35.9523904,24.4069333 35.8543625,24.4069333 L35.4701992,24.4069333 C35.2762629,24.4069333 35.2762629,24.7013333 34.988008,24.6 C34.8852112,24.6 35.0839163,24.7008 34.988008,24.7978667 C34.7914223,24.7978667 34.7914223,24.9909333 34.5953665,24.9909333 C34.5042271,25.0901333 34.5042271,25.184 34.309761,25.2832 C34.1131753,25.2832 33.9213586,25.0901333 33.6288645,25.0901333 C33.5329562,25.2832 33.9213586,25.3797333 34.0193865,25.3797333 C34.0193865,25.7685333 34.1131753,25.8672 34.3092311,26.0624 C34.0193865,26.0624 34.0193865,26.2554667 34.0193865,26.3546667 C29.0835498,29.176 24.1424143,32.0981333 19.1127888,34.9189333 C17.8543227,32.5829333 16.6917649,30.2469333 15.4354183,27.8144 C15.2388327,27.6186667 14.8530797,27.0352 14.948988,26.7429333 C14.948988,26.6464 15.6272351,26.2554667 15.9176096,26.1589333 C18.2406056,24.8944 20.4655737,23.6298667 22.6926614,22.3632 C29.951494,18.2752 37.0190398,14.2864 44.182494,10.1962667 C44.7627131,9.80746667 45.4409602,9.41866667 46.1170876,9.1248 C46.1170876,9.32266667 46.2151155,9.5152 46.4069323,9.61226667 C46.598749,9.61226667 46.598749,9.4192 46.6967769,9.4192 C46.8885936,9.32266667 46.9892709,9.4192 47.0872988,9.32266667 C47.2812351,9.4192 47.4735817,9.61226667 47.7634263,9.61226667 C47.8593347,9.808 48.0559203,9.90666667 48.1470598,10.0032 C48.2472072,10.0997333 48.3436454,9.90666667 48.4395538,10.0997333 C48.6313705,10.0032 48.6313705,9.808 48.7299283,9.71093333 C48.8258367,9.71093333 48.8258367,9.80746667 48.921745,9.80746667 C49.1178008,9.80746667 49.1178008,9.5152 49.3143865,9.5152 C49.4034064,9.41866667 49.4034064,9.32213333 49.5062032,9.1248 C49.4034064,8.93173333 49.1178008,8.93173333 49.1178008,8.63946667 C49.0197729,8.63946667 48.8253068,8.54026667 48.8253068,8.4464 C48.7293984,8.3472 48.921745,8.3472 48.921745,8.25066667 C48.5375817,8.25066667 48.5375817,7.7632 48.5375817,7.7632 C48.6313705,7.57013333 49.0197729,7.37226667 49.3143865,7.1792 C51.2463307,6.10773333 53.2794821,4.93973333 55.2146056,3.87093333 C57.63351,2.5072 59.8605976,1.3392 61.8958685,0.0752 C78.6337331,4.6496 95.3795458,9.3216 112.124829,13.8944 L112.124829,13.8944 L112.124829,13.8944 Z M48.3431155,10.0986667 L48.3431155,10.0986667 C48.3431155,10.1952 48.4390239,10.2938667 48.4390239,10.3904 C48.4390239,10.2938667 48.5375817,10.1952 48.6308406,10.0986667 L48.3431155,10.0986667 L48.3431155,10.0986667 L48.3431155,10.0986667 Z M92.8626135,14.9637333 L92.8626135,14.9637333 C92.9606414,14.9637333 92.9606414,15.0629333 92.9606414,15.0629333 C93.1572271,15.0629333 93.3532829,14.8698667 93.2557849,14.6741333 C92.9606414,14.4784 92.7730637,14.7706667 92.8626135,14.9637333 L92.8626135,14.9637333 L92.8626135,14.9637333 Z M98.1916215,17.3018667 L98.1916215,17.3018667 L98.2896494,17.3018667 C98.2896494,17.2032 98.2896494,17.2032 98.1916215,17.2032 C98.1916215,17.2032 98.0930637,17.3018667 98.1916215,17.3018667 L98.1916215,17.3018667 L98.1916215,17.3018667 Z M98.9636574,17.9824 L98.9636574,17.9824 C99.1644821,17.8858667 99.4500876,17.8858667 99.4500876,18.0789333 C99.2540319,17.9824 99.1644821,18.0789333 99.0574462,18.1754667 C98.9636574,18.0789333 98.9636574,17.9824 98.8698685,17.9824 C98.8698685,17.9824 98.6732829,17.9824 98.7713108,18.0789333 C98.7713108,18.0789333 98.7713108,18.1754667 98.8698685,18.2746667 C99.0574462,18.3712 99.1644821,18.3712 99.3515299,18.2746667 C99.4500876,18.2746667 99.4500876,18.3712 99.5481155,18.3712 C99.6461434,18.2746667 99.5481155,18.1754667 99.5481155,17.9824 C99.5481155,17.8858667 99.4495578,17.8858667 99.4495578,17.7872 C99.5481155,17.3984 99.1639522,17.4954667 99.1639522,17.2032 C98.7713108,17.2032 98.8698685,17.6901333 98.9636574,17.9824 L98.9636574,17.9824 L98.9636574,17.9824 Z M97.316259,17.3984 L97.316259,17.3984 C97.4148167,17.4949333 97.6114024,17.5936 97.5128446,17.7872 C97.6114024,17.8864 97.7089004,17.8864 97.9054861,17.9824 C97.994506,17.9824 98.0930637,17.8858667 98.1910916,17.7872 C97.994506,17.6906667 97.6108725,17.6906667 97.5128446,17.4954667 C97.5128446,17.3989333 97.6114024,17.3024 97.5128446,17.3024 C97.4142869,17.3024 97.4148167,17.3984 97.316259,17.3984 L97.316259,17.3984 L97.316259,17.3984 Z M97.9950359,18.3712 L97.9950359,18.3712 L97.9950359,18.5664 C98.2896494,18.5664 98.2896494,18.7594667 98.3876773,18.7594667 C98.575255,18.7594667 98.7718406,18.8581333 98.7718406,18.6629333 C98.6732829,18.6629333 98.575255,18.6629333 98.575255,18.4698667 C98.7718406,18.4698667 98.8703984,18.6629333 98.8703984,18.7594667 C98.9641873,18.7594667 98.9641873,18.6629333 99.0579761,18.5664 C98.8703984,18.5664 98.7723705,18.4698667 98.7723705,18.3712 C98.4772271,18.2746667 98.2891195,18.4698667 97.9950359,18.3712 L97.9950359,18.3712 L97.9950359,18.3712 Z M99.7356932,18.9552 L99.7356932,18.9552 L99.7356932,18.8586667 L99.6461434,18.8586667 C99.5481155,18.9552 99.7356932,19.0538667 99.7356932,18.9552 L99.7356932,18.9552 L99.7356932,18.9552 Z" id="Shape"></path>
                    <path id="Shape"></path>
                    <path id="Shape"></path>
                    <path id="Shape"></path>
                    <path id="Shape"></path>
                    <path id="Shape"></path>
                    <path id="Shape"></path>
                    <path id="Shape"></path>
                    <path id="Shape"></path>
                    <path d="M96.2543785,18.4190516 C96.1558207,18.4190516 95.8702151,18.312302 95.6693904,18.312302 C95.4775737,18.2026035 95.1871992,18.2026035 95.2852271,17.9891043 C95.7721873,17.7732459 96.0625618,18.0958539 96.2543785,18.4190516 L96.2543785,18.4190516 L96.2543785,18.4190516 Z" id="Shape"></path>
                    <path d="M129.744944,27.1328 C129.843502,26.9376 129.646916,26.7424 129.646916,26.6453333 C129.936761,26.7418667 129.936761,27.1328 130.324633,27.0341333 C130.324633,27.7168 130.806825,28.4938667 130.324633,28.8848 C130.128578,29.0778667 129.646916,29.0778667 129.262753,29.1744 C128.004287,29.3696 126.549235,29.4682667 125.486825,29.6618667 C125.870988,32.6805333 126.263629,35.6970667 126.647263,38.7136 C126.83855,39.7824 126.83855,40.8565333 127.227482,41.5365333 C127.522096,42.0218667 128.004287,42.2170667 128.677765,42.0218667 C129.744414,41.8288 130.128048,40.856 129.936231,39.4928 C129.936231,39.104 129.842442,38.6165333 130.128048,38.4213333 C130.324104,38.3248 130.806295,38.3248 131.198936,38.2256 C131.770147,38.2256 132.261347,37.936 132.64498,38.2256 C132.841036,38.3248 132.841036,38.8096 132.841036,39.1034667 C132.934825,39.4922667 132.934825,39.8810667 132.934825,40.1728 C133.028614,42.4096 132.359375,44.1642667 131.288486,45.1365333 C130.226076,46.3045333 128.289363,46.9850667 126.2631,47.0837333 C124.419645,47.1824 122.871335,46.5962667 121.906952,45.624 C121.130147,44.8448 120.549928,43.7754667 120.353343,42.6053333 C120.067737,41.3429333 119.969179,39.9797333 119.773124,38.6165333 C119.385251,35.8922667 119.094876,33.264 118.710713,30.5397333 C118.420869,30.5397333 118.032466,30.6362667 117.550805,30.6362667 C116.965817,30.7328 116.193781,30.9285333 115.997195,30.5397333 C115.899167,30.344 115.899167,29.8570667 115.801139,29.5648 C115.801139,29.0773333 115.609323,28.3968 115.899697,28.1050667 C115.997725,28.0064 116.292339,27.9098667 116.484155,27.9098667 C119.193434,26.7418667 120.648486,24.2128 121.322494,20.9989333 C121.424761,20.6101333 121.424761,20.2213333 121.710367,20.1253333 C121.906952,20.0261333 122.678988,19.9296 122.870805,19.9296 C122.968833,19.9296 122.968833,20.0261333 123.161179,20.0261333 C123.263446,20.0261333 123.161179,19.8309333 123.263446,19.8309333 C123.64761,19.8309333 124.030713,19.8309333 124.129271,20.0261333 C124.129271,20.1253333 123.937454,20.0261333 123.834657,20.0261333 C123.936924,20.2213333 124.129271,20.3178667 124.316319,20.2213333 C124.316319,20.5136 124.419116,20.8053333 124.419116,21.0976 C124.227299,20.9989333 124.128741,20.7088 124.316319,20.6101333 C124.227299,20.5136 124.227299,20.4144 124.030713,20.4144 C123.936924,20.4144 124.030713,20.5136 124.030713,20.6101333 C123.834657,20.6101333 123.745108,20.6101333 123.64708,20.7088 C123.64708,20.9018667 123.834657,20.9984 124.030713,20.9984 C124.129271,21.1936 124.316319,21.3888 124.517673,21.4858667 C124.70896,23.2378667 124.905546,25.0885333 125.191151,26.8384 C126.35106,26.6453333 127.609526,26.4496 128.775263,26.3530667 C128.775263,26.3530667 128.775263,26.4496 128.869052,26.4496 C129.065108,26.5461333 129.159426,26.8384 129.350713,27.0336 C129.548888,26.9376 129.647446,27.0341333 129.744944,27.1328 L129.744944,27.1328 L129.744944,27.1328 Z M123.162769,20.2218667 L123.162769,20.2218667 C123.162769,20.3184 123.265036,20.4149333 123.265036,20.5141333 C123.162769,20.5141333 123.162769,20.5141333 123.064211,20.6106667 C123.162769,20.7093333 123.265036,20.6106667 123.354056,20.6106667 C123.452614,20.3184 123.354056,20.3184 123.265036,20.1253333 C123.265036,20.2218667 123.162769,20.2218667 123.162769,20.2218667 L123.162769,20.2218667 L123.162769,20.2218667 Z" id="Shape"></path>
                    <path d="M84.6415179,23.7253333 C86.3816454,23.6288 87.5426135,24.3093333 88.1223028,25.3786667 C88.4169163,26.1578667 88.5064661,27.3258667 88.1223028,28.1056 C87.2474701,29.7610667 84.3463745,30.5402667 82.4096614,29.7610667 C81.4458088,29.3701333 80.4814263,28.3008 80.5709761,26.7424 C80.669004,26.0618667 80.9630876,25.3786667 81.347251,24.9904 C81.8294422,24.5050667 82.7042749,24.0154667 83.5791076,23.8224 C83.8647131,23.8224 84.2483466,23.7253333 84.6415179,23.7253333 L84.6415179,23.7253333 L84.6415179,23.7253333 Z" id="Shape"></path>
                    <path id="Shape"></path>
                    <path d="M103.324044,48.3514667 C103.515331,49.4186667 103.609649,50.3941333 103.805705,51.4666667 C103.805705,51.952 104.001761,52.4373333 104.287367,52.6341333 C104.577741,52.7290667 105.153721,52.8234667 105.64439,52.7290667 C106.126582,52.7290667 106.608773,52.6341333 106.804829,52.824 C107.099442,53.12 107.099442,53.6053333 107.188992,53.9957333 C107.188992,54.3861333 107.385048,54.872 107.188992,55.1632 C107.001414,55.456 106.323167,55.456 105.836207,55.5546667 C102.743295,56.0389333 99.6456135,56.4256 96.5442231,56.816 C96.0625618,56.816 95.1871992,57.0096 94.9953825,56.816 C94.7055378,56.7221333 94.7055378,56.1381333 94.611749,55.6485333 C94.5131912,55.1632 94.4151633,54.5797333 94.611749,54.3861333 C94.8030359,54.0901333 95.5750717,54.0901333 95.9592351,53.9957333 C96.2543785,53.8965333 96.7360398,53.704 96.8340677,53.3136 C97.0301235,52.7290667 96.8340677,51.5616 96.73551,50.7845333 C96.0620319,45.8176 95.4770438,40.9530667 94.8030359,35.9893333 C94.705008,35.1130667 94.5131912,34.1408 94.031,33.9450667 C93.7363865,33.8458667 93.352753,33.8458667 93.0581394,33.8458667 C92.6739761,33.8458667 92.2818645,33.9450667 91.996259,33.8458667 C91.7011155,33.6528 91.7011155,33.168 91.7011155,32.68 C91.6025578,32.2890667 91.5135378,31.7050667 91.6025578,31.4133333 C91.7011155,31.2202667 92.084749,31.1210667 92.5759482,31.0245333 C94.9943227,30.7322667 97.0295936,30.344 99.1634223,29.76 C99.5475857,29.6608 99.9306892,29.4677333 100.221064,29.6608 C100.801283,29.8565333 100.609466,31.1205333 100.801283,31.8037333 C100.9931,31.6058667 101.091657,31.4133333 101.287713,31.2197333 C102.448151,29.8565333 104.286837,28.7850667 106.804299,28.6885333 C108.446928,28.5893333 110.098036,29.0773333 111.160446,29.76 C112.320884,30.4405333 113.289506,31.4133333 113.972522,32.4842667 C115.418566,34.6245333 116.293398,38.032 115.900757,41.3429333 C115.610382,44.456 114.1601,46.9850667 111.937781,48.3504 C110.866892,49.0314667 109.322291,49.5168 107.680191,49.5168 C106.028554,49.5178667 104.577741,49.0325333 103.324044,48.3514667 L103.324044,48.3514667 L103.324044,48.3514667 Z M103.413064,33.168 L103.413064,33.168 C102.743295,33.5568 102.158837,34.3338667 101.96702,35.2096 C101.676645,36.5728 102.060809,37.9365333 102.158307,39.104 C102.350124,40.4650667 102.448681,42.0218667 102.743295,43.2885333 C103.0289,44.5530667 103.609649,45.4288 104.483952,45.9162667 C105.354546,46.4016 106.412187,46.4016 107.385048,45.8170667 C108.255641,45.2330667 108.8401,44.1642667 108.8401,42.6053333 C108.8401,41.9248 108.643514,40.952 108.545486,40.1728 C108.446928,39.3936 108.357908,38.6165333 108.255112,37.8368 C107.965267,35.5973333 107.679661,33.5557333 106.028024,32.8730667 C105.643861,32.68 105.064171,32.7738667 104.671,32.7738667 C104.189869,32.8741333 103.707677,32.9706667 103.413064,33.168 L103.413064,33.168 L103.413064,33.168 Z" id="Shape"></path>
                    <path d="M88.2208606,31.1221333 C88.7025219,31.0256 88.8010797,31.3178667 88.8991076,31.9984 C89.5725857,36.7669333 90.1575737,41.3445333 90.7377928,46.2096 C90.8273426,46.7936 90.9343785,47.8650667 91.318012,48.0581333 C91.8002032,48.2512 92.577008,47.9616 92.9606414,48.1568 C93.2557849,48.352 93.2557849,48.8352 93.3532829,49.3248 C93.3532829,49.8101333 93.5498685,50.3946667 93.3532829,50.6864 C93.1572271,50.8842667 92.577008,50.9781333 92.0858088,50.9781333 C89.0909243,51.3685333 86.3816454,51.7552 83.3825219,52.1456 C82.9898805,52.2405333 82.3116335,52.3392 82.025498,52.1456 C81.7351235,51.9530667 81.7351235,51.4677333 81.6376255,50.9781333 C81.6376255,50.4885333 81.5438367,50.0032 81.7356534,49.7157333 C81.928,49.4197333 82.5082191,49.4197333 82.8918526,49.3253333 C83.186996,49.2261333 83.6686574,49.1306667 83.865243,48.7418667 C84.0612988,48.4490667 83.9632709,47.6677333 83.865243,47.0858667 C83.5796375,44.1658667 83.186996,41.7312 82.8028327,38.6181333 C82.7042749,38.0341333 82.7042749,37.5466667 82.606247,36.9626667 C82.5082191,36.3786667 82.4101912,35.6981333 82.0260279,35.5994667 C81.7356534,35.4064 81.3477809,35.4064 80.9636175,35.4064 C80.571506,35.4064 80.0893147,35.5029333 79.8927291,35.4064 C79.6071235,35.2112 79.6071235,34.7258667 79.5090956,34.2384 C79.5090956,33.7509333 79.31251,33.2661333 79.4105378,33.0704 C79.5090956,32.776 79.9955259,32.6816 80.3791594,32.5829333 C82.8023028,32.2906667 85.0251514,31.9024 87.1584502,31.4149333 C87.5426135,31.3173333 87.8324582,31.1221333 88.2208606,31.1221333 L88.2208606,31.1221333 L88.2208606,31.1221333 Z" id="Shape"></path>
                    <path d="M68.2793386,44.3605333 C68.4759243,45.8181333 68.6719801,47.0848 69.1541713,48.3514667 C69.6358327,49.5178667 70.5111952,50.6853333 72.0552669,50.7845333 C73.8006932,50.9770667 74.7640159,50.3941333 75.5360518,49.616 C76.2148287,49.0325333 76.6069402,48.3514667 76.7950478,47.2805333 C76.8930757,46.9861333 76.8930757,46.3056 77.1876892,46.1125333 C77.3752669,46.0138667 77.6693506,46.0138667 77.8659363,46.0138667 C78.0535139,45.9173333 78.2495697,45.9173333 78.5394143,45.9173333 C78.9278167,45.8181333 79.6060637,45.7221333 79.7984104,45.9173333 C80.1862829,46.2090667 79.9944661,47.2805333 79.7984104,47.768 C79.5080359,49.616 78.6332032,51.0725333 77.4727649,52.0517333 C75.7321076,53.6058667 72.9248008,54.3872 69.9304462,54.1904 C69.8318884,54.0912 69.8318884,53.8976 69.8318884,53.8037333 L69.536745,53.8037333 C69.536745,53.6058667 69.1531116,53.5066667 69.3406892,53.3141333 C69.1531116,53.2192 68.9565259,53.0213333 68.8590279,52.7296 C68.5638845,52.7296 68.2782789,52.6346667 68.2782789,52.9221333 C68.0822231,52.824 68.18449,52.6346667 67.9926733,52.6346667 C67.7028287,52.6346667 67.5083625,52.4378667 67.4076853,52.3386667 C67.2185179,52.2394667 67.2185179,52.5365333 67.0214024,52.4378667 C66.8274661,52.3386667 66.7315578,52.24 66.6356494,52.0512 C66.3458048,51.8533333 65.954753,51.6554667 65.6691474,51.5616 C65.3793028,51.5616 65.0868088,51.4666667 64.7943147,51.5616 C64.6984064,51.6554667 64.8923426,51.8533333 64.6984064,51.952 C64.5044701,51.952 64.3121235,51.7541333 64.0222789,51.8528 C62.6679044,50.5861333 61.6971633,49.032 61.1169442,46.9856 C60.5388446,44.7488 60.5388446,42.2176 61.1169442,40.0768 C61.6971633,38.2261333 62.9556295,36.4741333 64.4106813,35.4048 C65.8609641,34.2368 67.8941155,33.5562667 70.214992,33.4576 C73.1160876,33.2645333 75.3474143,34.5290667 76.6996693,35.9893333 C77.8643466,37.3525333 78.7301713,39.2010667 79.1228127,41.5370667 C79.2213705,42.0224 79.3103904,42.6064 79.024255,42.8981333 C78.7296414,42.9946667 78.1499522,43.0933333 77.7657888,43.0933333 C74.5727291,43.5786667 71.278992,43.9696 68.2793386,44.3605333 L68.2793386,44.3605333 L68.2793386,44.3605333 Z M70.5111952,36.5733333 L70.5111952,36.5733333 C70.2165817,36.4746667 69.8329482,36.3781333 69.4403068,36.4746667 C67.4092749,36.6698667 67.6016215,39.4933333 67.9942629,41.5370667 C69.2527291,41.344 70.6987729,41.1482667 71.957239,40.9530667 C71.6716335,39.3941333 71.6716335,37.2538667 70.5111952,36.5733333 L70.5111952,36.5733333 L70.5111952,36.5733333 Z" id="Shape"></path>
                    <path d="M52.2128327,39.2010667 C51.2463307,38.5205333 49.69749,38.9093333 49.1178008,39.4933333 C47.5689602,40.9530667 47.662749,44.8458667 48.0559203,47.5722667 C48.2477371,48.9354667 48.6313705,50.2 49.1178008,51.2688 C49.6980199,52.5365333 50.5728526,53.6053333 52.5032072,53.5061333 C54.5363586,53.3136 55.603008,51.7541333 56.0851992,49.9082667 C56.0851992,49.7146667 56.1832271,49.3237333 56.1832271,48.9354667 C56.281255,48.448 56.1832271,47.864 56.5668606,47.6666667 C56.8614741,47.5722667 57.3436653,47.5722667 57.8300956,47.4736 C58.3122869,47.4736 58.7006892,47.2805333 58.9926534,47.5728 C59.1844701,47.768 59.1844701,48.352 59.1844701,48.7413333 C59.0880319,51.656 57.9281235,53.8976 56.281255,55.1642667 C54.7324143,56.2341333 52.5032072,57.0112 49.8924861,56.8176 C45.924741,56.6250667 43.2112231,54.4821333 41.7582908,51.5621333 C40.9841355,50.0026667 40.3101275,47.3770667 40.5999721,44.7493333 C40.5999721,44.4576 40.6958805,44.0666667 40.7917888,43.6778667 C40.8919363,43.2890667 40.8919363,42.8016 41.0842829,42.6064 C41.1828406,42.5098667 41.1828406,42.5098667 41.3746574,42.4106667 C41.3746574,42.1210667 41.1828406,42.3141333 41.2760996,42.0218667 C41.3746574,41.8288 41.8563187,41.8288 41.9543466,41.5365333 C42.0481355,41.5365333 42.1509323,41.5365333 42.2399522,41.44 C42.342749,41.3434667 42.4386574,41.1482667 42.5345657,41.0496 C42.7290319,40.9530667 42.7290319,41.1482667 42.8249402,41.1482667 C43.016757,40.9530667 43.4099283,41.1482667 43.6997729,40.9530667 C43.7935618,40.76 43.4099283,40.8565333 43.4099283,40.6613333 C43.601745,40.5648 43.601745,40.2725333 43.5037171,39.9808 C43.5037171,39.7829333 43.4099283,39.7829333 43.3071315,39.6890667 C43.0172869,39.2016 43.4099283,38.7141333 43.7935618,38.6176 C43.7935618,38.4224 43.8915896,38.4224 43.9880279,38.3258667 C44.2778725,38.0336 44.7621833,37.7418667 45.2443745,37.4496 C46.598749,36.6704 48.3441753,36.0864 50.3746773,35.9898667 C52.8963785,35.8933333 55.0227888,36.6704 56.281255,37.8384 C57.2498765,38.7146667 58.1178207,40.0778667 58.0261514,41.6341333 C58.0261514,43.7770667 56.281255,44.8458667 54.250753,44.7493333 C52.4072988,44.5541333 51.0550438,43.2896 51.2468606,41.3445333 C51.3443586,40.4656 51.7285219,39.9802667 52.2128327,39.2010667 L52.2128327,39.2010667 L52.2128327,39.2010667 Z" id="Shape"></path>
                    <path d="M29.6611195,38.7136 L29.7570279,38.7136 C30.0474024,39.0053333 30.4352749,39.2010667 30.7256494,39.3941333 C30.9217052,39.5893333 30.7256494,39.6885333 31.015494,39.7829333 C31.2099602,39.7829333 31.015494,39.5898667 31.1140518,39.3941333 C31.3058685,39.2976 31.5983625,39.2976 31.7901793,39.2010667 L31.8903267,39.2010667 C31.9841155,39.1045333 31.7901793,39.0058667 31.9841155,39.0058667 C34.0193865,39.4933333 35.4696693,40.5648 36.6301076,42.2176 C37.4021434,43.3856 37.8885737,44.7488 38.2769761,46.4021333 C38.3707649,46.8896 38.5694701,47.768 38.3707649,48.0576 C38.1789482,48.3514667 37.5987291,48.3514667 37.1144183,48.448 C33.9213586,48.8346667 30.7256494,49.2250667 27.5325896,49.7146667 C27.7244064,50.9770667 27.920992,52.0512 28.2087171,53.12 C28.5971195,54.0906667 28.980753,55.0645333 29.7575578,55.6490667 C30.0479323,55.8426667 30.4358048,56.0394667 30.8242072,56.0394667 C32.1812311,56.4261333 33.6288645,55.8426667 34.4035498,55.3573333 C35.3716414,54.6741333 35.9518606,53.5061333 36.1442072,52.1450667 C36.247004,51.8533333 36.247004,51.5616 36.4388207,51.4672 C36.6306375,51.2693333 37.3131235,51.2693333 37.7953147,51.1712 C38.277506,51.1712 38.8571952,50.9776 39.0516614,51.2693333 C39.3441554,51.4672 39.2434781,52.24 39.1475697,52.7296 C38.5694701,56.3328 36.2464741,58.4752 32.9548566,59.2474667 C30.8236773,59.7370667 28.4047729,59.5445333 26.5655578,59.0586667 C24.7268725,58.4752 23.3703785,57.4053333 22.3037291,56.04 C20.7591275,54.0912 19.693008,51.2693333 19.9828526,47.6666667 C20.2705777,44.4570667 21.6254821,42.2176 23.758251,40.6613333 C24.9186892,39.7829333 26.4648805,39.1045333 28.3062151,38.8106667 C28.5960598,38.8106667 28.8864343,38.7141333 29.1783984,38.7141333 L29.2743068,38.7141333 C29.3723347,38.8106667 29.3723347,38.8106667 29.4661235,38.8106667 C29.5646813,38.8106667 29.5646813,38.7136 29.6611195,38.7136 L29.6611195,38.7136 L29.6611195,38.7136 Z M30.3414861,39.3941333 L30.3414861,39.3941333 C30.4352749,39.4933333 30.4352749,39.5893333 30.6313307,39.4933333 C30.6313307,39.3941333 30.4352749,39.2976 30.3414861,39.3941333 L30.3414861,39.3941333 L30.3414861,39.3941333 Z M29.756498,41.9253333 L29.756498,41.9253333 C29.4666534,41.7301333 29.0830199,41.7301333 28.6898486,41.8288 C26.6588167,42.0218667 26.8554024,44.8453333 27.2416853,46.7925333 C28.4980319,46.5968 29.9504343,46.5002667 31.2094303,46.3050667 C30.9211753,44.6501333 30.9211753,42.5098667 29.756498,41.9253333 L29.756498,41.9253333 L29.756498,41.9253333 Z" id="Shape"></path>
                    <path d="M12.1432709,45.6250667 C11.2705578,45.9168 11.1746494,47.1834667 11.0760916,48.2506667 C10.9823028,50.8837333 11.3664661,52.9221333 11.6589602,55.1637333 C11.7575179,55.9408 11.8507769,57.8906667 12.4331155,58.1781333 C12.8193984,58.376 13.2078008,58.376 13.6894622,58.376 C14.1758924,58.2768 14.6580837,58.1781333 15.0464861,58.2768 C15.3342112,58.4746667 15.3342112,58.9589333 15.4348884,59.4442667 C15.4348884,59.8309333 15.6267052,60.6117333 15.4348884,60.9045333 C15.2383028,61.0037333 14.5648247,61.0970667 14.1764223,61.1962667 C11.0766215,61.5866667 7.59371713,61.9776 4.59671315,62.3637333 C4.40277689,62.4629333 4.49815538,62.2645333 4.49815538,62.2645333 C4.40224701,62.1706667 4.30633865,62.1706667 4.20354183,62.2645333 C4.20354183,61.9770667 4.01384462,61.9770667 4.01384462,61.7802667 C3.91369721,61.5866667 3.82202789,61.5866667 3.62597211,61.4874667 C3.62597211,61.2949333 3.82255777,61.3936 3.72188048,61.2949333 C3.43203586,61.0032 3.04787251,61.0032 3.04787251,60.6117333 C2.9477251,60.4192 2.6573506,60.6117333 2.6573506,60.4192 C2.55932271,59.6421333 3.33559761,59.8304 4.0143745,59.6421333 C4.59724303,59.4442667 5.07890438,59.2464 5.07890438,58.4746667 C5.07890438,57.9893333 4.98087649,57.4048 4.88443825,56.8165333 C4.49815538,53.704 4.20407171,50.6853333 3.72188048,47.4730667 C3.62597211,46.7925333 3.53006375,46.0133333 3.04787251,45.8176 C2.36750598,45.528 1.39888446,45.9168 1.01472112,45.6245333 C0.724876494,45.528 0.724876494,45.0405333 0.622079681,44.5530667 C0.622079681,44.1642667 0.430262948,43.5781333 0.528290837,43.2885333 C0.622079681,43.0928 1.01472112,42.9941333 1.49691235,42.8976 C3.91369721,42.6058667 5.94631873,42.2170667 8.1781753,41.6330667 C8.4659004,41.5365333 8.94809163,41.3434667 9.24005578,41.44 C9.52778088,41.5365333 9.52778088,42.2176 9.62845817,42.7045333 C9.72224701,43.2885333 9.8202749,43.6773333 9.8202749,44.2608 C9.91830279,44.2608 10.0120916,44.0656 10.0120916,43.9690667 C10.4985219,43.2885333 10.8848048,42.7045333 11.5609323,42.1205333 C12.3329681,41.5365333 13.1097729,41.0490667 14.3703586,41.0490667 C14.5648247,40.9525333 14.6580837,40.9525333 14.8525498,41.0490667 C17.081757,41.1477333 18.6284781,42.7045333 18.7222669,44.8448 C18.8202948,45.8170667 18.4345418,46.792 17.7557649,47.4725333 C16.6912351,48.544 14.0783944,48.9349333 12.9179562,47.7669333 C12.4331155,47.28 12.2412988,46.6965333 12.1432709,45.6250667 L12.1432709,45.6250667 L12.1432709,45.6250667 Z" id="Shape"></path>
                    <path d="M102.350653,61.3952 C102.350653,61.4890667 102.252625,61.3952 102.158837,61.3952 C102.158837,61.5877333 102.253155,61.6826667 102.158837,61.8805333 C102.158837,62.0730667 102.547239,62.0730667 102.449211,62.2661333 C102.253155,62.5632 101.96755,62.3653333 101.677175,62.1722667 C101.574378,62.0730667 101.485359,61.8805333 101.288773,61.8805333 C101.190745,61.9786667 101.387331,62.1722667 101.288773,62.2661333 C101.387331,62.464 101.485359,62.5632 101.485359,62.8506667 C101.485359,63.0485333 101.288773,62.8506667 101.190745,62.8506667 C101.288773,63.0485333 101.485359,63.2410667 101.868992,63.2410667 C101.96755,63.3402667 102.158837,63.4346667 102.253155,63.6314667 C102.449211,63.7306667 102.547769,63.8293333 102.743825,63.9242667 C103.127988,67.4234667 103.610179,70.8325333 104.09661,74.3365333 C104.386454,73.9461333 104.67206,73.4602667 105.064701,72.9749333 C105.742948,72.0986667 106.412717,71.3216 107.001414,70.3477333 C107.188992,70.0549333 107.872008,69.2736 107.680191,68.6896 C107.680191,68.3029333 107.001414,68.1061333 106.519753,68.1061333 C106.028554,68.0112 105.546892,68.1061333 105.261287,67.8186667 C105.064701,67.6208 105.154251,67.1354667 105.064701,66.8384 C105.064701,66.5509333 104.966673,66.1653333 105.064701,65.7696 C105.261287,65.4778667 105.742948,65.4778667 106.323697,65.3829333 C108.840629,65.0912 111.545139,64.7008 113.973582,64.4133333 C114.161159,64.5072 113.776996,64.6021333 113.776996,64.7008 C113.870785,64.9968 114.259187,64.9968 114.062602,65.3829333 C114.161159,65.5808 114.357215,65.6757333 114.642821,65.6757333 C114.839406,65.9674667 115.227809,66.1653333 115.611442,66.3536 C115.71,66.3536 115.611442,66.1648 115.803259,66.1648 C115.901817,66.1648 115.803259,66.2586667 115.901817,66.3536 C115.901817,66.4528 116.19643,66.2586667 116.097873,66.4528 C116.097873,66.8384 115.901817,66.4528 115.803259,66.6453333 C115.611442,66.7445333 115.999315,66.7445333 115.901817,66.8378667 C115.517653,67.0357333 115.129251,67.0357333 114.745618,67.1349333 C113.678968,67.4224 112.902163,68.0112 112.223916,68.7882667 C111.357562,69.7632 110.581287,70.832 109.805012,71.9061333 C111.741725,74.1434667 113.679498,76.5781333 115.71,78.9136 C116.294988,79.5925333 117.070733,80.5669333 118.035116,80.7605333 C118.423518,80.8597333 119.097526,80.7605333 119.294112,81.0522667 C119.481689,81.1514667 119.481689,81.6368 119.588725,82.0272 C119.677745,82.6117333 119.776303,83.1946667 119.588725,83.4874667 C119.3879,83.5856 118.81192,83.68 118.329729,83.7749333 C115.71053,84.0709333 113.197307,84.3584 110.483789,84.7541333 C109.90357,84.848 109.028737,85.1408 108.841159,84.6549333 C108.738892,84.3578667 108.738892,83.9717333 108.644574,83.68 C108.546546,83.0954667 108.358968,82.4176 108.738892,82.2197333 C109.131004,82.0272 109.613195,82.1216 109.997359,81.8341333 C109.421378,80.8592 108.547076,80.0821333 107.872538,79.2997333 C107.190052,78.5226667 106.413247,77.6464 105.743478,76.8656 C105.355606,77.256 104.967203,77.7456 104.578801,78.2314667 C104.67259,79.3002667 104.770618,80.3701333 104.967203,81.344 C105.065231,81.7354667 105.154781,82.1221333 105.355076,82.2202667 C105.742948,82.6117333 107.001414,82.1221333 107.28702,82.7056 C107.385578,82.9034667 107.385578,83.3888 107.385578,83.6805333 C107.484135,84.2650667 107.680721,84.7546667 107.385578,85.0421333 C107.189522,85.2389333 106.519753,85.2389333 106.028554,85.3381333 C103.226016,85.7248 100.610526,86.016 97.7989801,86.408 C97.2182311,86.5072 96.3529363,86.7946667 96.0630916,86.408 C95.8712749,86.2101333 95.8712749,85.8234667 95.7727171,85.4330667 C95.7727171,84.8485333 95.4781036,84.2656 95.7727171,83.9728 C95.9602948,83.776 96.544753,83.776 96.9326255,83.6810667 C97.6114024,83.4885333 98.0930637,83.2906667 98.0930637,82.4186667 C98.0930637,81.6373333 97.9054861,80.8602667 97.7984502,79.9845333 C97.2177012,75.4117333 96.5442231,70.6405333 95.9592351,65.8698667 C95.8702151,64.9978667 95.7716574,63.8304 95.3790159,63.5344 C94.611749,63.0490667 93.352753,63.6325333 92.9601116,63.1477333 C92.8620837,62.9498667 92.8620837,62.5632 92.7725339,62.1728 C92.6739761,61.5882667 92.5764781,61.0986667 92.7725339,60.8112 C92.9601116,60.6133333 93.446012,60.5152 93.8349442,60.5152 C96.2538486,60.2277333 98.4766972,59.7370667 100.511968,59.1536 C100.801813,59.0586667 101.190215,58.8618667 101.484829,58.8618667 C102.158307,58.8618667 102.158307,59.544 102.252625,60.1285333 C102.253155,60.6128 102.350653,60.9056 102.350653,61.3952 L102.350653,61.3952 L102.350653,61.3952 Z M101.677175,61.8805333 L101.677175,61.8805333 C101.868992,61.8805333 101.868992,61.7813333 101.868992,61.5877333 L101.677175,61.5877333 C101.770434,61.6826667 101.677175,61.7813333 101.677175,61.8805333 L101.677175,61.8805333 L101.677175,61.8805333 Z M101.190745,61.8805333 L101.190745,61.8805333 C101.190745,61.6826667 100.994159,61.6826667 100.905139,61.6826667 C100.994159,61.7813333 100.994159,61.8805333 101.190745,61.8805333 L101.190745,61.8805333 L101.190745,61.8805333 Z" id="Shape"></path>
                    <path d="M26.8559323,77.5482667 C26.8559323,77.5482667 26.6593466,77.6474667 26.6593466,77.5482667 C26.5655578,77.4501333 26.6593466,77.4501333 26.7579044,77.4501333 C26.7579044,77.3552 26.7579044,77.2565333 26.6593466,77.0634667 C26.9497211,77.0634667 27.0498685,76.8656 27.1457769,76.9642667 C27.2416853,76.7706667 27.340243,76.6714667 27.5320598,76.5776 C27.7238765,76.6714667 27.8245538,76.5776 28.1143984,76.5776 C28.2081873,76.4784 28.0158406,76.2805333 28.3062151,76.2805333 C28.3062151,76.088 28.0158406,76.088 27.9199323,75.9930667 C27.8240239,75.7962667 27.7233466,75.4096 27.9199323,75.3109333 C27.8240239,75.1130667 27.6274382,75.0192 27.4313825,75.0192 C27.340243,74.8256 27.1457769,74.7264 27.0498685,74.6277333 C27.0498685,74.336 26.6593466,74.336 26.6593466,73.9456 C26.369502,73.9456 26.2730637,73.9456 26.1750359,73.7568 C25.9832191,73.1722667 25.9832191,72.5882667 25.5010279,72.3909333 C24.9186892,72.1930667 23.9500677,72.5877333 23.4684064,72.3909333 C23.1785618,72.2917333 23.1785618,71.8064 23.080004,71.1242667 C22.9862151,70.5397333 22.8839482,69.9557333 23.2718207,69.7626667 C23.4684064,69.6634667 23.9500677,69.5690667 24.3384701,69.5690667 C26.6588167,69.2730667 28.7878765,68.7877333 30.9211753,68.2032 C31.4054861,68.1050667 31.9835857,67.7189333 32.2713108,68.1050667 C32.3714582,68.3018667 32.4657769,68.6885333 32.4657769,69.0789333 C32.7603904,71.4197333 33.0481155,73.7562667 33.4365179,76.0874667 C34.8846813,74.7258667 36.8245737,73.4592 39.9238446,73.6533333 C42.6325936,73.7562667 44.665745,75.3104 46.0201195,76.9637333 C46.696247,77.9386667 47.1805578,79.0074667 47.5684303,80.1749333 C48.1465299,81.8330667 48.4390239,83.4864 48.3431155,85.7226667 C48.2466773,88.4496 47.1805578,90.4933333 45.7318645,91.9488 C44.9577092,92.7312 44.0828765,93.3146667 43.0162271,93.7008 C41.5659442,94.2853333 40.0171036,94.68 37.9860717,94.5808 C36.9194223,94.4816 35.8527729,94.1904 35.0828566,93.7994667 C34.2106733,93.4128 33.435988,92.9274667 32.7598606,92.344 C32.3714582,93.1157333 31.9830558,93.9973333 31.5973028,94.8730667 C31.5013944,95.1648 31.3048088,95.5509333 31.112992,95.6501333 C30.9211753,95.7493333 30.5327729,95.7493333 30.2381594,95.7493333 C29.7559681,95.8474667 29.3723347,95.9418667 29.08249,95.7493333 C28.8859044,95.5514667 28.8859044,95.0661333 28.7878765,94.6794667 C28.1138685,89.1274667 27.3397131,83.1930667 26.6588167,77.744 C26.6588167,77.9376 26.9491912,77.9376 27.145247,77.744 C27.0498685,77.7461333 26.9491912,77.6469333 26.8559323,77.5482667 L26.8559323,77.5482667 L26.8559323,77.5482667 Z M28.3062151,75.8949333 L28.3062151,75.8949333 C28.2076574,75.8949333 28.2076574,75.7968 28.1143984,75.7968 C28.1143984,75.8949333 28.2076574,75.9941333 28.3062151,75.8949333 L28.3062151,75.8949333 L28.3062151,75.8949333 Z M27.0498685,77.4501333 L27.0498685,77.4501333 C27.2416853,77.4501333 27.340243,77.3552 27.340243,77.2565333 C27.2416853,77.1626667 27.1457769,77.064 26.9497211,77.1626667 C26.9491912,77.2565333 27.0498685,77.3557333 27.0498685,77.4501333 L27.0498685,77.4501333 L27.0498685,77.4501333 Z M36.7276056,77.3557333 L36.7276056,77.3557333 C33.7284821,77.5482667 34.2106733,81.9285333 34.5031673,84.7546667 C34.7908924,86.7941333 35.1792948,89.2288 36.1431474,90.3962667 C36.3418526,90.688 36.7276056,90.9808 37.0179801,91.1776 C37.794255,91.5642667 39.1470398,91.4704 39.9233147,91.0794667 C41.5659442,90.0096 41.1817809,86.3088 40.8914064,84.0709333 C40.6953506,83.0021333 40.5014143,81.8346667 40.3090677,80.9530667 C39.9227849,79.5925333 39.3425657,77.8448 37.8880438,77.4501333 C37.5981992,77.3557333 37.0179801,77.3557333 36.7276056,77.3557333 L36.7276056,77.3557333 L36.7276056,77.3557333 L36.7276056,77.3557333 Z" id="Shape"></path>
                    <path d="M71.957239,89.3274667 C71.957239,89.1296 72.0557968,89.1296 71.957239,88.8421333 C71.8634502,88.8421333 71.8634502,88.5450667 71.8634502,88.4517333 C71.7696614,88.0613333 71.6716335,87.3776 71.8634502,87.0901333 C72.0552669,86.8922667 72.7340438,86.7941333 73.0281275,86.6954667 C73.4122908,86.6005333 73.8006932,86.5066667 73.9919801,86.2101333 C74.1885657,85.8234667 74.0905378,85.1413333 74.0905378,84.5568 C73.6978964,81.5381333 73.4122908,79.1077333 72.9258606,76.0890667 C72.8320717,75.2128 72.8320717,73.4608 72.2518526,73.0704 C71.6716335,72.6837333 70.5117251,73.0704 70.0252948,72.7786667 C69.7349203,72.6837333 69.7349203,72.1941333 69.7349203,71.7088 C69.6363625,71.3221333 69.5383347,70.7392 69.6363625,70.4421333 C69.7349203,70.2496 70.1185538,70.1546667 70.5111952,70.0554667 C73.0281275,69.7637333 75.0543904,69.3733333 77.1882191,68.7888 C77.4738247,68.6896 77.964494,68.4970667 78.2500996,68.5962667 C78.6342629,68.6901333 78.6342629,69.3733333 78.7322908,69.8576 C78.7322908,70.3482667 78.8308486,70.8325333 78.8308486,71.3221333 C80.1878725,69.472 82.0260279,68.1066667 85.0251514,68.0117333 C86.9618645,67.8192 88.4169163,68.4970667 89.3812988,69.5701333 C91.318012,71.6096 91.6036175,75.312 91.9973187,78.816 C92.1933745,80.0826667 92.2829243,81.5381333 92.5775378,82.8048 C92.6755657,83.2901333 92.7735936,83.7754667 93.157757,83.9722667 C93.3538127,84.0714667 93.7379761,84.0714667 94.1216096,83.9722667 C94.514251,83.9722667 94.9959124,83.9722667 95.188259,84.0714667 C95.3806056,84.1706667 95.4786335,84.656 95.4786335,85.2389333 C95.5766614,85.7242667 95.773247,86.3088 95.4786335,86.5066667 C95.3800757,86.7941333 94.8046255,86.7941333 94.2196375,86.8922667 C91.3185418,87.2789333 88.5075259,87.6746667 85.6059004,88.0608 C85.124239,88.0608 84.5440199,88.16 84.2488765,88.0608 C83.9632709,87.8629333 83.9632709,87.3776 83.9632709,86.8922667 C83.865243,86.5066667 83.7672151,86.016 83.865243,85.6256 C84.1550876,85.1413333 85.4140837,85.3381333 85.6053705,84.7546667 C85.8019562,84.2650667 85.6053705,83.5861333 85.6053705,83.0965333 C85.2217371,80.4693333 84.8381036,77.7466667 84.54349,75.2133333 C84.3469044,73.9466667 84.2483466,72.2933333 83.1864661,71.9072 C82.3116335,71.7093333 81.1511952,72.3925333 80.8608207,72.8768 C79.8921992,74.2384 80.0887849,77.2570667 80.3791594,79.3008 C80.4814263,80.7610667 80.7670319,82.4186667 80.9636175,84.0714667 C81.0531673,84.7546667 81.1511952,85.3381333 81.5443665,85.5269333 C82.0260279,85.7248 82.8028327,85.3381333 83.186996,85.6261333 C83.3830518,85.824 83.3830518,86.2106667 83.4768406,86.7946667 C83.5796375,87.2789333 83.6686574,87.8634667 83.4768406,88.1605333 C83.2855538,88.3530667 82.7048048,88.3530667 82.2183745,88.4522667 C79.3130398,88.8426667 76.608,89.2293333 73.8012231,89.5210667 C73.3142629,89.6202667 72.6360159,89.7146667 72.4441992,89.7146667 C72.2513227,89.6192 72.1538247,89.4261333 71.957239,89.3274667 L71.957239,89.3274667 L71.957239,89.3274667 Z M72.1538247,89.2282667 L72.1538247,89.2282667 L72.0552669,89.2282667 C72.0552669,89.3274667 72.1538247,89.3274667 72.1538247,89.2282667 L72.1538247,89.2282667 L72.1538247,89.2282667 Z" id="Shape"></path>
                    <path d="M68.4759243,86.4074667 C69.1541713,86.3082667 68.6719801,85.5264 69.1541713,85.2389333 C69.2521992,85.1408 69.6358327,85.1408 69.9309761,85.0421333 C70.6044542,84.9429333 71.2784622,84.7546667 71.3770199,85.5264 C71.5736056,86.5066667 71.2784622,87.6741333 70.9928566,88.3525333 C70.8942988,88.3525333 70.7968008,88.3525333 70.7968008,88.2576 C70.698243,88.4512 70.6049841,88.4512 70.4126375,88.4512 C70.5111952,88.7429333 70.8942988,88.7429333 70.698243,88.9365333 C70.6044542,89.0346667 70.4126375,88.9365333 70.3140797,88.7429333 C70.2160518,88.8421333 70.1180239,88.9365333 70.0242351,88.9365333 C69.8324183,88.7429333 69.6358327,88.6437333 69.439247,88.4512 C69.3406892,88.4512 69.2516693,88.5450667 69.2516693,88.6437333 C69.1536414,88.5445333 69.0556135,88.4512 68.9570558,88.352 C68.765239,88.352 68.8590279,88.1594667 68.6714502,88.1594667 C68.4753944,88.2576 68.6714502,88.352 68.6714502,88.5450667 C68.5644143,89.0346667 68.1850199,88.8421333 67.7971474,88.6442667 C67.7033586,88.5450667 67.7033586,88.3525333 67.5088924,88.3525333 C67.3107171,88.5450667 67.7033586,88.6442667 67.7971474,88.9370667 C67.8957052,88.9370667 68.082753,88.9370667 68.082753,89.0352 C68.082753,89.2288 67.8951753,89.2288 67.7971474,89.328 C67.6010916,89.4272 67.7033586,89.2288 67.5088924,89.2288 C67.5088924,89.4266667 67.8951753,89.6192 68.082753,89.6192 C68.1850199,89.8117333 67.9932032,89.7141333 67.9932032,89.9109333 C68.082753,90.1045333 68.3773665,90.1045333 68.4753944,90.2976 C68.6714502,90.2037333 68.8595578,90.2976 68.8595578,90.3968 C68.6719801,90.6885333 68.2788088,90.6885333 67.8957052,90.7872 C67.3107171,90.8821333 66.637239,91.08 65.7624064,90.9808 C64.1218964,90.8816 62.9572191,90.1045333 62.1804143,89.0352 L62.0866255,88.9370667 C61.9885976,88.9370667 61.6023147,89.4266667 61.5064064,89.5205333 C60.9240677,90.2037333 60.1477928,90.7872 59.473255,91.2725333 C58.3106972,91.9504 56.6685976,92.5349333 54.7313546,92.44 C53.2789522,92.3461333 52.1206335,91.7621333 51.3438287,90.9808 C50.468996,90.1045333 49.8908964,88.9370667 49.9868048,87.3776 C49.9868048,85.9221333 50.6650518,84.7546667 51.3438287,83.8736 C52.1206335,83.0026667 52.9843386,82.2202667 53.9545498,81.6373333 C55.8917928,80.2714667 58.1162311,79.2021333 60.3459681,78.232 C60.1472629,76.1882667 59.9554462,74.2384 57.5365418,74.3370667 C56.8604143,74.3370667 56.1821673,74.5296 55.6019482,74.8266667 C55.4101315,74.9216 55.1155179,75.0202667 55.1155179,75.1141333 C55.1155179,75.1141333 55.5060398,75.4112 55.6019482,75.5045333 C55.9882311,75.9941333 56.3739841,76.7712 56.2801952,77.6474667 C56.1821673,79.2016 54.6333267,80.2714667 52.6960837,80.0826667 C50.9554263,79.9834667 49.9873347,78.816 49.8914263,77.064 C49.7955179,75.8954667 50.3736175,74.9210667 50.9559562,74.2378667 C52.6028247,72.1941333 55.8923227,71.2234667 59.087502,71.0266667 C62.2784422,70.9317333 65.0883984,71.808 66.2509562,73.7578667 C66.637239,74.3370667 66.8290558,75.1141333 67.022992,75.9941333 C67.311247,77.5482667 67.5094223,79.3994667 67.7038884,81.2501333 C67.8957052,82.5125333 68.0832829,83.8730667 68.2793386,85.2389333 C68.2793386,85.6250667 68.2793386,86.1109333 68.4759243,86.4074667 L68.4759243,86.4074667 L68.4759243,86.4074667 Z M60.0587729,81.6368 L60.0587729,81.6368 C59.375757,82.0272 58.7001594,82.4181333 58.1172908,82.8042667 C57.4416932,83.3888 56.5663307,84.2645333 56.3745139,85.1408 C56.2807251,85.9221333 56.4773108,86.6949333 56.7650359,87.0896 C56.9589721,87.3770667 57.3431355,87.6741333 57.7357769,87.7674667 C58.7934183,88.0602667 59.8600677,87.3770667 60.346498,86.7936 C61.2144422,85.5258667 61.0226255,83.0021333 60.7327809,81.2496 C60.6368725,81.1514667 60.2484701,81.4432 60.0587729,81.6368 L60.0587729,81.6368 L60.0587729,81.6368 Z M68.0832829,88.0608 L68.0832829,88.0608 L68.0832829,88.2576 C68.1855498,88.1594667 68.2793386,88.1594667 68.2793386,87.9616 C68.1860797,87.9616 68.0832829,87.9616 68.0832829,88.0608 L68.0832829,88.0608 L68.0832829,88.0608 Z M68.3778964,90.3962667 L68.3778964,90.3962667 C68.3778964,90.3962667 68.3778964,90.4954667 68.4764542,90.4954667 C68.4764542,90.3962667 68.4764542,90.3962667 68.3778964,90.2976 L68.3778964,90.3962667 L68.3778964,90.3962667 L68.3778964,90.3962667 Z" id="Shape"></path>
                    <path id="Shape"></path>
                </g>
            </g>
        </g>
    </g>
</svg>