<?xml version="1.0" encoding="UTF-8" standalone="no"?>
<svg width="111px" height="79px" viewBox="0 0 111 79" version="1.1" xmlns="http://www.w3.org/2000/svg" xmlns:xlink="http://www.w3.org/1999/xlink">
    <!-- Generator: Sketch 3.7.2 (28276) - http://www.bohemiancoding.com/sketch -->
    <title>receipt_bank_logo_footer</title>
    <desc>Created with Sketch.</desc>
    <defs></defs>
    <g id="Variant-2" stroke="none" stroke-width="1" fill="none" fill-rule="evenodd">
        <g id="receipt_bank_logo_footer" fill="#7F7F7F">
            <g id="Page-1">
                <g id="orange">
                    <g id="Group">
                        <path d="M93.206524,11.4339333 C92.568274,13.6779722 91.9229763,15.8386222 91.1957503,18.0027833 C87.5005951,17.0416167 83.793988,16.08045 80.0953094,15.1175278 C80.2547617,15.0380889 79.9323337,14.9564555 79.8543689,14.8770167 C79.9323337,14.7975778 79.9323337,14.6369445 79.8543689,14.5570667 C79.9323337,14.3169945 79.6949166,14.0764833 79.5279765,13.9176055 C79.6129883,13.9176055 79.6949166,13.8359722 79.6949166,13.7569722 C79.7689163,13.7569722 79.8543689,13.8364111 79.9323337,13.8364111 C80.014262,13.8364111 80.0953094,13.7569722 80.16975,13.7569722 C80.3327265,13.7569722 80.4961431,13.9176055 80.6591189,13.7569722 C80.6591189,13.6775333 80.414214,13.6775333 80.3327265,13.5980945 C80.2547617,13.5164611 80.16975,13.4352667 80.16975,13.2763889 C80.0953094,13.19695 80.0138212,13.2763889 79.9323337,13.2763889 C79.9323337,13.1157555 79.7689163,13.1157555 79.6949166,12.9546833 C79.7689163,12.9546833 79.8543689,13.0363167 79.9323337,12.9546833 C79.8543689,12.9546833 79.9323337,12.8752445 79.9323337,12.79405 C79.9323337,12.6351722 79.7689163,12.8752445 79.7689163,12.79405 C79.6949166,12.79405 79.6949166,12.7163667 79.6949166,12.6351722 C79.6949166,12.5557333 79.7689163,12.6351722 79.9323337,12.6351722 C79.8543689,12.4745389 79.8543689,12.3951 79.6949166,12.3134667 C79.6949166,12.2357833 79.6129883,12.1545889 79.5279765,12.07515 C79.3685235,12.07515 79.3685235,11.9935167 79.2865951,11.9935167 C79.208631,12.07515 79.208631,12.1545889 79.208631,12.1545889 C79.208631,12.3946611 79.4495717,12.5557333 79.5279765,12.6351722 C79.4495717,12.79405 79.2865951,12.5557333 79.1271429,12.6351722 C79.1271429,12.79405 79.2090714,12.9551222 78.9676905,13.0363167 C78.8862024,12.9546833 78.9676905,12.8752445 78.9676905,12.79405 C78.9676905,12.7163667 78.8082381,12.6351722 78.8082381,12.5557333 C78.8082381,12.4745389 78.5672976,12.3951 78.4858095,12.2357833 C78.1664643,12.2357833 78.0034881,11.9935167 77.6806191,11.9935167 C77.6806191,12.07515 77.6806191,12.2357833 77.6026547,12.3134667 C77.5211666,12.4745389 77.6806191,12.4745389 77.6806191,12.5557333 C77.5216071,12.5557333 77.6026547,12.7168055 77.6026547,12.7168055 C77.5211666,12.7168055 77.35775,12.7168055 77.2762619,12.6351722 C77.0388452,12.4745389 77.0388452,12.2357833 76.8758691,12.3134667 C76.7128929,12.3134667 76.7128929,12.3951 76.6384524,12.5557333 C76.6384524,12.79405 76.9577976,12.7168055 76.9577976,12.9551222 C76.8758691,13.1161945 76.6384524,13.1161945 76.5494762,13.2768278 C76.3935476,13.1973889 76.3935476,13.4357055 76.1486428,13.3562667 C76.2305715,13.6779722 76.6384524,13.6779722 76.8758691,13.9180445 C76.7939405,14.0769222 76.7939405,14.2379945 76.8758691,14.3174333 C72.7728334,13.2768278 68.7508453,12.2362222 64.5658809,11.1938611 C60.78175,10.2326945 56.9971785,9.11265 53.1408095,8.15148331 C52.8179405,8.07028892 52.4968333,7.99085 52.3356191,7.99085 C52.1761667,7.99085 51.9312619,8.23092223 51.6898809,8.39023892 C44.8523691,12.3139055 37.9333691,16.1607667 31.0918929,20.0848722 C30.7729881,19.9259945 30.2906666,19.7631667 29.8863095,19.9259945 C29.8048215,20.0054333 29.8863095,20.0848722 29.8048215,20.0848722 L29.4854762,20.0848722 C29.3242619,20.0848722 29.3242619,20.3271389 29.0846428,20.24375 C28.9991905,20.24375 29.1643691,20.3267 29.0846428,20.4065778 C28.9212262,20.4065778 28.9212262,20.5654555 28.75825,20.5654555 C28.6824881,20.6470889 28.6824881,20.7243333 28.5208333,20.8059667 C28.3574167,20.8059667 28.1979643,20.6470889 27.9548214,20.6470889 C27.8750953,20.8059667 28.1979643,20.8854055 28.2794524,20.8854055 C28.2794524,21.2053555 28.3574167,21.28655 28.5203929,21.4471833 C28.2794524,21.4471833 28.2794524,21.6060611 28.2794524,21.6876945 C24.1764167,24.0094167 20.0689762,26.4140889 15.8879762,28.7353722 C14.8418452,26.8130389 13.8754405,24.8907055 12.8310714,22.8889333 C12.6676547,22.7278611 12.3469881,22.2477167 12.4267143,22.0072055 C12.4267143,21.9277667 12.9905238,21.6060611 13.2319048,21.5266222 C15.1629523,20.4860167 17.0125119,19.4454111 18.8638333,18.40305 C24.8979167,15.0389667 30.7729881,11.7565167 36.7277857,8.39067777 C37.2101072,8.07072777 37.7739167,7.75077778 38.3359643,7.50895 C38.3359643,7.67177778 38.4174523,7.83021667 38.5769048,7.91009446 C38.7363572,7.91009446 38.7363572,7.75121667 38.8178452,7.75121667 C38.9772977,7.67177778 39.0609881,7.75121667 39.1424762,7.67177778 C39.3036905,7.75121667 39.4635833,7.91009446 39.7045238,7.91009446 C39.78425,8.07116669 39.9476666,8.15236108 40.0234286,8.2318 C40.1066786,8.31123892 40.1868452,8.15236108 40.2665715,8.31123892 C40.4260238,8.2318 40.4260238,8.07116669 40.5079524,7.99128892 C40.5876786,7.99128892 40.5876786,8.07072777 40.6674047,8.07072777 C40.830381,8.07072777 40.830381,7.83021667 40.9937976,7.83021667 C41.0677976,7.75077778 41.0677976,7.67133889 41.15325,7.50895 C41.0677976,7.35007222 40.830381,7.35007222 40.830381,7.10956111 C40.7488929,7.10956111 40.5872381,7.02792778 40.5872381,6.95068333 C40.5075119,6.86905 40.6674047,6.86905 40.6674047,6.78961111 C40.3480595,6.78961111 40.3480595,6.38846667 40.3480595,6.38846667 C40.4260238,6.22958889 40.7488929,6.06676111 40.9937976,5.90788333 C42.5997738,5.02615555 44.2898809,4.06498889 45.8985,3.18545555 C47.9092738,2.06321667 49.7605952,1.10205 51.4524643,0.0618833333 C65.3662262,3.82623333 79.2865951,7.6709 93.206524,11.4339333 L93.206524,11.4339333 L93.206524,11.4339333 L93.206524,11.4339333 Z M40.1864048,8.31036108 L40.1864048,8.31036108 C40.1864048,8.3898 40.2661309,8.47099446 40.2661309,8.55043331 C40.2661309,8.47099446 40.3480595,8.3898 40.4255833,8.31036108 L40.1864048,8.31036108 L40.1864048,8.31036108 L40.1864048,8.31036108 L40.1864048,8.31036108 Z M77.1943333,12.3139055 L77.1943333,12.3139055 C77.2758214,12.3139055 77.2758214,12.3955389 77.2758214,12.3955389 C77.4392381,12.3955389 77.6022143,12.2366611 77.5211666,12.0755889 C77.2758214,11.9145167 77.1198928,12.1550278 77.1943333,12.3139055 L77.1943333,12.3139055 L77.1943333,12.3139055 L77.1943333,12.3139055 Z M81.624202,14.2379945 L81.624202,14.2379945 L81.7056903,14.2379945 C81.7056903,14.1568 81.7056903,14.1568 81.624202,14.1568 C81.624202,14.1568 81.5422737,14.2379945 81.624202,14.2379945 L81.624202,14.2379945 L81.624202,14.2379945 L81.624202,14.2379945 Z M82.2659763,14.7980167 L82.2659763,14.7980167 C82.4329163,14.7185778 82.6703334,14.7185778 82.6703334,14.8774555 C82.5073569,14.7980167 82.4329163,14.8774555 82.3439403,14.9568945 C82.2659763,14.8774555 82.2659763,14.7980167 82.1880123,14.7980167 C82.1880123,14.7980167 82.0245949,14.7980167 82.1060832,14.8774555 C82.1060832,14.8774555 82.1060832,14.9568945 82.1880123,15.0385278 C82.3439403,15.1179667 82.4329163,15.1179667 82.5884051,15.0385278 C82.6703334,15.0385278 82.6703334,15.1179667 82.7518217,15.1179667 C82.8333092,15.0385278 82.7518217,14.9568945 82.7518217,14.7980167 C82.7518217,14.7185778 82.6698926,14.7185778 82.6698926,14.6373833 C82.7518217,14.3174333 82.4324763,14.3973111 82.4324763,14.1568 C82.1060832,14.1568 82.1880123,14.5575055 82.2659763,14.7980167 L82.2659763,14.7980167 L82.2659763,14.7980167 L82.2659763,14.7980167 Z M80.896536,14.3174333 L80.896536,14.3174333 C80.9784643,14.3968722 81.1418809,14.4780667 81.0599526,14.6373833 C81.1418809,14.7190167 81.2229283,14.7190167 81.3863449,14.7980167 C81.4603454,14.7980167 81.5422737,14.7185778 81.623762,14.6373833 C81.4603454,14.5579445 81.1414408,14.5579445 81.0599526,14.3973111 C81.0599526,14.3178722 81.1418809,14.2384333 81.0599526,14.2384333 C80.9780235,14.2384333 80.9784643,14.3174333 80.896536,14.3174333 L80.896536,14.3174333 L80.896536,14.3174333 L80.896536,14.3174333 Z M81.4607854,15.1179667 L81.4607854,15.1179667 L81.4607854,15.2786 C81.7056903,15.2786 81.7056903,15.4374778 81.7871786,15.4374778 C81.9431074,15.4374778 82.106524,15.5186722 82.106524,15.3580389 C82.0245949,15.3580389 81.9431074,15.3580389 81.9431074,15.1991611 C82.106524,15.1991611 82.1884523,15.3580389 82.1884523,15.4374778 C82.2664163,15.4374778 82.2664163,15.3580389 82.3443811,15.2786 C82.1884523,15.2786 82.106964,15.1991611 82.106964,15.1179667 C81.8616191,15.0385278 81.7052503,15.1991611 81.4607854,15.1179667 L81.4607854,15.1179667 L81.4607854,15.1179667 L81.4607854,15.1179667 Z M82.9077497,15.59855 L82.9077497,15.59855 L82.9077497,15.5191111 L82.8333092,15.5191111 C82.7518217,15.59855 82.9077497,15.6797445 82.9077497,15.59855 L82.9077497,15.59855 L82.9077497,15.59855 L82.9077497,15.59855 Z" id="Shape"></path>
                        <path d="M107.853679,22.3280333 C107.935607,22.1674 107.772191,22.0067667 107.772191,21.9268889 C108.013131,22.0063278 108.013131,22.3280333 108.335559,22.2468389 C108.335559,22.8086167 108.736393,23.4480778 108.335559,23.7697833 C108.172583,23.9286611 107.772191,23.9286611 107.452845,24.0081 C106.406715,24.1687333 105.197167,24.2499278 104.314012,24.4092445 C104.633357,26.8933555 104.95975,29.3757111 105.278655,31.8580667 C105.437666,32.7376 105.437666,33.6215222 105.760976,34.1811055 C106.005881,34.5804945 106.406715,34.7411278 106.96656,34.5804945 C107.853238,34.4216167 108.172143,33.6210833 108.01269,32.4992833 C108.01269,32.1793333 107.934726,31.7781889 108.172143,31.6175555 C108.335119,31.5381167 108.735952,31.5381167 109.062345,31.4564833 C109.537179,31.4564833 109.9455,31.2181667 110.264405,31.4564833 C110.427381,31.5381167 110.427381,31.9370667 110.427381,32.1788945 C110.505345,32.4988445 110.505345,32.8187945 110.505345,33.0588667 C110.583309,34.8995667 110.026988,36.3435111 109.136786,37.1436055 C108.253631,38.1047722 106.643691,38.6647945 104.959309,38.7459889 C103.426893,38.8271833 102.139821,38.3448445 101.338155,37.54475 C100.692416,36.9035333 100.210095,36.0235611 100.046679,35.0606389 C99.8092623,34.0217889 99.7273332,32.8999889 99.5643574,31.7781889 C99.2419286,29.5363445 99.000548,27.3735 98.6812026,25.1316555 C98.440262,25.1316555 98.1173931,25.2110945 97.7170003,25.2110945 C97.230714,25.2905333 96.5889406,25.4516055 96.425524,25.1316555 C96.3440357,24.9705833 96.3440357,24.5698778 96.2625474,24.3293667 C96.2625474,23.9282222 96.1030951,23.3682 96.3444765,23.1281278 C96.425964,23.0469333 96.6708689,22.9674945 96.8303212,22.9674945 C99.0824763,22.0063278 100.292023,19.9251167 100.852309,17.2803722 C100.937321,16.9604222 100.937321,16.6404722 101.174738,16.5614722 C101.338155,16.4798389 101.979928,16.4004 102.139381,16.4004 C102.220869,16.4004 102.220869,16.4798389 102.380762,16.4798389 C102.465774,16.4798389 102.380762,16.3192055 102.465774,16.3192055 C102.785119,16.3192055 103.103584,16.3192055 103.185512,16.4798389 C103.185512,16.5614722 103.02606,16.4798389 102.940607,16.4798389 C103.025619,16.6404722 103.185512,16.7199111 103.341,16.6404722 C103.341,16.8809833 103.426453,17.1210555 103.426453,17.3615667 C103.267,17.2803722 103.185071,17.0416167 103.341,16.9604222 C103.267,16.8809833 103.267,16.79935 103.103584,16.79935 C103.025619,16.79935 103.103584,16.8809833 103.103584,16.9604222 C102.940607,16.9604222 102.866167,16.9604222 102.784678,17.0416167 C102.784678,17.2004945 102.940607,17.2799333 103.103584,17.2799333 C103.185512,17.4405667 103.341,17.6012 103.508381,17.6810778 C103.667393,19.1228278 103.83081,20.6457722 104.068226,22.0857667 C105.032428,21.9268889 106.07856,21.7658167 107.047607,21.6863778 C107.047607,21.6863778 107.047607,21.7658167 107.125571,21.7658167 C107.288548,21.8452555 107.366953,22.0857667 107.525964,22.2464 C107.690702,22.1674 107.772631,22.2468389 107.853679,22.3280333 L107.853679,22.3280333 L107.853679,22.3280333 L107.853679,22.3280333 Z M102.382084,16.6409111 L102.382084,16.6409111 C102.382084,16.72035 102.467095,16.7997889 102.467095,16.8814222 C102.382084,16.8814222 102.382084,16.8814222 102.300155,16.9608611 C102.382084,17.0420555 102.467095,16.9608611 102.541095,16.9608611 C102.623023,16.72035 102.541095,16.72035 102.467095,16.5614722 C102.467095,16.6409111 102.382084,16.6409111 102.382084,16.6409111 L102.382084,16.6409111 L102.382084,16.6409111 L102.382084,16.6409111 Z" id="Shape"></path>
                        <path d="M70.3603453,19.5239722 C71.806869,19.4445333 72.7719523,20.0045555 73.2538333,20.8845278 C73.4987381,21.5257445 73.5731786,22.4869111 73.2538333,23.1285667 C72.5266071,24.4908778 70.115,25.1320945 68.5050595,24.4908778 C67.7038333,24.1691722 66.9021667,23.2892 66.9766071,22.0067667 C67.0580953,21.4467445 67.3025595,20.8845278 67.6219048,20.5650167 C68.0227381,20.1656278 68.7499643,19.7627278 69.4771905,19.60385 C69.7146071,19.60385 70.0335119,19.5239722 70.3603453,19.5239722 L70.3603453,19.5239722 L70.3603453,19.5239722 L70.3603453,19.5239722 Z" id="Shape"></path>
                        <path d="M85.8906551,39.7892278 C86.0496666,40.6674445 86.1280714,41.4701722 86.291048,42.3527778 C86.291048,42.7521667 86.4540237,43.1515555 86.6914408,43.3135055 C86.9328214,43.3916278 87.4116191,43.4693111 87.8194997,43.3916278 C88.2203334,43.3916278 88.6211663,43.3135055 88.7841429,43.46975 C89.0290477,43.7133333 89.0290477,44.1127222 89.1034883,44.4339889 C89.1034883,44.7552555 89.266464,45.1550833 89.1034883,45.3947167 C88.9475594,45.6356667 88.38375,45.6356667 87.978952,45.7168611 C85.4078931,46.1153722 82.8328691,46.4335667 80.2547617,46.7548333 C79.8543689,46.7548333 79.1267023,46.91415 78.96725,46.7548333 C78.7263095,46.6775889 78.7263095,46.1970055 78.6483452,45.7941055 C78.5664167,45.3947167 78.4849286,44.9145722 78.6483452,44.7552555 C78.8073572,44.5116722 79.4491309,44.5116722 79.7684763,44.4339889 C80.0138212,44.3523555 80.414214,44.1939167 80.4957023,43.87265 C80.6586788,43.3916278 80.4957023,42.4309 80.413774,41.7914389 C79.8539288,37.7040667 79.3676426,33.7009611 78.8073572,29.6162222 C78.7258691,28.8951278 78.5664167,28.0950333 78.1655833,27.9339611 C77.9206785,27.8523278 77.6017738,27.8523278 77.356869,27.8523278 C77.0375238,27.8523278 76.7115714,27.9339611 76.4741548,27.8523278 C76.2288095,27.69345 76.2288095,27.2945 76.2288095,26.8929167 C76.1468809,26.5712111 76.072881,26.0906278 76.1468809,25.8505555 C76.2288095,25.6916778 76.5477143,25.6100445 76.9560357,25.5306055 C78.966369,25.2900945 80.658238,24.9705833 82.4320354,24.49 C82.7513809,24.4083667 83.0698454,24.2494889 83.311226,24.4083667 C83.793548,24.5694389 83.6340949,25.6096055 83.793548,26.1718222 C83.9530003,26.0089945 84.0349286,25.8505555 84.1979051,25.6912389 C85.1625474,24.5694389 86.691,23.6877111 88.783702,23.6082722 C90.1491788,23.5266389 91.5217026,23.9282222 92.4048574,24.49 C93.3694997,25.0500222 94.1746906,25.8505555 94.7424643,26.7318445 C95.9445237,28.4931055 96.6717497,31.2971667 96.3453574,34.0217889 C96.103976,36.5835833 94.8983931,38.6647945 93.051036,39.78835 C92.1608334,40.3488111 90.8768449,40.7482 89.5118097,40.7482 C88.1388451,40.7490778 86.9328214,40.3496889 85.8906551,39.7892278 L85.8906551,39.7892278 L85.8906551,39.7892278 L85.8906551,39.7892278 Z M85.9646548,27.2945 L85.9646548,27.2945 C85.4078931,27.61445 84.9220477,28.2539111 84.7625954,28.9745667 C84.521214,30.0963667 84.8405594,31.2186055 84.9216069,32.1793333 C85.0810592,33.2993778 85.1629883,34.5804945 85.4078931,35.6228555 C85.6453094,36.6634611 86.1280714,37.3841167 86.8548574,37.7852611 C87.5785592,38.18465 88.4577497,38.18465 89.266464,37.7036278 C89.9901666,37.2230445 90.476012,36.3435111 90.476012,35.0606389 C90.476012,34.5006167 90.3125954,33.7000833 90.2311071,33.0588667 C90.1491788,32.41765 90.0751783,31.7781889 89.9897265,31.1365333 C89.748786,29.2936389 89.5113689,27.6135722 88.1384051,27.0517945 C87.8190597,26.8929167 87.3371786,26.9701611 87.0103454,26.9701611 C86.6103926,27.0526722 86.2095597,27.1321111 85.9646548,27.2945 L85.9646548,27.2945 L85.9646548,27.2945 L85.9646548,27.2945 Z" id="Shape"></path>
                        <path d="M73.3357619,25.6109222 C73.7361548,25.5314833 73.8180833,25.7719945 73.8995715,26.3320167 C74.4594167,30.2561222 74.9457024,34.0231055 75.4280238,38.02665 C75.5024643,38.5072333 75.5914405,39.3889611 75.9103453,39.5478389 C76.3111785,39.7067167 76.9569167,39.4684 77.2758214,39.6290333 C77.5211666,39.7896667 77.5211666,40.1873 77.6022143,40.5902 C77.6022143,40.9895889 77.765631,41.4706111 77.6022143,41.7106833 C77.4392381,41.8735111 76.9569167,41.9507555 76.5485953,41.9507555 C74.0590238,42.2720222 71.806869,42.5902167 69.3137738,42.9114833 C68.9873809,42.9896055 68.4235714,43.0708 68.1857143,42.9114833 C67.9443334,42.7530445 67.9443334,42.3536555 67.8632857,41.9507555 C67.8632857,41.5478555 67.7853214,41.1484667 67.9447738,40.9119055 C68.1046667,40.6683222 68.5869881,40.6683222 68.9058928,40.5906389 C69.1512381,40.5090055 69.551631,40.4304445 69.7150476,40.1104945 C69.8780238,39.8695445 69.7965357,39.2265722 69.7150476,38.7477445 C69.4776309,36.3448278 69.1512381,34.3413 68.8318929,31.7795055 C68.7499643,31.2989222 68.7499643,30.8977778 68.6684762,30.4171945 C68.5869881,29.9366111 68.5055,29.3765889 68.1861548,29.2953945 C67.9447738,29.1365167 67.6223452,29.1365167 67.303,29.1365167 C66.9770477,29.1365167 66.5762143,29.2159555 66.4127976,29.1365167 C66.1753809,28.9758833 66.1753809,28.5764945 66.0938929,28.17535 C66.0938929,27.7742055 65.9304762,27.3752555 66.0119643,27.2141833 C66.0938929,26.9719167 66.49825,26.8942333 66.8171548,26.8130389 C68.8314523,26.5725278 70.67925,26.2530167 72.4526072,25.8518722 C72.7719523,25.7715555 73.0128928,25.6109222 73.3357619,25.6109222 L73.3357619,25.6109222 L73.3357619,25.6109222 L73.3357619,25.6109222 Z" id="Shape"></path>
                        <path d="M56.758881,36.5050222 C56.9222976,37.7045055 57.0852738,38.7468667 57.4861071,39.7892278 C57.8865,40.7490778 58.6141667,41.7098055 59.8977143,41.7914389 C61.3486429,41.9498778 62.1494286,41.4701722 62.7912024,40.8298333 C63.3554524,40.3496889 63.6814048,39.7892278 63.8377738,38.9079389 C63.9192619,38.6656722 63.9192619,38.10565 64.1641667,37.9467722 C64.3200952,37.8655778 64.5645595,37.8655778 64.7279762,37.8655778 C64.8839048,37.7861389 65.0468809,37.7861389 65.2878214,37.7861389 C65.6106905,37.7045055 66.1745,37.6255055 66.3343929,37.7861389 C66.6568215,38.0262111 66.4973691,38.9079389 66.3343929,39.3090833 C66.0930119,40.8298333 65.3657857,42.0284389 64.4011429,42.8342389 C62.9541786,44.1131611 60.6205357,44.7561333 58.1314048,44.5941833 C58.0494762,44.51255 58.0494762,44.3532333 58.0494762,44.2759889 L57.8041309,44.2759889 C57.8041309,44.1131611 57.4852262,44.0315278 57.6411548,43.8730889 C57.4852262,43.7949667 57.3218095,43.6321389 57.2407619,43.3920667 C56.9954167,43.3920667 56.758,43.3139445 56.758,43.5505055 C56.5950238,43.46975 56.6800357,43.3139445 56.5205833,43.3139445 C56.2796428,43.3139445 56.1179881,43.1519945 56.0342976,43.0703611 C55.8770477,42.9887278 55.8770477,43.2331889 55.7131905,43.1519945 C55.5519762,43.0703611 55.47225,42.9891667 55.3925238,42.8338 C55.1515834,42.6709722 54.8265119,42.5081445 54.5890952,42.4309 C54.3481547,42.4309 54.1050119,42.3527778 53.8618691,42.4309 C53.7821428,42.5081445 53.9433572,42.6709722 53.7821428,42.7521667 C53.6209286,42.7521667 53.4610357,42.5893389 53.2200952,42.6705333 C52.0942381,41.6281722 51.2872857,40.34925 50.8049643,38.6652333 C50.3244047,36.8245333 50.3244047,34.7415667 50.8049643,32.9798667 C51.2872857,31.4569222 52.3334167,30.0151722 53.5429643,29.1352 C54.7485476,28.1740333 56.4386548,27.6140111 58.3679405,27.5328167 C60.7795476,27.3739389 62.6343928,28.4145445 63.7584881,29.6162222 C64.7266547,30.7380222 65.4463929,32.2592111 65.7727857,34.1815445 C65.8547143,34.5809333 65.9287143,35.0615167 65.6908571,35.3015889 C65.4459523,35.3810278 64.9640715,35.4622222 64.6447262,35.4622222 C61.9904167,35.8616111 59.2524167,36.1833167 56.758881,36.5050222 L56.758881,36.5050222 L56.758881,36.5050222 L56.758881,36.5050222 Z M58.6141667,30.0968055 L58.6141667,30.0968055 C58.3692619,30.0156111 58.0503572,29.9361722 57.7239643,30.0156111 C56.0356191,30.1762445 56.1955119,32.4997222 56.5219048,34.1815445 C57.5680357,34.0226667 58.7700952,33.8615945 59.8162262,33.7009611 C59.5788095,32.4180889 59.5788095,30.6568278 58.6141667,30.0968055 L58.6141667,30.0968055 L58.6141667,30.0968055 L58.6141667,30.0968055 Z" id="Shape"></path>
                        <path d="M43.4032024,32.2592111 C42.5997738,31.6991889 41.3122619,32.0191389 40.830381,32.4997222 C39.5428691,33.7009611 39.6208333,36.9044111 39.9476666,39.1480111 C40.1071191,40.2698111 40.4260238,41.3104167 40.830381,42.18995 C41.3127024,43.2331889 42.0399285,44.1127222 43.6445833,44.0310889 C45.3346905,43.87265 46.221369,42.5893389 46.6222024,41.0703445 C46.6222024,40.9110278 46.7036905,40.5893222 46.7036905,40.2698111 C46.7851785,39.8686667 46.7036905,39.3880833 47.0225953,39.2256945 C47.2675,39.1480111 47.6683333,39.1480111 48.0726905,39.0668167 C48.4735238,39.0668167 48.7963929,38.9079389 49.0390952,39.14845 C49.1985476,39.3090833 49.1985476,39.7896667 49.1985476,40.1100555 C49.1183809,42.5085833 48.1541786,44.3532333 46.7851785,45.3955945 C45.4976666,46.2760055 43.6445833,46.9154667 41.4743571,46.75615 C38.1760714,46.5977111 35.9203929,44.8342555 34.7126072,42.4313389 C34.0690714,41.1480278 33.5087857,38.9873778 33.7497262,36.8249722 C33.7497262,36.5849 33.8294524,36.2631945 33.9091785,35.9432445 C33.9924285,35.6232945 33.9924285,35.22215 34.1523214,35.0615167 C34.23425,34.9820778 34.23425,34.9820778 34.3937023,34.9004445 C34.3937023,34.6621278 34.23425,34.8210055 34.3117738,34.5804945 C34.3937023,34.4216167 34.7940952,34.4216167 34.8755833,34.1811055 C34.9535477,34.1811055 35.039,34.1811055 35.113,34.1016667 C35.1984523,34.0222278 35.2781786,33.8615945 35.3579048,33.7804 C35.5195595,33.7009611 35.5195595,33.8615945 35.5992857,33.8615945 C35.7587381,33.7009611 36.0855714,33.8615945 36.3265119,33.7009611 C36.4044762,33.5420833 36.0855714,33.6215222 36.0855714,33.4608889 C36.2450238,33.38145 36.2450238,33.1409389 36.1635357,32.9008667 C36.1635357,32.7380389 36.0855714,32.7380389 36.0001191,32.6607945 C35.7591786,32.25965 36.0855714,31.8585055 36.4044762,31.7790667 C36.4044762,31.6184333 36.4859643,31.6184333 36.5661309,31.5389945 C36.8070714,31.2984833 37.2096667,31.0584111 37.6105,30.8179 C38.7363572,30.1766833 40.1872857,29.6961 41.8751905,29.6166611 C43.9714166,29.5372222 45.7390476,30.1766833 46.7851785,31.13785 C47.5903691,31.8589445 48.3118691,32.9807445 48.2356667,34.2614222 C48.2356667,36.0248778 46.7851785,36.9044111 45.0972738,36.8249722 C43.5648572,36.6643389 42.4407619,35.6237333 42.6002143,34.0231055 C42.6812619,33.2998167 43.0006071,32.9004278 43.4032024,32.2592111 L43.4032024,32.2592111 L43.4032024,32.2592111 L43.4032024,32.2592111 Z" id="Shape"></path>
                        <path d="M24.6565357,31.8580667 L24.7362619,31.8580667 C24.9776428,32.0981389 25.3000714,32.2592111 25.5414523,32.4180889 C25.7044286,32.5787222 25.5414523,32.6603555 25.7823928,32.7380389 C25.9440476,32.7380389 25.7823928,32.5791611 25.8643215,32.4180889 C26.0237738,32.33865 26.2669166,32.33865 26.4263691,32.2592111 L26.5096191,32.2592111 C26.5875833,32.1797722 26.4263691,32.0985778 26.5875833,32.0985778 C28.2794524,32.4997222 29.4850357,33.38145 30.4496786,34.7415667 C31.0914523,35.7027333 31.4958095,36.8245333 31.8186786,38.1850889 C31.8966429,38.5862333 32.0618214,39.3090833 31.8966429,39.5474 C31.7371905,39.7892278 31.2548691,39.7892278 30.8522738,39.8686667 C28.1979643,40.1868611 25.5414523,40.5081278 22.8871429,40.9110278 C23.0465953,41.9498778 23.2100119,42.8338 23.4491905,43.7133333 C23.7720595,44.5121111 24.0909643,45.3135222 24.7367023,45.7945445 C24.9780833,45.9538611 25.3005119,46.1158111 25.623381,46.1158111 C26.7514405,46.4340055 27.9548214,45.9538611 28.5987977,45.5544722 C29.4035477,44.9922555 29.8858691,44.0310889 30.0457619,42.9110445 C30.1312143,42.6709722 30.1312143,42.4309 30.2906666,42.3532167 C30.4501191,42.1903889 31.0174524,42.1903889 31.4182857,42.1096333 C31.819119,42.1096333 32.301,41.9503167 32.4626548,42.1903889 C32.7057977,42.3532167 32.6221071,42.9891667 32.5423809,43.3920667 C32.0618214,46.3572 30.1307738,48.1202167 27.3945357,48.7557278 C25.6229405,49.1586278 23.6121667,49.0001889 22.0832738,48.6003611 C20.5548214,48.1202167 19.4272024,47.2398055 18.5405238,46.11625 C17.2565357,44.51255 16.3702976,42.1903889 16.6112381,39.2256945 C16.8504167,36.5844611 17.9767143,34.7415667 19.7496309,33.4608889 C20.7142738,32.7380389 21.9995833,32.1797722 23.5302381,31.9379445 C23.7711786,31.9379445 24.0125595,31.8585055 24.2552619,31.8585055 L24.3349881,31.8585055 C24.4164762,31.9379445 24.4164762,31.9379445 24.4944405,31.9379445 C24.576369,31.9379445 24.576369,31.8580667 24.6565357,31.8580667 L24.6565357,31.8580667 L24.6565357,31.8580667 L24.6565357,31.8580667 Z M25.2221072,32.4180889 L25.2221072,32.4180889 C25.3000714,32.4997222 25.3000714,32.5787222 25.4630477,32.4997222 C25.4630477,32.4180889 25.3000714,32.33865 25.2221072,32.4180889 L25.2221072,32.4180889 L25.2221072,32.4180889 L25.2221072,32.4180889 Z M24.7358214,34.5010555 L24.7358214,34.5010555 C24.4948809,34.3404222 24.1759762,34.3404222 23.8491429,34.4216167 C22.1607977,34.5804945 22.3242143,36.9039722 22.6453215,38.5063555 C23.6896905,38.3452833 24.8970357,38.2658445 25.9436072,38.1052111 C25.7039881,36.7433389 25.7039881,34.9820778 24.7358214,34.5010555 L24.7358214,34.5010555 L24.7358214,34.5010555 L24.7358214,34.5010555 Z" id="Shape"></path>
                        <path d="M10.0943929,37.5456278 C9.3689286,37.7857 9.28920237,38.8280611 9.20727383,39.7062778 C9.12930949,41.8730722 9.44865474,43.5505055 9.69179763,45.3951555 C9.77372617,46.0346167 9.85125,47.6391945 10.3353334,47.8757555 C10.6564405,48.0385833 10.9793095,48.0385833 11.3797024,48.0385833 C11.7840595,47.95695 12.1848928,47.8757555 12.5077619,47.95695 C12.7469405,48.1197778 12.7469405,48.5182889 12.830631,48.9176778 C12.830631,49.2358722 12.9900833,49.8784055 12.830631,50.1193555 C12.6672143,50.2009889 12.1073691,50.2777945 11.7845,50.3594278 C9.20771426,50.6806945 6.31246429,51.0024 3.82113095,51.3201555 C3.65991667,51.4017889 3.73920238,51.2385222 3.73920238,51.2385222 C3.65947619,51.1612778 3.57975,51.1612778 3.49429762,51.2385222 C3.49429762,51.0019611 3.33660714,51.0019611 3.33660714,50.8400111 C3.25335714,50.6806945 3.17715476,50.6806945 3.01417857,50.5990611 C3.01417857,50.4406222 3.17759524,50.5218167 3.09390476,50.4406222 C2.85296428,50.20055 2.53361905,50.20055 2.53361905,49.8784055 C2.45036905,49.7199667 2.20898809,49.8784055 2.20898809,49.7199667 C2.1275,49.0805055 2.77279762,49.2354333 3.33704762,49.0805055 C3.82157143,48.9176778 4.22196429,48.75485 4.22196429,48.1197778 C4.22196429,47.7203889 4.14047619,47.2393667 4.06030952,46.7552722 C3.73920238,44.1939167 3.4947381,41.7098055 3.09390476,39.0663778 C3.01417857,38.5063555 2.93445238,37.8651389 2.53361905,37.7040667 C1.96804762,37.46575 1.16285715,37.7857 0.843511906,37.5451889 C0.602571429,37.46575 0.602571429,37.0646055 0.517119047,36.6634611 C0.517119047,36.3435111 0.357666667,35.8611722 0.439154762,35.6228555 C0.517119047,35.4617833 0.843511906,35.3805889 1.24434523,35.30115 C3.25335714,35.0610778 4.94302381,34.7411278 6.79830952,34.2605445 C7.03748809,34.1811055 7.43832143,34.0222278 7.68102381,34.1016667 C7.92020238,34.1811055 7.92020238,34.7415667 8.00389286,35.1422722 C8.08185712,35.6228555 8.16334523,35.9428055 8.16334523,36.42295 C8.24483334,36.42295 8.3227976,36.2623167 8.3227976,36.1828778 C8.72715474,35.6228555 9.04826189,35.1422722 9.61030951,34.6616889 C10.2520834,34.1811055 10.8978214,33.7799611 11.9457143,33.7799611 C12.1073691,33.7005222 12.1848928,33.7005222 12.3465476,33.7799611 C14.1996309,33.8611555 15.4853809,35.1422722 15.5633452,36.9035333 C15.6448333,37.7036278 15.3241667,38.5059167 14.7599167,39.0659389 C13.875,39.9476667 11.7030119,40.2693722 10.7383691,39.3082055 C10.3353334,38.9075 10.1758809,38.4273555 10.0943929,37.5456278 L10.0943929,37.5456278 L10.0943929,37.5456278 L10.0943929,37.5456278 Z" id="Shape"></path>
                        <path d="M85.0815,50.5231333 C85.0815,50.6003778 85.0000117,50.5231333 84.9220477,50.5231333 C84.9220477,50.6815722 85.0004526,50.7596945 84.9220477,50.9225222 C84.9220477,51.0809611 85.2449166,51.0809611 85.1634283,51.2398389 C85.0004526,51.4843 84.7630354,51.3214722 84.5216548,51.1625945 C84.4362023,51.0809611 84.3622026,50.9225222 84.198786,50.9225222 C84.1172977,51.0032778 84.2807143,51.1625945 84.198786,51.2398389 C84.2807143,51.4026667 84.3622026,51.4843 84.3622026,51.7208611 C84.3622026,51.8836889 84.198786,51.7208611 84.1172977,51.7208611 C84.198786,51.8836889 84.3622026,52.0421278 84.6811071,52.0421278 C84.7630354,52.1237611 84.9220477,52.2014445 85.0004526,52.3633945 C85.1634283,52.4450278 85.2453574,52.5262222 85.4083332,52.6043445 C85.7276786,55.4838945 86.1285123,58.2892722 86.5328694,61.1727722 C86.7738092,60.8515055 87.0112263,60.4516778 87.3376194,60.0522889 C87.9014288,59.3311945 88.4581906,58.6917333 88.9475594,57.8903222 C89.1034883,57.6493722 89.671262,57.0064 89.5118097,56.5258167 C89.5118097,56.2076222 88.9475594,56.0456722 88.5471666,56.0456722 C88.1388451,55.96755 87.7384523,56.0456722 87.501036,55.8091111 C87.3376194,55.6462833 87.4120592,55.2468945 87.3376194,55.0024333 C87.3376194,54.7658722 87.2561311,54.4485555 87.3376194,54.1229 C87.501036,53.8828278 87.9014288,53.8828278 88.3841908,53.8047055 C90.476452,53.5646333 92.7246429,53.2433667 94.7433451,53.0068055 C94.899274,53.08405 94.5799286,53.1621722 94.5799286,53.2433667 C94.6578926,53.48695 94.9807623,53.48695 94.8173449,53.8047055 C94.899274,53.9675333 95.0622497,54.0456555 95.2996668,54.0456555 C95.4630834,54.2857278 95.7859523,54.4485555 96.1048569,54.6034833 C96.186786,54.6034833 96.1048569,54.4481167 96.2643092,54.4481167 C96.3462383,54.4481167 96.2643092,54.5253611 96.3462383,54.6034833 C96.3462383,54.6851167 96.5911431,54.5253611 96.509214,54.6851167 C96.509214,55.0024333 96.3462383,54.6851167 96.2643092,54.8435555 C96.1048569,54.9251889 96.4272857,54.9251889 96.3462383,55.0019945 C96.0268929,55.1648222 95.704024,55.1648222 95.3851194,55.2464555 C94.4984403,55.4830167 93.8527026,55.96755 93.2888931,56.6070111 C92.568714,57.4093 91.9234163,58.2888333 91.2781194,59.1727555 C92.8880594,61.0138945 94.4988811,63.0174222 96.186786,64.9393167 C96.6730714,65.4980222 97.3179283,66.2998722 98.1195949,66.4591889 C98.4424645,66.5408222 99.0027497,66.4591889 99.1661663,66.6992611 C99.3220951,66.7808945 99.3220951,67.1802833 99.4110712,67.50155 C99.4850717,67.9825722 99.567,68.4622778 99.4110712,68.7032278 C99.2441311,68.7839833 98.7653334,68.8616667 98.3644997,68.9397889 C96.187226,69.1833722 94.0980474,69.4199333 91.8423689,69.7455889 C91.3600477,69.8228333 90.6328217,70.0637833 90.4768929,69.6639555 C90.3918811,69.4194945 90.3918811,69.1017389 90.3134763,68.8616667 C90.231988,68.3806445 90.0760592,67.8228167 90.3918811,67.6599889 C90.7178334,67.50155 91.1186663,67.5792333 91.4380117,67.3426722 C90.959214,66.5403833 90.2324288,65.9009222 89.671702,65.2570722 C89.1043691,64.6176111 88.4586306,63.8965167 87.9018689,63.2539833 C87.5794408,63.57525 87.2565712,63.97815 86.9337023,64.3779778 C87.0116663,65.2575111 87.0931546,66.1379222 87.2565712,66.9393333 C87.3380594,67.2614778 87.4125,67.5796722 87.579,67.6604278 C87.9014288,67.9825722 88.9475594,67.5796722 89.1849765,68.0598167 C89.2669048,68.2226445 89.2669048,68.6220333 89.2669048,68.8621055 C89.3488332,69.3431278 89.5122497,69.7460278 89.2669048,69.9825889 C89.1039283,70.1445389 88.5471666,70.1445389 88.1388451,70.2261722 C85.8091668,70.5443667 83.6349765,70.784 81.2978097,71.1065833 C80.8150477,71.1882167 80.0957503,71.4247778 79.8548097,71.1065833 C79.6953574,70.9437555 79.6953574,70.6255611 79.6134283,70.3042945 C79.6134283,69.8232722 79.3685235,69.3435667 79.6134283,69.1026167 C79.7693571,68.9406667 80.2552026,68.9406667 80.5776306,68.8625445 C81.1418809,68.7041055 81.5422737,68.5412778 81.5422737,67.8236945 C81.5422737,67.1807222 81.3863449,66.5412611 81.2973689,65.8206055 C80.8146069,62.0575722 80.2547617,58.1312722 79.7684763,54.2054111 C79.6944765,53.4878278 79.6125474,52.5271 79.2861551,52.2835167 C78.6483452,51.8841278 77.6017738,52.3642722 77.2753809,51.9653222 C77.1938929,51.8024945 77.1938929,51.4843 77.1194524,51.1630333 C77.0375238,50.6820111 76.9564762,50.2791111 77.1194524,50.04255 C77.2753809,49.8797222 77.6792976,49.7989667 78.0026072,49.7989667 C80.0133811,49.5624055 81.8611783,49.1586278 83.5530474,48.6784833 C83.793988,48.6003611 84.1168569,48.4384111 84.3617617,48.4384111 C84.9216069,48.4384111 84.9216069,48.99975 85.0000117,49.4807722 C85.0004526,49.8792833 85.0815,50.1202333 85.0815,50.5231333 L85.0815,50.5231333 L85.0815,50.5231333 L85.0815,50.5231333 Z M84.5216549,50.9225222 L84.5216549,50.9225222 C84.6811071,50.9225222 84.6811071,50.8408889 84.6811071,50.6815722 L84.5216549,50.6815722 C84.5991788,50.7596945 84.5216549,50.8408889 84.5216549,50.9225222 L84.5216549,50.9225222 L84.5216549,50.9225222 L84.5216549,50.9225222 Z M84.1172977,50.9225222 L84.1172977,50.9225222 C84.1172977,50.7596945 83.9538811,50.7596945 83.8798806,50.7596945 C83.9538811,50.8408889 83.9538811,50.9225222 84.1172977,50.9225222 L84.1172977,50.9225222 L84.1172977,50.9225222 L84.1172977,50.9225222 Z" id="Shape"></path>
                        <path d="M22.3246547,63.8157611 C22.3246547,63.8157611 22.1612381,63.8973945 22.1612381,63.8157611 C22.0832738,63.7350055 22.1612381,63.7350055 22.2431666,63.7350055 C22.2431666,63.6568833 22.2431666,63.5756889 22.1612381,63.4168111 C22.4026191,63.4168111 22.4858691,63.2539833 22.5655952,63.3351778 C22.6453215,63.1758611 22.72725,63.0942278 22.8867024,63.0169833 C23.0461547,63.0942278 23.1298453,63.0169833 23.3707857,63.0169833 C23.44875,62.93535 23.2888571,62.7725222 23.5302381,62.7725222 C23.5302381,62.6140833 23.2888571,62.6140833 23.209131,62.5359611 C23.1294047,62.3740111 23.0457143,62.0558167 23.209131,61.9746222 C23.1294047,61.8117945 22.9659881,61.73455 22.8030119,61.73455 C22.72725,61.5752333 22.5655952,61.4936 22.4858691,61.4124055 C22.4858691,61.1723333 22.1612381,61.1723333 22.1612381,60.8510667 C21.9202976,60.8510667 21.8401309,60.8510667 21.7586428,60.6957 C21.5991905,60.2146778 21.5991905,59.7340945 21.1983572,59.5717055 C20.7142738,59.4088778 19.9090834,59.7336555 19.5086905,59.5717055 C19.26775,59.4900722 19.26775,59.0906833 19.1858214,58.5293445 C19.1078571,58.0483222 19.0228453,57.5677389 19.3452738,57.4088611 C19.5086905,57.3272278 19.9090834,57.2495445 20.2319524,57.2495445 C22.1607977,57.0059611 23.930631,56.6065722 25.7039881,56.12555 C26.1065833,56.0447945 26.5871428,55.7270389 26.8263214,56.0447945 C26.9095714,56.2067445 26.9879762,56.5249389 26.9879762,56.8462055 C27.232881,58.7724889 27.4720595,60.6952611 27.7949286,62.6136445 C28.99875,61.4931611 30.6113333,60.4508 33.1876785,60.6105555 C35.4393928,60.6952611 37.1295,61.9741833 38.2553571,63.3347389 C38.8174048,64.1370278 39.22,65.0165611 39.5424285,65.9772889 C40.0229881,67.3417945 40.2661309,68.70235 40.1864048,70.5426111 C40.1062381,72.78665 39.22,74.4684722 38.0157381,75.6662 C37.3722024,76.31005 36.6449762,76.7901945 35.7582977,77.10795 C34.5527143,77.5889722 33.2652024,77.91375 31.5768572,77.8321167 C30.6901785,77.7504833 29.8035,77.51085 29.1634881,77.1891445 C28.4384643,76.87095 27.7944881,76.4715611 27.2324405,75.9914167 C26.9095714,76.6264889 26.5867024,77.3519722 26.2660357,78.0726278 C26.1863095,78.3127 26.0228929,78.6304555 25.8634405,78.7120889 C25.7039881,78.7937222 25.381119,78.7937222 25.1362143,78.7937222 C24.735381,78.8744778 24.4164762,78.9521611 24.1755357,78.7937222 C24.0121191,78.6308945 24.0121191,78.2315055 23.930631,77.9133111 C23.3703452,73.3444778 22.7268095,68.4609611 22.1607977,63.9768333 C22.1607977,64.13615 22.4021786,64.13615 22.5651548,63.9768333 C22.4858691,63.9785889 22.4021786,63.8969555 22.3246547,63.8157611 L22.3246547,63.8157611 L22.3246547,63.8157611 L22.3246547,63.8157611 Z M23.5302381,62.4552055 L23.5302381,62.4552055 C23.4483095,62.4552055 23.4483095,62.37445 23.3707857,62.37445 C23.3707857,62.4552055 23.4483095,62.5368389 23.5302381,62.4552055 L23.5302381,62.4552055 L23.5302381,62.4552055 L23.5302381,62.4552055 Z M22.4858691,63.7350055 L22.4858691,63.7350055 C22.6453215,63.7350055 22.72725,63.6568833 22.72725,63.5756889 C22.6453215,63.4984445 22.5655952,63.41725 22.4026191,63.4984445 C22.4021786,63.5756889 22.4858691,63.6573222 22.4858691,63.7350055 L22.4858691,63.7350055 L22.4858691,63.7350055 L22.4858691,63.7350055 Z M30.5307262,63.6573222 L30.5307262,63.6573222 C28.037631,63.8157611 28.4384643,67.4203555 28.6816071,69.7460278 C28.9207857,71.4243389 29.2436548,73.4278667 30.0448809,74.3885945 C30.2100595,74.6286667 30.5307262,74.8696167 30.7721072,75.0315667 C31.4174048,75.3497611 32.5419405,75.2725167 33.1872381,74.9508111 C34.5527143,74.0704 34.233369,71.02495 33.9919881,69.1833722 C33.8290119,68.3038389 33.6677976,67.3431111 33.5079047,66.6176278 C33.1867976,65.4980222 32.7044762,64.0597833 31.4953691,63.7350055 C31.2544286,63.6573222 30.7721072,63.6573222 30.5307262,63.6573222 L30.5307262,63.6573222 L30.5307262,63.6573222 L30.5307262,63.6573222 L30.5307262,63.6573222 Z" id="Shape"></path>
                        <path d="M59.8162262,73.5090611 C59.8162262,73.3462333 59.8981547,73.3462333 59.8162262,73.1096722 C59.7382619,73.1096722 59.7382619,72.8652111 59.7382619,72.7884055 C59.6602976,72.4671389 59.5788095,71.9044833 59.7382619,71.6679222 C59.8977143,71.5050945 60.4619643,71.4243389 60.7064286,71.3431445 C61.0257738,71.2650222 61.3486429,71.1877778 61.5076547,70.9437555 C61.6710714,70.6255611 61.5895834,70.0642222 61.5895834,69.5832 C61.2631905,67.0990889 61.0257738,65.0990722 60.6214166,62.6149611 C60.5434524,61.8938667 60.5434524,60.4521167 60.061131,60.13085 C59.5788095,59.8126555 58.6146071,60.13085 58.21025,59.8907778 C57.9688691,59.8126555 57.9688691,59.4097555 57.9688691,59.0103667 C57.8869405,58.6921722 57.8054524,58.2124667 57.8869405,57.9680055 C57.9688691,57.8095667 58.2877738,57.7314445 58.6141667,57.6498111 C60.7064286,57.4097389 62.3908095,57.0884722 64.1646071,56.60745 C64.4020238,56.5258167 64.8099047,56.3673778 65.0473215,56.4490111 C65.3666666,56.5262555 65.3666666,57.0884722 65.4481547,57.4869833 C65.4481547,57.8907611 65.5300834,58.2892722 65.5300834,58.6921722 C66.6581428,57.1696667 68.1861548,56.0461111 70.67925,55.9679889 C72.2891905,55.80955 73.4987381,56.3673778 74.3004047,57.2504222 C75.9103453,58.9287333 76.1477619,61.9755 76.4750357,64.859 C76.6380119,65.9013611 76.7124523,67.0990889 76.9573571,68.14145 C77.0388452,68.5408389 77.1203333,68.9402278 77.4396786,69.1021778 C77.6026547,69.1838111 77.922,69.1838111 78.2409047,69.1021778 C78.5672976,69.1021778 78.9676905,69.1021778 79.1275834,69.1838111 C79.287476,69.2654445 79.3689643,69.6648333 79.3689643,70.1445389 C79.4504526,70.5439278 79.6138691,71.02495 79.3689643,71.1877778 C79.287036,71.4243389 78.8086785,71.4243389 78.3223929,71.5050945 C75.9107857,71.8232889 73.5740595,72.1489445 71.1620119,72.4667 C70.7616191,72.4667 70.2792977,72.5483333 70.0339524,72.4667 C69.7965357,72.3038722 69.7965357,71.9044833 69.7965357,71.5050945 C69.7150476,71.1877778 69.6335595,70.784 69.7150476,70.4627333 C69.9559881,70.0642222 71.0025595,70.2261722 71.1615714,69.7460278 C71.3249881,69.3431278 71.1615714,68.7844222 71.1615714,68.3815222 C70.8426667,66.2195555 70.5237619,63.9790278 70.2788571,61.8943055 C70.1154405,60.8519445 70.0335119,59.4913889 69.1507976,59.1736333 C68.4235714,59.0108055 67.4589285,59.5730222 67.2175476,59.9715333 C66.4123571,61.0920167 66.5757738,63.5761278 66.8171548,65.25795 C66.9021667,66.4596278 67.1395834,67.8236945 67.303,69.1838111 C67.3774405,69.7460278 67.4589285,70.2261722 67.7857619,70.3815389 C68.1861548,70.5443667 68.8318929,70.2261722 69.1512381,70.4631722 C69.3142143,70.626 69.3142143,70.9441945 69.3921786,71.4247778 C69.4776309,71.8232889 69.551631,72.3043111 69.3921786,72.5487722 C69.2331667,72.7072111 68.7504047,72.7072111 68.3460476,72.7888445 C65.9309167,73.1101111 63.6822857,73.4283055 61.3490833,73.6683778 C60.9442857,73.7500111 60.3804762,73.8276945 60.2210238,73.8276945 C60.0606905,73.7491333 59.9796429,73.5902555 59.8162262,73.5090611 L59.8162262,73.5090611 L59.8162262,73.5090611 L59.8162262,73.5090611 Z M59.9796429,73.4274278 L59.9796429,73.4274278 L59.8977143,73.4274278 C59.8977143,73.5090611 59.9796429,73.5090611 59.9796429,73.4274278 L59.9796429,73.4274278 L59.9796429,73.4274278 L59.9796429,73.4274278 Z" id="Shape"></path>
                        <path d="M56.9222976,71.1061445 C57.4861071,71.0245111 57.0852738,70.3811 57.4861071,70.1445389 C57.5675953,70.0637833 57.8865,70.0637833 58.1318452,69.9825889 C58.6916905,69.9009555 59.2519762,69.7460278 59.3339048,70.3811 C59.4973215,71.1877778 59.2519762,72.1485055 59.0145595,72.7067722 C58.9326309,72.7067722 58.8515833,72.7067722 58.8515833,72.62865 C58.7696548,72.7879667 58.6921309,72.7879667 58.5322381,72.7879667 C58.6141667,73.0280389 58.9326309,73.0280389 58.7696548,73.1873555 C58.6916905,73.2681111 58.5322381,73.1873555 58.4503095,73.0280389 C58.3688214,73.1096722 58.2873334,73.1873555 58.209369,73.1873555 C58.0499167,73.0280389 57.8865,72.9464055 57.7230833,72.7879667 C57.6411548,72.7879667 57.5671547,72.8652111 57.5671547,72.9464055 C57.4856666,72.8647722 57.4041786,72.7879667 57.32225,72.7063333 C57.1627976,72.7063333 57.2407619,72.5478945 57.0848333,72.5478945 C56.9218571,72.62865 57.0848333,72.7063333 57.0848333,72.8652111 C56.9958572,73.2681111 56.6804762,73.1096722 56.3580476,72.9468445 C56.2800833,72.8652111 56.2800833,72.7067722 56.1184286,72.7067722 C55.9536905,72.8652111 56.2800833,72.9468445 56.3580476,73.1877945 C56.4399762,73.1877945 56.5954643,73.1877945 56.5954643,73.26855 C56.5954643,73.4278667 56.4395357,73.4278667 56.3580476,73.5095 C56.1950715,73.5911333 56.2800833,73.4278667 56.1184286,73.4278667 C56.1184286,73.5906945 56.4395357,73.7491333 56.5954643,73.7491333 C56.6804762,73.9075722 56.5210238,73.8272555 56.5210238,73.9892055 C56.5954643,74.1485222 56.8403691,74.1485222 56.9218571,74.3074 C57.0848333,74.2301555 57.2412024,74.3074 57.2412024,74.3890333 C57.0852738,74.6291055 56.7584405,74.6291055 56.4399762,74.7103 C55.9536905,74.7884222 55.3938452,74.95125 54.6666191,74.8696167 C53.3029048,74.7879833 52.3347381,74.1485222 51.689,73.26855 L51.6110357,73.1877945 C51.5295476,73.1877945 51.2084405,73.5906945 51.1287143,73.6679389 C50.6446309,74.2301555 49.9993333,74.7103 49.4386071,75.1096889 C48.4722024,75.6675167 47.1071666,76.1485389 45.4967857,76.0704167 C44.2894405,75.9931722 43.3265595,75.5125889 42.6808215,74.8696167 C41.9535952,74.1485222 41.4730357,73.1877945 41.5527619,71.9044833 C41.5527619,70.7067555 42.1165714,69.7460278 42.6808215,69.0209833 C43.3265595,68.3042778 44.0445357,67.6604278 44.8510476,67.1807222 C46.4614286,66.0567278 48.3105476,65.1767555 50.1640714,64.3784167 C49.9988929,62.6965945 49.8394405,61.0920167 47.8286666,61.1732111 C47.2666191,61.1732111 46.7028095,61.33165 46.2204881,61.5761111 C46.0610357,61.6542333 45.8161309,61.7354278 45.8161309,61.8126722 C45.8161309,61.8126722 46.1407619,62.0571333 46.2204881,62.1339389 C46.5415952,62.5368389 46.8622619,63.1763 46.7842976,63.8973945 C46.7028095,65.1763167 45.4152977,66.0567278 43.8049166,65.9013611 C42.3579523,65.8197278 41.5532023,64.859 41.4734762,63.41725 C41.39375,62.4556445 41.8743095,61.6537945 42.3583929,61.0915778 C43.7273929,59.4097555 46.4618691,58.6109778 49.1179405,58.4490278 C51.7704881,58.3709055 54.1063333,59.092 55.0727381,60.6965778 C55.3938452,61.1732111 55.5532976,61.8126722 55.7145119,62.5368389 C55.954131,63.8157611 56.1188691,65.3391445 56.2805238,66.8620889 C56.4399762,67.9009389 56.5959047,69.0205445 56.758881,70.1445389 C56.758881,70.4622945 56.758881,70.8621222 56.9222976,71.1061445 L56.9222976,71.1061445 L56.9222976,71.1061445 L56.9222976,71.1061445 Z M49.9253333,67.1802833 L49.9253333,67.1802833 C49.3575595,67.50155 48.7959523,67.8232555 48.3114285,68.1410111 C47.7498214,68.6220333 47.0221547,69.3426889 46.8627024,70.0637833 C46.7847381,70.7067555 46.9481548,71.3427055 47.1873334,71.6674833 C47.3485476,71.9040445 47.6678929,72.1485055 47.9942857,72.2253111 C48.8734762,72.4662611 49.7601548,71.9040445 50.1645119,71.4239 C50.8860119,70.3806611 50.7265595,68.3038389 50.4856191,66.86165 C50.4058929,66.7808945 50.0830238,67.0209667 49.9253333,67.1802833 L49.9253333,67.1802833 L49.9253333,67.1802833 L49.9253333,67.1802833 Z M56.5959047,72.4667 L56.5959047,72.4667 L56.5959047,72.62865 C56.6809166,72.5478945 56.758881,72.5478945 56.758881,72.3850667 C56.6813571,72.3850667 56.5959047,72.3850667 56.5959047,72.4667 L56.5959047,72.4667 L56.5959047,72.4667 L56.5959047,72.4667 Z M56.8408095,74.3885945 L56.8408095,74.3885945 C56.8408095,74.3885945 56.8408095,74.4702278 56.9227381,74.4702278 C56.9227381,74.3885945 56.9227381,74.3885945 56.8408095,74.3074 L56.8408095,74.3885945 L56.8408095,74.3885945 L56.8408095,74.3885945 L56.8408095,74.3885945 Z" id="Shape"></path>
                    </g>
                </g>
            </g>
        </g>
    </g>
</svg>