<?xml version="1.0" encoding="UTF-8" standalone="no"?>
<svg width="253px" height="190px" viewBox="0 0 253 190" version="1.1" xmlns="http://www.w3.org/2000/svg" xmlns:xlink="http://www.w3.org/1999/xlink">
    <!-- Generator: Sketch 3.8.1 (29687) - http://www.bohemiancoding.com/sketch -->
    <title>toptal_logo</title>
    <desc>Created with Sketch.</desc>
    <defs>
        <polygon id="path-1" points="19.9010929 0.861599099 0.0738513514 0.861599099 0.0738513514 58.7955225 39.7283345 58.7955225 39.7283345 0.861599099 19.9010929 0.861599099"></polygon>
        <polygon id="path-3" points="0.563731982 44.4678153 63.1318277 44.4678153 63.1318277 0.171774775 0.563731982 0.171774775"></polygon>
    </defs>
    <g id="Page-1" stroke="none" stroke-width="1" fill="none" fill-rule="evenodd">
        <g id="toptal_logo">
            <g id="full_logo-2" transform="translate(35.000000, 65.459459)">
                <g id="Group-3">
                    <mask id="mask-2" fill="white">
                        <use xlink:href="#path-1"></use>
                    </mask>
                    <g id="Clip-2"></g>
                    <path d="M10.8918435,35.3932601 L25.5021025,20.7793086 L28.5127759,23.789982 L13.8988243,38.4014718 L10.8918435,35.3932601 L10.8918435,35.3932601 Z M39.7283345,25.139 L15.4497027,0.861599099 L10.5398187,5.77148311 L19.6432286,14.874893 L0,34.5168908 L24.2774009,58.7955225 L29.1872849,53.8856385 L20.083875,44.7773052 L39.7283345,25.139 L39.7283345,25.139 Z" id="Fill-1" fill="#3C609D" mask="url(#mask-2)"></path>
                </g>
                <path d="M56.4642815,7.91440315 L56.4642815,15.3524651 L64.5436194,15.3524651 L64.5436194,19.648152 L56.4642815,19.648152 L56.4642815,36.3828682 C56.4642815,40.2317545 57.553589,42.4116002 60.695964,42.4116002 C62.2345338,42.4116002 63.1330586,42.2823604 63.966348,42.0275732 L64.222366,46.3232601 C63.1330586,46.7072872 61.4012444,47.092545 59.2213986,47.092545 C56.5922905,47.092545 54.4764493,46.1927894 53.129893,44.719455 C51.5913232,42.9888716 50.9500473,40.2317545 50.9500473,36.5748818 L50.9500473,19.648152 L46.1398626,19.648152 L46.1398626,15.3524651 L50.9500473,15.3524651 L50.9500473,9.58098198 L56.4642815,7.91440315" id="Fill-4" fill="#3C609D"></path>
                <g id="Group-8" transform="translate(64.004505, 14.539414)">
                    <mask id="mask-4" fill="white">
                        <use xlink:href="#path-3"></use>
                    </mask>
                    <g id="Clip-6"></g>
                    <path d="M6.33398423,16.3932241 C6.33398423,23.191241 10.1804088,28.3189865 15.6958739,28.3189865 C21.0820991,28.3189865 25.121768,23.2540146 25.121768,16.2652151 C25.121768,11.0069989 22.4914291,4.40345721 15.8238829,4.40345721 C9.21911036,4.40345721 6.33398423,10.5589673 6.33398423,16.3932241 L6.33398423,16.3932241 Z M30.8920203,16.0732016 C30.8920203,27.5497016 22.8766869,32.5531306 15.4398559,32.5531306 C7.10326914,32.5531306 0.563731982,26.3963896 0.563731982,16.5864685 C0.563731982,6.26328041 7.42452252,0.171774775 15.9531227,0.171774775 C24.8645191,0.171774775 30.8920203,6.64730743 30.8920203,16.0732016 L30.8920203,16.0732016 Z" id="Fill-5" fill="#3C609D" mask="url(#mask-4)"></path>
                    <path d="M39.2790721,19.2155766 C39.2790721,20.0500968 39.3430766,20.8193818 39.5363209,21.5234313 C40.5628547,25.4350912 43.958786,28.126973 48.0009167,28.126973 C53.9619516,28.126973 57.4243491,23.2540146 57.4243491,16.1372061 C57.4243491,9.98169595 54.1551959,4.65947523 48.1929302,4.65947523 C44.3440439,4.65947523 40.6896329,7.35381869 39.6630991,11.5842703 C39.4710856,12.2895507 39.2790721,13.1240709 39.2790721,13.8281205 L39.2790721,19.2155766 L39.2790721,19.2155766 Z M33.7008333,10.9442252 C33.7008333,6.96856081 33.5715935,3.76218131 33.4448153,0.813050676 L38.4445518,0.813050676 L38.767036,6.13404054 L38.8938142,6.13404054 C41.1388953,2.3516205 44.8585417,0.171774775 49.9235135,0.171774775 C57.4895845,0.171774775 63.1318277,6.51929842 63.1318277,15.8799572 C63.1318277,27.0376655 56.2698063,32.5531306 48.9622151,32.5531306 C44.8585417,32.5531306 41.2669043,30.7573119 39.4058502,27.6801723 L39.2790721,27.6801723 L39.2790721,44.5416667 L33.7008333,44.5416667 L33.7008333,10.9442252 L33.7008333,10.9442252 Z" id="Fill-7" fill="#3C609D" mask="url(#mask-4)"></path>
                </g>
                <path d="M137.907552,7.91440315 L137.907552,15.3524651 L145.985659,15.3524651 L145.985659,19.648152 L137.907552,19.648152 L137.907552,36.3828682 C137.907552,40.2317545 138.996859,42.4116002 142.139234,42.4116002 C143.677804,42.4116002 144.573867,42.2823604 145.408387,42.0275732 L145.665636,46.3232601 C144.573867,46.7072872 142.843284,47.092545 140.663438,47.092545 C138.035561,47.092545 135.91972,46.1927894 134.573163,44.719455 C133.033363,42.9888716 132.393318,40.2317545 132.393318,36.5748818 L132.393318,19.648152 L127.583133,19.648152 L127.583133,15.3524651 L132.393318,15.3524651 L132.393318,9.58098198 L137.907552,7.91440315" id="Fill-9" fill="#3C609D"></path>
                <path d="M166.22216,30.5486115 C160.065419,30.4193716 153.07785,31.5099099 153.07785,37.5386419 C153.07785,41.2558266 155.512483,42.9236363 158.334836,42.9236363 C162.438509,42.9236363 165.068848,40.3585327 165.964911,37.7306554 C166.158155,37.0893795 166.22216,36.4468727 166.22216,35.9348367 L166.22216,30.5486115 L166.22216,30.5486115 Z M171.67239,38.9479718 C171.67239,41.6423153 171.800399,44.2701926 172.11919,46.3860338 L167.054218,46.3860338 L166.607418,42.4743739 L166.415404,42.4743739 C164.681128,44.9114685 161.349202,47.092545 156.924275,47.092545 C150.639525,47.092545 147.435607,42.6663874 147.435607,38.1786869 C147.435607,30.6766205 154.104384,26.5729471 166.09292,26.6369516 L166.09292,25.9969065 C166.09292,23.4945766 165.38887,18.8148626 159.038885,18.8788671 C156.089755,18.8788671 153.07785,19.7121565 150.896774,21.1867218 L149.615453,17.4043018 C152.178095,15.8004966 155.961745,14.7111892 159.873405,14.7111892 C169.364535,14.7111892 171.67239,21.1867218 171.67239,27.342232 L171.67239,38.9479718 L171.67239,38.9479718 Z" id="Fill-10" fill="#3C609D"></path>
                <polygon id="Fill-11" fill="#3C609D" points="175.853607 46.3860338 181.49585 46.3860338 181.49585 0.861599099 175.853607 0.861599099"></polygon>
            </g>
        </g>
    </g>
</svg>