<?xml version="1.0" encoding="UTF-8" standalone="no"?>
<svg width="129px" height="85px" viewBox="0 0 129 85" version="1.1" xmlns="http://www.w3.org/2000/svg" xmlns:xlink="http://www.w3.org/1999/xlink">
    <!-- Generator: Sketch 3.7.2 (28276) - http://www.bohemiancoding.com/sketch -->
    <title>become-sponsor</title>
    <desc>Created with Sketch.</desc>
    <defs></defs>
    <g id="Variant-2" stroke="none" stroke-width="1" fill="none" fill-rule="evenodd">
        <g id="become-sponsor" transform="translate(-1.000000, 1.000000)">
            <g id="ruby" transform="translate(37.770270, 0.000000)" stroke="#7F7F7F">
                <g id="Page-1">
                    <g id="VER.1">
                        <path d="M28.0473497,65.7340978 L51.2263031,31.1676323" id="Shape"></path>
                        <path d="M28.0473497,65.7340978 L52.7854967,44.3426255" id="Shape"></path>
                        <path d="M28.0473497,65.7340978 L5.30163155,31.1676323" id="Shape"></path>
                        <path d="M5.30163155,31.1676323 L42.3917174,44.3426255" id="Shape"></path>
                        <path d="M51.2263031,31.1676323 L55.336771,22.1010118" id="Shape"></path>
                        <path d="M55.336771,22.1010118 L41.7295301,16.2926227" id="Shape"></path>
                        <path d="M52.7854967,44.3426255 L55.336771,22.1010118" id="Shape"></path>
                        <path d="M51.2263031,31.1676323 L52.7854967,44.3426255" id="Shape"></path>
                        <path d="M41.7295301,16.2926227 L52.0059667,11.4759098" id="Shape"></path>
                        <path d="M52.0059667,11.4759098 L55.336771,22.1010118" id="Shape"></path>
                        <path d="M6.01035591,14.5926064 L17.9166584,8.07587716" id="Shape"></path>
                        <path d="M5.30163155,40.2341195 L6.01035591,14.5926064" id="Shape"></path>
                        <path d="M5.30163155,31.1676323 L0.0570713123,21.2510037" id="Shape"></path>
                        <path d="M0.0570713123,21.2510037 L6.01035591,14.5926064" id="Shape"></path>
                        <path d="M17.9166584,8.07587716 L41.7295301,16.2926227" id="Shape"></path>
                        <path d="M6.01035591,14.5926064 L17.9166584,2.14274556" id="Shape"></path>
                        <path d="M17.5675676,8.07587716 L17.5675676,2.14274556" id="Shape"></path>
                        <path d="M17.9166584,2.14274556 L41.7295301,0.000932902735" id="Shape"></path>
                        <path d="M41.2837838,0.000932902735 L41.2837838,16.2926227" id="Shape"></path>
                        <path d="M41.7295301,0.000932902735 L52.0059667,11.4759098" id="Shape"></path>
                        <path d="M51.2263031,31.1676323 L30.7443693,40.2341195" id="Shape"></path>
                        <path d="M30.7443693,40.2341195 L28.0473497,65.7340978" id="Shape"></path>
                        <path d="M28.0473497,65.7340978 L5.30163155,40.2341195" id="Shape"></path>
                        <path d="M5.30163155,40.2341195 L0.0570713123,21.2510037" id="Shape"></path>
                    </g>
                </g>
            </g>
            <text id="BECOME-A-SPONSOR" font-family="Futura-Medium, Futura" font-size="12.2857143" font-weight="400" fill="#7F7F7F">
                <tspan x="0" y="82.3265306">BECOME A SPONSOR</tspan>
            </text>
        </g>
    </g>
</svg>