<?xml version="1.0" encoding="UTF-8" standalone="no"?>
<svg width="180px" height="207px" viewBox="0 0 180 207" version="1.1" xmlns="http://www.w3.org/2000/svg" xmlns:xlink="http://www.w3.org/1999/xlink" xmlns:sketch="http://www.bohemiancoding.com/sketch/ns">
    <!-- Generator: Sketch 3.5.2 (25235) - http://www.bohemiancoding.com/sketch -->
    <title>ruby -1.1.3.2</title>
    <desc>Created with Sketch.</desc>
    <defs>
        <path id="path-1" d="M0,0.203900415 L179.306141,0.203900415 L179.306141,206.843154 L0,206.843154"></path>
        <path id="path-3" d="M0,0.203900415 L179.306141,0.203900415 L179.306141,206.843154 L0,206.843154 L0,0.203900415 Z"></path>
    </defs>
    <g id="Page-1" stroke="none" stroke-width="1" fill="none" fill-rule="evenodd" sketch:type="MSPage">
        <g id="ruby--1.1.3.2" sketch:type="MSLayerGroup">
            <path d="M89.0253112,103.544066 L90.2815768,103.544066 L90.2815768,206.344232 L89.0253112,206.344232 L89.0253112,103.544066 Z" id="Fill-1" fill="#C15A5B" sketch:type="MSShapeGroup"></path>
            <path d="M89.9671369,104.087801 L89.3390041,103.000332 L178.363568,51.5965145 L178.991701,52.6839834 L89.9671369,104.087801" id="Fill-2" fill="#C15A5B" sketch:type="MSShapeGroup"></path>
            <g id="Group-6">
                <mask id="mask-2" sketch:name="Clip 4" fill="white">
                    <use xlink:href="#path-1"></use>
                </mask>
                <g id="Clip-4"></g>
                <path d="M89.3390041,104.087801 L0.313692946,52.6839834 L0.941825726,51.5965145 L89.9671369,103.000332 L89.3390041,104.087801" id="Fill-3" fill="#C15A5B" sketch:type="MSShapeGroup" mask="url(#mask-2)"></path>
                <path d="M89.9671369,206.887967 L89.3390041,205.799751 L178.363568,154.395934 L178.991701,155.484149 L89.9671369,206.887967" id="Fill-5" fill="#C15A5B" sketch:type="MSShapeGroup" mask="url(#mask-2)"></path>
            </g>
            <path d="M178.049876,52.140249 L179.306141,52.140249 L179.306141,154.939668 L178.049876,154.939668 L178.049876,52.140249 Z" id="Fill-7" fill="#C15A5B" sketch:type="MSShapeGroup"></path>
            <path d="M178.363568,52.6847303 L89.3367635,1.29211618 L89.9648963,0.203900415 L178.991701,51.5965145 L178.363568,52.6847303" id="Fill-8" fill="#C15A5B" sketch:type="MSShapeGroup"></path>
            <path d="M0.941825726,52.6839834 L0.313692946,51.5965145 L89.3367635,0.203900415 L89.9648963,1.29211618 L0.941825726,52.6839834" id="Fill-9" fill="#C15A5B" sketch:type="MSShapeGroup"></path>
            <g id="Group-13">
                <mask id="mask-4" sketch:name="Clip 11" fill="white">
                    <use xlink:href="#path-3"></use>
                </mask>
                <g id="Clip-11"></g>
                <path d="M0,52.140249 L1.25626556,52.140249 L1.25626556,154.939668 L0,154.939668 L0,52.140249 Z" id="Fill-10" fill="#C15A5B" sketch:type="MSShapeGroup" mask="url(#mask-4)"></path>
                <path d="M0.313692946,155.484149 L0.941825726,154.395934 C0.941825726,154.395934 30.8384574,171.658451 45.7867732,180.28971 C60.5135611,188.793057 89.9671369,205.799751 89.9671369,205.799751 L89.3390041,206.887967 L0.313692946,155.484149 Z" id="Fill-12" fill="#C15A5B" sketch:type="MSShapeGroup" mask="url(#mask-4)"></path>
            </g>
            <path d="M90.0007469,21.1653112 L80.266556,26.78639 L123.78249,52.0760166 L118.917261,54.8850622 L75.4013278,29.5954357 L65.66639,35.2157676 L118.369793,65.8448963 L118.851535,66.1249793 L143.186639,52.0745228 L90.0007469,21.1653112" id="Fill-14" fill="#C15A5B" sketch:type="MSShapeGroup"></path>
            <path d="M60.799668,38.0263071 L36.466805,52.0760166 L89.6526971,82.9844813 L113.98556,68.9355187 L104.315602,63.3159336 L89.7154357,71.7460581 L84.8793361,68.9355187 L99.4795021,60.5053942 L89.8102905,54.8858091 L75.2101245,63.3159336 L55.8687137,52.0760166 L70.4688797,43.6458921 L60.799668,38.0263071" id="Fill-15" fill="#C15A5B" sketch:type="MSShapeGroup"></path>
            <path d="M160.622739,116.947718 L107.379336,147.689627 L107.457759,175.502988 L160.701162,144.760332 L160.670539,133.634689 L117.106058,158.788382 L117.09112,153.227054 L160.654108,128.074108 L160.622739,116.947718" id="Fill-16" fill="#C15A5B" sketch:type="MSShapeGroup"></path>
            <path d="M160.528631,83.5745228 L107.285228,114.316432 L107.315851,125.442075 L136.354108,108.67668 L107.332282,131.002656 L107.362905,142.129046 L136.390705,119.795602 L136.405643,125.360664 L146.085311,119.770954 L150.927386,116.976846 L160.607801,111.387137 L160.528631,83.5745228 M146.054689,108.646058 L146.039004,103.08473 L150.880332,100.289129 L150.896017,105.850456 L146.054689,108.646058" id="Fill-17" fill="#C15A5B" sketch:type="MSShapeGroup"></path>
            <path d="M42.9789212,97.5525311 L33.2977593,91.9620747 L28.4586722,89.1687137 L18.7767635,83.5782573 L18.6042324,144.760332 L42.80639,158.733859 L42.8086307,158.179668 L42.9789212,97.5525311 M28.3175104,139.227386 L28.4273029,100.292116 L33.2656432,103.086224 L33.1565975,142.020747 L28.3175104,139.227386" id="Fill-18" fill="#C15A5B" sketch:type="MSShapeGroup"></path>
            <path d="M72.020166,114.320913 L62.3390041,108.730456 L62.2919502,125.417427 L57.4528631,122.622573 L57.499917,105.937095 L47.8180083,100.346639 L47.7395851,128.157012 L52.580166,130.950373 L47.6454772,161.529461 L57.3273859,167.11917 L62.259834,136.544564 L62.166473,169.912531 L71.8476349,175.502988 L72.020166,114.320913" id="Fill-19" fill="#C15A5B" sketch:type="MSShapeGroup"></path>
        </g>
    </g>
</svg>