<?xml version="1.0" encoding="UTF-8" standalone="no"?>
<svg width="501px" height="596px" viewBox="0 0 501 596" version="1.1" xmlns="http://www.w3.org/2000/svg" xmlns:xlink="http://www.w3.org/1999/xlink" xmlns:sketch="http://www.bohemiancoding.com/sketch/ns">
    <!-- Generator: Sketch 3.5.2 (25235) - http://www.bohemiancoding.com/sketch -->
    <title>VER.1</title>
    <desc>Created with Sketch.</desc>
    <defs></defs>
    <g id="Page-1" stroke="none" stroke-width="1" fill="none" fill-rule="evenodd" sketch:type="MSPage">
        <g id="VER.1" sketch:type="MSLayerGroup" stroke="#C1C1C1">
            <path d="M253.419277,595.256627 L462.850602,282.76506" id="Shape" sketch:type="MSShapeGroup"></path>
            <path d="M253.419277,595.256627 L476.938554,401.871084" id="Shape" sketch:type="MSShapeGroup"></path>
            <path d="M253.419277,595.256627 L47.9024096,282.76506" id="Shape" sketch:type="MSShapeGroup"></path>
            <path d="M47.9024096,282.76506 L383.026506,401.871084" id="Shape" sketch:type="MSShapeGroup"></path>
            <path d="M462.850602,282.76506 L499.990361,200.8" id="Shape" sketch:type="MSShapeGroup"></path>
            <path d="M499.990361,200.8 L377.043373,148.290361" id="Shape" sketch:type="MSShapeGroup"></path>
            <path d="M476.938554,401.871084 L499.990361,200.8" id="Shape" sketch:type="MSShapeGroup"></path>
            <path d="M462.850602,282.76506 L476.938554,401.871084" id="Shape" sketch:type="MSShapeGroup"></path>
            <path d="M377.043373,148.290361 L469.895181,104.745783" id="Shape" sketch:type="MSShapeGroup"></path>
            <path d="M469.895181,104.745783 L499.990361,200.8" id="Shape" sketch:type="MSShapeGroup"></path>
            <path d="M54.3060241,132.921687 L161.884337,74.0084337" id="Shape" sketch:type="MSShapeGroup"></path>
            <path d="M47.9024096,364.728916 L54.3060241,132.921687" id="Shape" sketch:type="MSShapeGroup"></path>
            <path d="M47.9024096,282.76506 L0.515662651,193.115663" id="Shape" sketch:type="MSShapeGroup"></path>
            <path d="M0.515662651,193.115663 L54.3060241,132.921687" id="Shape" sketch:type="MSShapeGroup"></path>
            <path d="M161.884337,74.0084337 L377.043373,148.290361" id="Shape" sketch:type="MSShapeGroup"></path>
            <path d="M54.3060241,132.921687 L161.884337,20.3710843" id="Shape" sketch:type="MSShapeGroup"></path>
            <path d="M161.884337,74.0084337 L161.884337,20.3710843" id="Shape" sketch:type="MSShapeGroup"></path>
            <path d="M161.884337,20.3710843 L377.043373,1.00843373" id="Shape" sketch:type="MSShapeGroup"></path>
            <path d="M377.043373,1.00843373 L377.043373,148.290361" id="Shape" sketch:type="MSShapeGroup"></path>
            <path d="M377.043373,1.00843373 L469.895181,104.745783" id="Shape" sketch:type="MSShapeGroup"></path>
            <path d="M462.850602,282.76506 L277.787952,364.728916" id="Shape" sketch:type="MSShapeGroup"></path>
            <path d="M277.787952,364.728916 L253.419277,595.256627" id="Shape" sketch:type="MSShapeGroup"></path>
            <path d="M253.419277,595.256627 L47.9024096,364.728916" id="Shape" sketch:type="MSShapeGroup"></path>
            <path d="M47.9024096,364.728916 L0.515662651,193.115663" id="Shape" sketch:type="MSShapeGroup"></path>
        </g>
    </g>
</svg>