<?xml version="1.0" encoding="UTF-8" standalone="no"?>
<svg width="100px" height="115px" viewBox="0 0 100 115" version="1.1" xmlns="http://www.w3.org/2000/svg" xmlns:xlink="http://www.w3.org/1999/xlink" xmlns:sketch="http://www.bohemiancoding.com/sketch/ns">
    <!-- Generator: Sketch 3.5.2 (25235) - http://www.bohemiancoding.com/sketch -->
    <title>ruby -1.1.3.2</title>
    <desc>Created with Sketch.</desc>
    <defs>
        <path id="path-1" d="M0,0.113278008 L99.6145228,0.113278008 L99.6145228,114.912863 L0,114.912863"></path>
        <path id="path-3" d="M0,0.113278008 L99.6145228,0.113278008 L99.6145228,114.912863 L0,114.912863 L0,0.113278008 Z"></path>
    </defs>
    <g id="Page-1" stroke="none" stroke-width="1" fill="none" fill-rule="evenodd" sketch:type="MSPage">
        <g id="ruby--1.1.3.2" sketch:type="MSLayerGroup">
            <path d="M49.4585062,57.5244813 L50.1564315,57.5244813 L50.1564315,114.635685 L49.4585062,114.635685 L49.4585062,57.5244813 Z" id="Fill-1" fill="#C15A5B" sketch:type="MSShapeGroup"></path>
            <path d="M49.9817427,57.826556 L49.6327801,57.2224066 L99.0908714,28.6647303 L99.439834,29.2688797 L49.9817427,57.826556" id="Fill-2" fill="#C15A5B" sketch:type="MSShapeGroup"></path>
            <g id="Group-6">
                <mask id="mask-2" sketch:name="Clip 4" fill="white">
                    <use xlink:href="#path-1"></use>
                </mask>
                <g id="Clip-4"></g>
                <path d="M49.6327801,57.826556 L0.174273859,29.2688797 L0.523236515,28.6647303 L49.9817427,57.2224066 L49.6327801,57.826556" id="Fill-3" fill="#C15A5B" sketch:type="MSShapeGroup" mask="url(#mask-2)"></path>
                <path d="M49.9817427,114.937759 L49.6327801,114.333195 L99.0908714,85.7755187 L99.439834,86.380083 L49.9817427,114.937759" id="Fill-5" fill="#C15A5B" sketch:type="MSShapeGroup" mask="url(#mask-2)"></path>
            </g>
            <path d="M98.9165975,28.966805 L99.6145228,28.966805 L99.6145228,86.0775934 L98.9165975,86.0775934 L98.9165975,28.966805 Z" id="Fill-7" fill="#C15A5B" sketch:type="MSShapeGroup"></path>
            <path d="M99.0908714,29.2692946 L49.6315353,0.717842324 L49.9804979,0.113278008 L99.439834,28.6647303 L99.0908714,29.2692946" id="Fill-8" fill="#C15A5B" sketch:type="MSShapeGroup"></path>
            <path d="M0.523236515,29.2688797 L0.174273859,28.6647303 L49.6315353,0.113278008 L49.9804979,0.717842324 L0.523236515,29.2688797" id="Fill-9" fill="#C15A5B" sketch:type="MSShapeGroup"></path>
            <g id="Group-13">
                <mask id="mask-4" sketch:name="Clip 11" fill="white">
                    <use xlink:href="#path-3"></use>
                </mask>
                <g id="Clip-11"></g>
                <path d="M0,28.966805 L0.697925311,28.966805 L0.697925311,86.0775934 L0,86.0775934 L0,28.966805 Z" id="Fill-10" fill="#C15A5B" sketch:type="MSShapeGroup" mask="url(#mask-4)"></path>
                <path d="M0.174273859,86.380083 L0.523236515,85.7755187 L25.4370962,100.16095 C33.618645,104.885032 49.9817427,114.333195 49.9817427,114.333195 L49.6327801,114.937759 L0.174273859,86.380083 Z" id="Fill-12" fill="#C15A5B" sketch:type="MSShapeGroup" mask="url(#mask-4)"></path>
            </g>
            <path d="M50.0004149,11.7585062 L44.5925311,14.8813278 L68.7680498,28.9311203 L66.0651452,30.4917012 L41.8896266,16.4419087 L36.4813278,19.5643154 L65.7609959,36.5804979 L66.0286307,36.7360996 L79.5481328,28.9302905 L50.0004149,11.7585062" id="Fill-14" fill="#C15A5B" sketch:type="MSShapeGroup"></path>
            <path d="M33.7775934,21.1257261 L20.2593361,28.9311203 L49.8070539,46.1024896 L63.3253112,38.2975104 L57.953112,35.1755187 L49.8419087,39.8589212 L47.1551867,38.2975104 L55.26639,33.6141079 L49.8946058,30.4921162 L41.7834025,35.1755187 L31.0381743,28.9311203 L39.1493776,24.2477178 L33.7775934,21.1257261" id="Fill-15" fill="#C15A5B" sketch:type="MSShapeGroup"></path>
            <path d="M89.2348548,64.9709544 L59.6551867,82.0497925 L59.6987552,97.5016598 L89.2784232,80.4224066 L89.2614108,74.2414938 L65.0589212,88.2157676 L65.0506224,85.1261411 L89.2522822,71.1522822 L89.2348548,64.9709544" id="Fill-16" fill="#C15A5B" sketch:type="MSShapeGroup"></path>
            <path d="M89.1825726,46.4302905 L59.6029046,63.5091286 L59.619917,69.6900415 L75.7522822,60.3759336 L59.6290456,72.7792531 L59.6460581,78.9605809 L75.7726141,66.553112 L75.7809129,69.6448133 L81.1585062,66.5394191 L83.8485477,64.9871369 L89.226556,61.8817427 L89.1825726,46.4302905 M81.1414938,60.3589212 L81.1327801,57.2692946 L83.8224066,55.7161826 L83.8311203,58.8058091 L81.1414938,60.3589212" id="Fill-17" fill="#C15A5B" sketch:type="MSShapeGroup"></path>
            <path d="M23.8771784,54.1958506 L18.4987552,51.0900415 L15.8103734,49.5381743 L10.4315353,46.4323651 L10.3356846,80.4224066 L23.7813278,88.1854772 L23.7825726,87.8775934 L23.8771784,54.1958506 M15.7319502,77.3485477 L15.7929461,55.7178423 L18.4809129,57.2701245 L18.420332,78.9004149 L15.7319502,77.3485477" id="Fill-18" fill="#C15A5B" sketch:type="MSShapeGroup"></path>
            <path d="M40.0112033,63.5116183 L34.6327801,60.4058091 L34.606639,69.6763485 L31.9182573,68.1236515 L31.9443983,58.8539419 L26.5655602,55.7481328 L26.5219917,71.1983402 L29.2112033,72.7502075 L26.4697095,89.7385892 L31.8485477,92.8439834 L34.5887967,75.8580913 L34.5369295,94.3958506 L39.9153527,97.5016598 L40.0112033,63.5116183" id="Fill-19" fill="#C15A5B" sketch:type="MSShapeGroup"></path>
        </g>
    </g>
</svg>