<?xml version="1.0" encoding="UTF-8" standalone="no"?>
<svg width="596px" height="501px" viewBox="0 0 596 501" version="1.1" xmlns="http://www.w3.org/2000/svg" xmlns:xlink="http://www.w3.org/1999/xlink">
    <!-- Generator: Sketch 3.7.2 (28276) - http://www.bohemiancoding.com/sketch -->
    <title>ruby-white</title>
    <desc>Created with Sketch.</desc>
    <defs></defs>
    <g id="Page-1" stroke="none" stroke-width="1" fill="none" fill-rule="evenodd">
        <g id="ruby-white" transform="translate(298.000000, 250.500000) rotate(-90.000000) translate(-298.000000, -250.500000) translate(48.000000, -47.000000)" stroke="#FFFFFF">
            <g id="Page-1">
                <g id="VER.1">
                    <path d="M253.419277,594.256627 L462.850602,281.76506" id="Shape"></path>
                    <path d="M253.419277,594.256627 L476.938554,400.871084" id="Shape"></path>
                    <path d="M253.419277,594.256627 L47.9024096,281.76506" id="Shape"></path>
                    <path d="M47.9024096,281.76506 L383.026506,400.871084" id="Shape"></path>
                    <path d="M462.850602,281.76506 L499.990361,199.8" id="Shape"></path>
                    <path d="M499.990361,199.8 L377.043373,147.290361" id="Shape"></path>
                    <path d="M476.938554,400.871084 L499.990361,199.8" id="Shape"></path>
                    <path d="M462.850602,281.76506 L476.938554,400.871084" id="Shape"></path>
                    <path d="M377.043373,147.290361 L469.895181,103.745783" id="Shape"></path>
                    <path d="M469.895181,103.745783 L499.990361,199.8" id="Shape"></path>
                    <path d="M54.3060241,131.921687 L161.884337,73.0084337" id="Shape"></path>
                    <path d="M47.9024096,363.728916 L54.3060241,131.921687" id="Shape"></path>
                    <path d="M47.9024096,281.76506 L0.515662651,192.115663" id="Shape"></path>
                    <path d="M0.515662651,192.115663 L54.3060241,131.921687" id="Shape"></path>
                    <path d="M161.884337,73.0084337 L377.043373,147.290361" id="Shape"></path>
                    <path d="M54.3060241,131.921687 L161.884337,19.3710843" id="Shape"></path>
                    <path d="M161.884337,73.0084337 L161.884337,19.3710843" id="Shape"></path>
                    <path d="M161.884337,19.3710843 L377.043373,0.00843373" id="Shape"></path>
                    <path d="M377.043373,0.00843373 L377.043373,147.290361" id="Shape"></path>
                    <path d="M377.043373,0.00843373 L469.895181,103.745783" id="Shape"></path>
                    <path d="M462.850602,281.76506 L277.787952,363.728916" id="Shape"></path>
                    <path d="M277.787952,363.728916 L253.419277,594.256627" id="Shape"></path>
                    <path d="M253.419277,594.256627 L47.9024096,363.728916" id="Shape"></path>
                    <path d="M47.9024096,363.728916 L0.515662651,192.115663" id="Shape"></path>
                </g>
            </g>
        </g>
    </g>
</svg>